font.ufo
<glyph name="exclam" format="1">
  <advance width="306"/>
  <unicode hex="0021"/>
  <outline>
    <contour>
      <point x="85" y="687" type="line"/>
      <point x="102" y="208" type="line"/>
      <point x="204" y="208" type="line"/>
      <point x="221" y="687" type="line"/>
    </contour>
    <contour>
      <point x="82" y="60" type="curve" smooth="yes"/>
      <point x="82" y="20"/>
      <point x="100" y="-9"/>
      <point x="154" y="-9" type="curve" smooth="yes"/>
      <point x="208" y="-9"/>
      <point x="226" y="20"/>
      <point x="226" y="60" type="curve" smooth="yes"/>
      <point x="226" y="100"/>
      <point x="208" y="129"/>
      <point x="154" y="129" type="curve" smooth="yes"/>
      <point x="100" y="129"/>
      <point x="82" y="100"/>
    </contour>
  </outline>
</glyph>
<glyph name="quotedbl" format="1">
  <advance width="449"/>
  <unicode hex="0022"/>
  <outline>
    <contour>
      <point x="250" y="768" type="line"/>
      <point x="250" y="511" type="line"/>
      <point x="361" y="511" type="line"/>
      <point x="361" y="768" type="line"/>
    </contour>
    <contour>
      <point x="83" y="768" type="line"/>
      <point x="83" y="511" type="line"/>
      <point x="194" y="511" type="line"/>
      <point x="194" y="768" type="line"/>
    </contour>
  </outline>
</glyph>
<glyph name="numbersign" format="1">
  <advance width="600"/>
  <unicode hex="0023"/>
  <outline>
    <contour>
      <point x="402" y="682" type="line"/>
      <point x="304" y="0" type="line"/>
      <point x="416" y="0" type="line"/>
      <point x="513" y="682" type="line"/>
    </contour>
    <contour>
      <point x="37" y="278" type="line"/>
      <point x="37" y="179" type="line"/>
      <point x="527" y="179" type="line"/>
      <point x="527" y="278" type="line"/>
    </contour>
    <contour>
      <point x="183" y="682" type="line"/>
      <point x="85" y="0" type="line"/>
      <point x="197" y="0" type="line"/>
      <point x="294" y="682" type="line"/>
    </contour>
    <contour>
      <point x="70" y="503" type="line"/>
      <point x="70" y="404" type="line"/>
      <point x="559" y="404" type="line"/>
      <point x="559" y="503" type="line"/>
    </contour>
  </outline>
</glyph>
<glyph name="dollar" format="1">
  <advance width="424"/>
  <unicode hex="0024"/>
  <outline>
    <contour>
      <point x="151" y="744" type="line"/>
      <point x="151" y="673" type="line"/>
      <point x="270" y="673" type="line"/>
      <point x="270" y="744" type="line"/>
    </contour>
    <contour>
      <point x="143" y="8" type="line"/>
      <point x="143" y="-59" type="line"/>
      <point x="263" y="-59" type="line"/>
      <point x="263" y="8" type="line"/>
    </contour>
    <component base="S"/>
  </outline>
</glyph>
<glyph name="ampersand" format="1">
  <advance width="490"/>
  <unicode hex="0026"/>
  <outline>
    <contour>
      <point x="55" y="531" type="curve"/>
      <point x="55" y="472" type="line" smooth="yes"/>
      <point x="55" y="412"/>
      <point x="83" y="374"/>
      <point x="125" y="359" type="curve"/>
      <point x="79" y="345"/>
      <point x="53" y="308"/>
      <point x="53" y="247" type="curve" smooth="yes"/>
      <point x="53" y="166" type="line" smooth="yes"/>
      <point x="53" y="65"/>
      <point x="111" y="-7"/>
      <point x="245" y="-7" type="curve" smooth="yes"/>
      <point x="379" y="-7"/>
      <point x="433" y="65"/>
      <point x="433" y="166" type="curve" smooth="yes"/>
      <point x="433" y="474" type="line"/>
      <point x="311" y="474" type="line"/>
      <point x="311" y="169" type="line" smooth="yes"/>
      <point x="311" y="131"/>
      <point x="295" y="105"/>
      <point x="245" y="105" type="curve" smooth="yes"/>
      <point x="195" y="105"/>
      <point x="180" y="131"/>
      <point x="180" y="169" type="curve" smooth="yes"/>
      <point x="180" y="239" type="line" smooth="yes"/>
      <point x="180" y="279"/>
      <point x="197" y="301"/>
      <point x="243" y="301" type="curve" smooth="yes"/>
      <point x="481" y="301" type="line"/>
      <point x="481" y="410" type="line"/>
      <point x="242" y="410" type="line" smooth="yes"/>
      <point x="196" y="410"/>
      <point x="182" y="432"/>
      <point x="182" y="474" type="curve" smooth="yes"/>
      <point x="182" y="517" type="line" smooth="yes"/>
      <point x="182" y="553"/>
      <point x="199" y="576"/>
      <point x="273" y="576" type="curve" smooth="yes"/>
      <point x="324" y="576"/>
      <point x="363" y="571"/>
      <point x="397" y="558" type="curve"/>
      <point x="397" y="677" type="line"/>
      <point x="369" y="686"/>
      <point x="326" y="693"/>
      <point x="270" y="693" type="curve" smooth="yes"/>
      <point x="121" y="693"/>
      <point x="55" y="628"/>
    </contour>
  </outline>
</glyph>
<glyph name="quotesingle" format="1">
  <advance width="285"/>
  <unicode hex="0027"/>
  <outline>
    <contour>
      <point x="83" y="768" type="line"/>
      <point x="83" y="511" type="line"/>
      <point x="201" y="511" type="line"/>
      <point x="201" y="768" type="line"/>
    </contour>
  </outline>
</glyph>
<glyph name="parenleft" format="1">
  <advance width="335"/>
  <unicode hex="0028"/>
  <outline>
    <contour>
      <point x="170" y="832" type="line"/>
      <point x="116" y="717"/>
      <point x="65" y="532"/>
      <point x="65" y="333" type="curve" smooth="yes"/>
      <point x="65" y="135"/>
      <point x="116" y="-51"/>
      <point x="170" y="-165" type="curve"/>
      <point x="280" y="-165" type="line"/>
      <point x="227" y="-49"/>
      <point x="175" y="135"/>
      <point x="175" y="333" type="curve" smooth="yes"/>
      <point x="175" y="531"/>
      <point x="227" y="715"/>
      <point x="280" y="832" type="curve"/>
    </contour>
  </outline>
</glyph>
<glyph name="parenright" format="1">
  <advance width="336"/>
  <unicode hex="0029"/>
  <outline>
    <contour>
      <point x="54" y="832" type="line"/>
      <point x="107" y="715"/>
      <point x="159" y="531"/>
      <point x="159" y="333" type="curve" smooth="yes"/>
      <point x="159" y="135"/>
      <point x="107" y="-49"/>
      <point x="54" y="-165" type="curve"/>
      <point x="164" y="-165" type="line"/>
      <point x="218" y="-51"/>
      <point x="270" y="135"/>
      <point x="270" y="333" type="curve" smooth="yes"/>
      <point x="270" y="532"/>
      <point x="218" y="717"/>
      <point x="164" y="832" type="curve"/>
    </contour>
  </outline>
</glyph>
<glyph name="asterisk" format="1">
  <advance width="538"/>
  <unicode hex="002A"/>
  <outline>
    <contour>
      <point x="299" y="454" type="curve" smooth="yes"/>
      <point x="354" y="380" type="line"/>
      <point x="449" y="449" type="line"/>
      <point x="394" y="523" type="line" smooth="yes"/>
      <point x="327" y="615"/>
      <point x="269" y="597"/>
      <point x="269" y="597" type="curve"/>
      <point x="269" y="597"/>
      <point x="233" y="547"/>
    </contour>
    <contour>
      <point x="143" y="524" type="curve" smooth="yes"/>
      <point x="89" y="449" type="line"/>
      <point x="184" y="380" type="line"/>
      <point x="238" y="454" type="line" smooth="yes"/>
      <point x="305" y="547"/>
      <point x="269" y="597"/>
      <point x="269" y="597" type="curve"/>
      <point x="269" y="597"/>
      <point x="210" y="615"/>
    </contour>
    <contour>
      <point x="36" y="611" type="line"/>
      <point x="124" y="583" type="line" smooth="yes"/>
      <point x="232" y="547"/>
      <point x="269" y="597"/>
      <point x="269" y="597" type="curve"/>
      <point x="269" y="597"/>
      <point x="268" y="659"/>
      <point x="160" y="694" type="curve" smooth="yes"/>
      <point x="72" y="722" type="line"/>
    </contour>
    <contour>
      <point x="210" y="823" type="line"/>
      <point x="210" y="730" type="line"/>
      <point x="210" y="616"/>
      <point x="269" y="597"/>
      <point x="269" y="597" type="curve"/>
      <point x="269" y="597"/>
      <point x="327" y="616"/>
      <point x="327" y="730" type="curve"/>
      <point x="327" y="823" type="line"/>
    </contour>
    <contour>
      <point x="378" y="693" type="line"/>
      <point x="269" y="659"/>
      <point x="269" y="597"/>
      <point x="269" y="597" type="curve"/>
      <point x="269" y="597"/>
      <point x="305" y="547"/>
      <point x="414" y="582" type="curve" smooth="yes"/>
      <point x="502" y="611" type="line"/>
      <point x="466" y="723" type="line"/>
    </contour>
  </outline>
</glyph>
<glyph name="plus" format="1">
  <advance width="488"/>
  <unicode hex="002B"/>
  <outline>
    <contour>
      <point x="184" y="529" type="line"/>
      <point x="184" y="130" type="line"/>
      <point x="302" y="130" type="line"/>
      <point x="302" y="529" type="line"/>
    </contour>
    <contour>
      <point x="45" y="385" type="line"/>
      <point x="45" y="275" type="line"/>
      <point x="442" y="275" type="line"/>
      <point x="442" y="385" type="line"/>
    </contour>
  </outline>
</glyph>
<glyph name="comma" format="1">
  <advance width="198"/>
  <unicode hex="002C"/>
  <outline>
    <contour>
      <point x="57" y="128" type="line"/>
      <point x="12" y="-131" type="line"/>
      <point x="81" y="-131" type="line"/>
      <point x="110" y="-90"/>
      <point x="176" y="20"/>
      <point x="176" y="78" type="curve" smooth="yes"/>
      <point x="176" y="110"/>
      <point x="158" y="128"/>
      <point x="121" y="128" type="curve" smooth="yes"/>
    </contour>
  </outline>
</glyph>
<glyph name="period" format="1">
  <advance width="218"/>
  <unicode hex="002E"/>
  <outline>
    <contour>
      <point x="36" y="60" type="curve" smooth="yes"/>
      <point x="36" y="20"/>
      <point x="54" y="-9"/>
      <point x="108" y="-9" type="curve" smooth="yes"/>
      <point x="162" y="-9"/>
      <point x="180" y="20"/>
      <point x="180" y="60" type="curve" smooth="yes"/>
      <point x="180" y="100"/>
      <point x="162" y="129"/>
      <point x="108" y="129" type="curve" smooth="yes"/>
      <point x="54" y="129"/>
      <point x="36" y="100"/>
    </contour>
  </outline>
</glyph>
<glyph name="slash" format="1">
  <advance width="435"/>
  <unicode hex="002F"/>
  <outline>
    <contour>
      <point x="295" y="832" type="line"/>
      <point x="36" y="-165" type="line"/>
      <point x="148" y="-165" type="line"/>
      <point x="408" y="832" type="line"/>
    </contour>
  </outline>
</glyph>
<glyph name="two" format="1">
  <advance width="430"/>
  <unicode hex="0032"/>
  <outline>
    <contour>
      <point x="50" y="671" type="curve"/>
      <point x="50" y="549" type="line"/>
      <point x="84" y="563"/>
      <point x="128" y="574"/>
      <point x="185" y="574" type="curve" smooth="yes"/>
      <point x="249" y="574"/>
      <point x="263" y="551"/>
      <point x="263" y="517" type="curve" smooth="yes"/>
      <point x="263" y="493" type="line"/>
      <point x="263" y="447"/>
      <point x="255" y="426"/>
      <point x="221" y="401" type="curve" smooth="yes"/>
      <point x="127" y="324" type="line" smooth="yes"/>
      <point x="76" y="286"/>
      <point x="37" y="241"/>
      <point x="37" y="158" type="curve" smooth="yes"/>
      <point x="37" y="0" type="line"/>
      <point x="386" y="0" type="line"/>
      <point x="386" y="113" type="line"/>
      <point x="167" y="113" type="line"/>
      <point x="167" y="144" type="line" smooth="yes"/>
      <point x="167" y="193"/>
      <point x="175" y="207"/>
      <point x="230" y="251" type="curve" smooth="yes"/>
      <point x="316" y="320" type="line" smooth="yes"/>
      <point x="367" y="357"/>
      <point x="391" y="406"/>
      <point x="392" y="473" type="curve" smooth="yes"/>
      <point x="392" y="531" type="line" smooth="yes"/>
      <point x="392" y="630"/>
      <point x="331" y="692"/>
      <point x="186" y="692" type="curve" smooth="yes"/>
      <point x="119" y="692"/>
      <point x="71" y="678"/>
    </contour>
  </outline>
</glyph>
<glyph name="three" format="1">
  <advance width="413"/>
  <unicode hex="0033"/>
  <outline>
    <contour>
      <point x="40" y="679" type="curve"/>
      <point x="40" y="559" type="line"/>
      <point x="73" y="571"/>
      <point x="108" y="576"/>
      <point x="159" y="576" type="curve" smooth="yes"/>
      <point x="222" y="576"/>
      <point x="241" y="553"/>
      <point x="241" y="518" type="curve" smooth="yes"/>
      <point x="241" y="466" type="line" smooth="yes"/>
      <point x="241" y="426"/>
      <point x="225" y="404"/>
      <point x="178" y="404" type="curve" smooth="yes"/>
      <point x="104" y="404" type="line"/>
      <point x="104" y="286" type="line"/>
      <point x="180" y="286" type="line" smooth="yes"/>
      <point x="226" y="286"/>
      <point x="243" y="269"/>
      <point x="243" y="229" type="curve" smooth="yes"/>
      <point x="243" y="169" type="line" smooth="yes"/>
      <point x="243" y="133"/>
      <point x="224" y="110"/>
      <point x="161" y="110" type="curve" smooth="yes"/>
      <point x="103" y="110"/>
      <point x="59" y="121"/>
      <point x="25" y="135" type="curve"/>
      <point x="25" y="15" type="line"/>
      <point x="46" y="6"/>
      <point x="95" y="-6"/>
      <point x="163" y="-6" type="curve" smooth="yes"/>
      <point x="307" y="-6"/>
      <point x="371" y="57"/>
      <point x="371" y="156" type="curve" smooth="yes"/>
      <point x="371" y="246" type="line" smooth="yes"/>
      <point x="371" y="312"/>
      <point x="343" y="342"/>
      <point x="299" y="350" type="curve"/>
      <point x="343" y="363"/>
      <point x="368" y="403"/>
      <point x="368" y="462" type="curve"/>
      <point x="368" y="531" type="line" smooth="yes"/>
      <point x="368" y="631"/>
      <point x="304" y="693"/>
      <point x="160" y="693" type="curve" smooth="yes"/>
      <point x="104" y="693"/>
      <point x="67" y="687"/>
    </contour>
  </outline>
</glyph>
<glyph name="five" format="1">
  <advance width="435"/>
  <unicode hex="0035"/>
  <outline>
    <contour>
      <point x="50" y="687" type="line"/>
      <point x="50" y="303" type="line"/>
      <point x="133" y="309"/>
      <point x="160" y="313"/>
      <point x="200" y="313" type="curve" smooth="yes"/>
      <point x="253" y="313"/>
      <point x="269" y="296"/>
      <point x="269" y="256" type="curve"/>
      <point x="269" y="168" type="line" smooth="yes"/>
      <point x="269" y="133"/>
      <point x="249" y="110"/>
      <point x="186" y="110" type="curve" smooth="yes"/>
      <point x="139" y="110"/>
      <point x="94" y="120"/>
      <point x="45" y="136" type="curve"/>
      <point x="45" y="17" type="line"/>
      <point x="85" y="3"/>
      <point x="125" y="-6"/>
      <point x="191" y="-6" type="curve" smooth="yes"/>
      <point x="335" y="-6"/>
      <point x="397" y="57"/>
      <point x="397" y="155" type="curve" smooth="yes"/>
      <point x="397" y="274" type="line" smooth="yes"/>
      <point x="397" y="374"/>
      <point x="339" y="426"/>
      <point x="238" y="426" type="curve" smooth="yes"/>
      <point x="213" y="426"/>
      <point x="197" y="426"/>
      <point x="176" y="424" type="curve"/>
      <point x="176" y="568" type="line"/>
      <point x="376" y="568" type="line"/>
      <point x="376" y="687" type="line"/>
    </contour>
  </outline>
</glyph>
<glyph name="colon" format="1">
  <advance width="241"/>
  <unicode hex="003A"/>
  <outline>
    <contour>
      <point x="36" y="410" type="curve" smooth="yes"/>
      <point x="36" y="371"/>
      <point x="54" y="342"/>
      <point x="108" y="342" type="curve" smooth="yes"/>
      <point x="162" y="342"/>
      <point x="180" y="371"/>
      <point x="180" y="410" type="curve" smooth="yes"/>
      <point x="180" y="451"/>
      <point x="162" y="480"/>
      <point x="108" y="480" type="curve" smooth="yes"/>
      <point x="54" y="480"/>
      <point x="36" y="451"/>
    </contour>
    <contour>
      <point x="36" y="60" type="curve" smooth="yes"/>
      <point x="36" y="20"/>
      <point x="54" y="-9"/>
      <point x="108" y="-9" type="curve" smooth="yes"/>
      <point x="162" y="-9"/>
      <point x="180" y="20"/>
      <point x="180" y="60" type="curve" smooth="yes"/>
      <point x="180" y="100"/>
      <point x="162" y="129"/>
      <point x="108" y="129" type="curve" smooth="yes"/>
      <point x="54" y="129"/>
      <point x="36" y="100"/>
    </contour>
  </outline>
</glyph>
<glyph name="semicolon" format="1">
  <advance width="245"/>
  <unicode hex="003B"/>
  <outline>
    <contour>
      <point x="57" y="128" type="line"/>
      <point x="12" y="-131" type="line"/>
      <point x="81" y="-131" type="line"/>
      <point x="110" y="-90"/>
      <point x="176" y="20"/>
      <point x="176" y="78" type="curve" smooth="yes"/>
      <point x="176" y="110"/>
      <point x="158" y="128"/>
      <point x="121" y="128" type="curve" smooth="yes"/>
    </contour>
    <contour>
      <point x="36" y="410" type="curve" smooth="yes"/>
      <point x="36" y="371"/>
      <point x="54" y="342"/>
      <point x="108" y="342" type="curve" smooth="yes"/>
      <point x="162" y="342"/>
      <point x="180" y="371"/>
      <point x="180" y="410" type="curve" smooth="yes"/>
      <point x="180" y="451"/>
      <point x="162" y="480"/>
      <point x="108" y="480" type="curve" smooth="yes"/>
      <point x="54" y="480"/>
      <point x="36" y="451"/>
    </contour>
  </outline>
</glyph>
<glyph name="less" format="1">
  <advance width="497"/>
  <unicode hex="003C"/>
  <outline>
    <contour>
      <point x="36" y="387" type="line"/>
      <point x="36" y="290" type="line"/>
      <point x="442" y="420" type="line"/>
      <point x="442" y="534" type="line"/>
    </contour>
    <contour>
      <point x="36" y="273" type="line"/>
      <point x="442" y="126" type="line"/>
      <point x="442" y="240" type="line"/>
      <point x="36" y="369" type="line"/>
    </contour>
  </outline>
</glyph>
<glyph name="equal" format="1">
  <advance width="481"/>
  <unicode hex="003D"/>
  <outline>
    <contour>
      <point x="35" y="483" type="line"/>
      <point x="35" y="373" type="line"/>
      <point x="441" y="373" type="line"/>
      <point x="441" y="483" type="line"/>
    </contour>
    <contour>
      <point x="35" y="286" type="line"/>
      <point x="35" y="177" type="line"/>
      <point x="441" y="177" type="line"/>
      <point x="441" y="286" type="line"/>
    </contour>
  </outline>
</glyph>
<glyph name="greater" format="1">
  <advance width="493"/>
  <unicode hex="003E"/>
  <outline>
    <contour>
      <point x="45" y="420" type="line"/>
      <point x="452" y="290" type="line"/>
      <point x="452" y="387" type="line"/>
      <point x="45" y="534" type="line"/>
    </contour>
    <contour>
      <point x="45" y="240" type="line"/>
      <point x="45" y="126" type="line"/>
      <point x="452" y="273" type="line"/>
      <point x="452" y="369" type="line"/>
    </contour>
  </outline>
</glyph>
<glyph name="question" format="1">
  <advance width="411"/>
  <unicode hex="003F"/>
  <outline>
    <contour>
      <point x="29" y="679" type="curve"/>
      <point x="29" y="558" type="line"/>
      <point x="62" y="572"/>
      <point x="115" y="581"/>
      <point x="165" y="581" type="curve" smooth="yes"/>
      <point x="228" y="581"/>
      <point x="242" y="562"/>
      <point x="242" y="524" type="curve" smooth="yes"/>
      <point x="242" y="451" type="line" smooth="yes"/>
      <point x="242" y="403"/>
      <point x="219" y="385"/>
      <point x="153" y="385" type="curve" smooth="yes"/>
      <point x="95" y="385" type="line"/>
      <point x="101" y="208" type="line"/>
      <point x="206" y="208" type="line"/>
      <point x="213" y="290" type="line"/>
      <point x="328" y="290"/>
      <point x="366" y="349"/>
      <point x="366" y="448" type="curve" smooth="yes"/>
      <point x="366" y="537" type="line" smooth="yes"/>
      <point x="366" y="635"/>
      <point x="305" y="697"/>
      <point x="161" y="697" type="curve" smooth="yes"/>
      <point x="97" y="697"/>
      <point x="49" y="685"/>
    </contour>
    <contour>
      <point x="83" y="60" type="curve" smooth="yes"/>
      <point x="83" y="20"/>
      <point x="101" y="-9"/>
      <point x="156" y="-9" type="curve" smooth="yes"/>
      <point x="209" y="-9"/>
      <point x="227" y="20"/>
      <point x="227" y="60" type="curve" smooth="yes"/>
      <point x="227" y="100"/>
      <point x="209" y="129"/>
      <point x="156" y="129" type="curve" smooth="yes"/>
      <point x="101" y="129"/>
      <point x="83" y="100"/>
    </contour>
  </outline>
</glyph>
<glyph name="at" format="1">
  <advance width="900"/>
  <unicode hex="0040"/>
  <outline>
    <contour>
      <point x="63" y="282" type="curve" smooth="yes"/>
      <point x="63" y="37"/>
      <point x="143" y="-131"/>
      <point x="455" y="-131" type="curve" smooth="yes"/>
      <point x="546" y="-131" type="line"/>
      <point x="546" y="-32" type="line"/>
      <point x="456" y="-32" type="line" smooth="yes"/>
      <point x="202" y="-32"/>
      <point x="171" y="95"/>
      <point x="171" y="282" type="curve" smooth="yes"/>
      <point x="171" y="467"/>
      <point x="200" y="597"/>
      <point x="456" y="597" type="curve" smooth="yes"/>
      <point x="713" y="597"/>
      <point x="739" y="474"/>
      <point x="739" y="286" type="curve" smooth="yes"/>
      <point x="739" y="145"/>
      <point x="715" y="107"/>
      <point x="659" y="107" type="curve" smooth="yes"/>
      <point x="611" y="107"/>
      <point x="592" y="126"/>
      <point x="592" y="176" type="curve" smooth="yes"/>
      <point x="592" y="407" type="line" smooth="yes"/>
      <point x="592" y="486"/>
      <point x="548" y="526"/>
      <point x="447" y="526" type="curve" smooth="yes"/>
      <point x="396" y="526"/>
      <point x="349" y="516"/>
      <point x="326" y="509" type="curve"/>
      <point x="326" y="424" type="line"/>
      <point x="356" y="433"/>
      <point x="396" y="443"/>
      <point x="447" y="443" type="curve" smooth="yes"/>
      <point x="488" y="443"/>
      <point x="495" y="427"/>
      <point x="495" y="402" type="curve" smooth="yes"/>
      <point x="495" y="344" type="line"/>
      <point x="397" y="310" type="line" smooth="yes"/>
      <point x="337" y="288"/>
      <point x="307" y="254"/>
      <point x="307" y="188" type="curve" smooth="yes"/>
      <point x="307" y="164" type="line" smooth="yes"/>
      <point x="307" y="92"/>
      <point x="343" y="51"/>
      <point x="421" y="51" type="curve" smooth="yes"/>
      <point x="507" y="51"/>
      <point x="534" y="83"/>
      <point x="534" y="83" type="curve"/>
      <point x="501" y="114" type="line"/>
      <point x="516" y="47"/>
      <point x="572" y="13"/>
      <point x="652" y="13" type="curve" smooth="yes"/>
      <point x="771" y="13"/>
      <point x="845" y="80"/>
      <point x="845" y="286" type="curve" smooth="yes"/>
      <point x="845" y="532"/>
      <point x="770" y="696"/>
      <point x="456" y="696" type="curve" smooth="yes"/>
      <point x="147" y="696"/>
      <point x="63" y="526"/>
    </contour>
    <contour>
      <point x="495" y="146" type="line"/>
      <point x="495" y="146"/>
      <point x="471" y="132"/>
      <point x="444" y="132" type="curve" smooth="yes"/>
      <point x="414" y="132"/>
      <point x="405" y="141"/>
      <point x="405" y="165" type="curve" smooth="yes"/>
      <point x="405" y="191" type="line" smooth="yes"/>
      <point x="405" y="222"/>
      <point x="416" y="231"/>
      <point x="443" y="241" type="curve" smooth="yes"/>
      <point x="495" y="258" type="line"/>
    </contour>
  </outline>
</glyph>
<glyph name="A" format="1">
  <advance width="474"/>
  <unicode hex="0041"/>
  <outline>
    <contour>
      <point x="213" y="687" type="line"/>
      <point x="344" y="0" type="line"/>
      <point x="466" y="0" type="line"/>
      <point x="327" y="687" type="line"/>
    </contour>
    <contour>
      <point x="140" y="276" type="line"/>
      <point x="140" y="168" type="line"/>
      <point x="334" y="168" type="line"/>
      <point x="334" y="276" type="line"/>
    </contour>
    <contour>
      <point x="149" y="687" type="line"/>
      <point x="8" y="0" type="line"/>
      <point x="131" y="0" type="line"/>
      <point x="256" y="687" type="line"/>
    </contour>
  </outline>
</glyph>
<glyph name="B" format="1">
  <advance width="486"/>
  <unicode hex="0042"/>
  <outline>
    <contour>
      <point x="155" y="353" type="line"/>
      <point x="155" y="290" type="line"/>
      <point x="257" y="290" type="line" smooth="yes"/>
      <point x="298" y="290"/>
      <point x="318" y="272"/>
      <point x="318" y="232" type="curve" smooth="yes"/>
      <point x="318" y="165" type="line" smooth="yes"/>
      <point x="318" y="125"/>
      <point x="298" y="107"/>
      <point x="257" y="107" type="curve" smooth="yes"/>
      <point x="128" y="107" type="line"/>
      <point x="128" y="0" type="line"/>
      <point x="276" y="0" type="line" smooth="yes"/>
      <point x="383" y="0"/>
      <point x="444" y="48"/>
      <point x="444" y="157" type="curve" smooth="yes"/>
      <point x="444" y="225" type="line" smooth="yes"/>
      <point x="444" y="298"/>
      <point x="413" y="353"/>
      <point x="317" y="353" type="curve" smooth="yes"/>
    </contour>
    <contour>
      <point x="52" y="687" type="line"/>
      <point x="52" y="0" type="line"/>
      <point x="179" y="0" type="line"/>
      <point x="179" y="687" type="line"/>
    </contour>
    <contour>
      <point x="128" y="687" type="line"/>
      <point x="128" y="579" type="line"/>
      <point x="251" y="579" type="line" smooth="yes"/>
      <point x="292" y="579"/>
      <point x="312" y="562"/>
      <point x="312" y="522" type="curve" smooth="yes"/>
      <point x="312" y="460" type="line" smooth="yes"/>
      <point x="312" y="420"/>
      <point x="292" y="402"/>
      <point x="251" y="402" type="curve" smooth="yes"/>
      <point x="155" y="402" type="line"/>
      <point x="155" y="339" type="line"/>
      <point x="311" y="339" type="line" smooth="yes"/>
      <point x="407" y="339"/>
      <point x="438" y="394"/>
      <point x="438" y="467" type="curve" smooth="yes"/>
      <point x="438" y="530" type="line" smooth="yes"/>
      <point x="438" y="639"/>
      <point x="377" y="687"/>
      <point x="270" y="687" type="curve" smooth="yes"/>
    </contour>
  </outline>
</glyph>
<glyph name="C" format="1">
  <advance width="407"/>
  <unicode hex="0043"/>
  <outline>
    <contour>
      <point x="42" y="531" type="curve" smooth="yes"/>
      <point x="42" y="155" type="line" smooth="yes"/>
      <point x="42" y="56"/>
      <point x="106" y="-5"/>
      <point x="251" y="-5" type="curve" smooth="yes"/>
      <point x="300" y="-5"/>
      <point x="349" y="2"/>
      <point x="378" y="10" type="curve"/>
      <point x="378" y="125" type="line"/>
      <point x="346" y="115"/>
      <point x="299" y="110"/>
      <point x="254" y="110" type="curve" smooth="yes"/>
      <point x="190" y="110"/>
      <point x="170" y="132"/>
      <point x="170" y="167" type="curve" smooth="yes"/>
      <point x="170" y="519" type="line" smooth="yes"/>
      <point x="170" y="555"/>
      <point x="189" y="577"/>
      <point x="254" y="577" type="curve" smooth="yes"/>
      <point x="298" y="577"/>
      <point x="343" y="570"/>
      <point x="375" y="560" type="curve"/>
      <point x="375" y="677" type="line"/>
      <point x="346" y="685"/>
      <point x="301" y="692"/>
      <point x="252" y="692" type="curve" smooth="yes"/>
      <point x="108" y="692"/>
      <point x="42" y="629"/>
    </contour>
  </outline>
</glyph>
<glyph name="D" format="1">
  <advance width="485"/>
  <unicode hex="0044"/>
  <outline>
    <contour>
      <point x="52" y="687" type="line"/>
      <point x="52" y="0" type="line"/>
      <point x="283" y="0" type="line" smooth="yes"/>
      <point x="396" y="0"/>
      <point x="443" y="62"/>
      <point x="443" y="160" type="curve" smooth="yes"/>
      <point x="443" y="534" type="line" smooth="yes"/>
      <point x="443" y="633"/>
      <point x="383" y="687"/>
      <point x="276" y="687" type="curve" smooth="yes"/>
    </contour>
    <contour>
      <point x="316" y="529" type="curve"/>
      <point x="316" y="169" type="line" smooth="yes"/>
      <point x="316" y="136"/>
      <point x="305" y="110"/>
      <point x="259" y="110" type="curve" smooth="yes"/>
      <point x="179" y="110" type="line"/>
      <point x="179" y="582" type="line"/>
      <point x="259" y="582" type="line" smooth="yes"/>
      <point x="305" y="582"/>
      <point x="316" y="559"/>
    </contour>
  </outline>
</glyph>
<glyph name="E" format="1">
  <advance width="414"/>
  <unicode hex="0045"/>
  <outline>
    <contour>
      <point x="52" y="687" type="line"/>
      <point x="52" y="0" type="line"/>
      <point x="386" y="0" type="line"/>
      <point x="386" y="110" type="line"/>
      <point x="179" y="110" type="line"/>
      <point x="179" y="292" type="line"/>
      <point x="358" y="292" type="line"/>
      <point x="358" y="403" type="line"/>
      <point x="179" y="403" type="line"/>
      <point x="179" y="576" type="line"/>
      <point x="386" y="576" type="line"/>
      <point x="386" y="687" type="line"/>
    </contour>
  </outline>
</glyph>
<glyph name="F" format="1">
  <advance width="394"/>
  <unicode hex="0046"/>
  <outline>
    <contour>
      <point x="52" y="687" type="line"/>
      <point x="52" y="0" type="line"/>
      <point x="180" y="0" type="line"/>
      <point x="180" y="268" type="line"/>
      <point x="364" y="268" type="line"/>
      <point x="364" y="381" type="line"/>
      <point x="180" y="381" type="line"/>
      <point x="180" y="576" type="line"/>
      <point x="377" y="576" type="line"/>
      <point x="377" y="687" type="line"/>
    </contour>
  </outline>
</glyph>
<glyph name="G" format="1">
  <advance width="462"/>
  <unicode hex="0047"/>
  <outline>
    <contour>
      <point x="42" y="527" type="curve" smooth="yes"/>
      <point x="42" y="155" type="line" smooth="yes"/>
      <point x="42" y="52"/>
      <point x="112" y="-5"/>
      <point x="249" y="-5" type="curve" smooth="yes"/>
      <point x="341" y="-5"/>
      <point x="387" y="16"/>
      <point x="423" y="36" type="curve"/>
      <point x="423" y="360" type="line"/>
      <point x="299" y="360" type="line"/>
      <point x="299" y="121" type="line"/>
      <point x="291" y="116"/>
      <point x="270" y="109"/>
      <point x="247" y="109" type="curve" smooth="yes"/>
      <point x="190" y="109"/>
      <point x="170" y="130"/>
      <point x="170" y="168" type="curve" smooth="yes"/>
      <point x="170" y="513" type="line" smooth="yes"/>
      <point x="170" y="550"/>
      <point x="197" y="575"/>
      <point x="263" y="575" type="curve" smooth="yes"/>
      <point x="313" y="575"/>
      <point x="363" y="565"/>
      <point x="397" y="553" type="curve"/>
      <point x="397" y="673" type="line"/>
      <point x="369" y="682"/>
      <point x="317" y="692"/>
      <point x="261" y="692" type="curve" smooth="yes"/>
      <point x="114" y="692"/>
      <point x="42" y="626"/>
    </contour>
  </outline>
</glyph>
<glyph name="H" format="1">
  <advance width="521"/>
  <unicode hex="0048"/>
  <outline>
    <contour>
      <point x="341" y="687" type="line"/>
      <point x="341" y="0" type="line"/>
      <point x="469" y="0" type="line"/>
      <point x="469" y="687" type="line"/>
    </contour>
    <contour>
      <point x="52" y="687" type="line"/>
      <point x="52" y="0" type="line"/>
      <point x="180" y="0" type="line"/>
      <point x="180" y="687" type="line"/>
    </contour>
    <contour>
      <point x="169" y="394" type="line"/>
      <point x="169" y="281" type="line"/>
      <point x="352" y="281" type="line"/>
      <point x="352" y="394" type="line"/>
    </contour>
  </outline>
</glyph>
<glyph name="I" format="1">
  <advance width="232"/>
  <unicode hex="0049"/>
  <outline>
    <contour>
      <point x="52" y="687" type="line"/>
      <point x="52" y="0" type="line"/>
      <point x="180" y="0" type="line"/>
      <point x="180" y="687" type="line"/>
    </contour>
  </outline>
</glyph>
<glyph name="J" format="1">
  <advance width="236"/>
  <unicode hex="004A"/>
  <outline>
    <contour>
      <point x="56" y="687" type="line"/>
      <point x="56" y="204" type="line" smooth="yes"/>
      <point x="56" y="108"/>
      <point x="41" y="45"/>
      <point x="15" y="-45" type="curve" smooth="yes"/>
      <point x="-15" y="-149" type="line"/>
      <point x="119" y="-149" type="line"/>
      <point x="150" y="-46" type="line" smooth="yes"/>
      <point x="176" y="41"/>
      <point x="184" y="95"/>
      <point x="184" y="205" type="curve" smooth="yes"/>
      <point x="184" y="687" type="line"/>
    </contour>
  </outline>
</glyph>
<glyph name="K" format="1">
  <advance width="471"/>
  <unicode hex="004B"/>
  <outline>
    <contour>
      <point x="315" y="687" type="line"/>
      <point x="187" y="350" type="line"/>
      <point x="321" y="0" type="line"/>
      <point x="462" y="0" type="line"/>
      <point x="320" y="352" type="line"/>
      <point x="451" y="687" type="line"/>
    </contour>
    <contour>
      <point x="52" y="687" type="line"/>
      <point x="52" y="0" type="line"/>
      <point x="179" y="0" type="line"/>
      <point x="179" y="687" type="line"/>
    </contour>
  </outline>
</glyph>
<glyph name="L" format="1">
  <advance width="376"/>
  <unicode hex="004C"/>
  <outline>
    <contour>
      <point x="52" y="687" type="line"/>
      <point x="52" y="0" type="line"/>
      <point x="371" y="0" type="line"/>
      <point x="371" y="107" type="line"/>
      <point x="180" y="107" type="line"/>
      <point x="180" y="687" type="line"/>
    </contour>
  </outline>
</glyph>
<glyph name="M" format="1">
  <advance width="638"/>
  <unicode hex="004D"/>
  <outline>
    <contour>
      <point x="451" y="687" type="line"/>
      <point x="318" y="313" type="line"/>
      <point x="186" y="687" type="line"/>
      <point x="52" y="687" type="line"/>
      <point x="52" y="0" type="line"/>
      <point x="174" y="0" type="line"/>
      <point x="174" y="274" type="line"/>
      <point x="174" y="384"/>
      <point x="158" y="477"/>
      <point x="158" y="477" type="curve"/>
      <point x="266" y="177" type="line"/>
      <point x="371" y="177" type="line"/>
      <point x="479" y="477" type="line"/>
      <point x="479" y="477"/>
      <point x="463" y="387"/>
      <point x="463" y="274" type="curve"/>
      <point x="463" y="0" type="line"/>
      <point x="586" y="0" type="line"/>
      <point x="586" y="687" type="line"/>
    </contour>
  </outline>
</glyph>
<glyph name="N" format="1">
  <advance width="523"/>
  <unicode hex="004E"/>
  <outline>
    <contour>
      <point x="345" y="687" type="line"/>
      <point x="345" y="465" type="line"/>
      <point x="345" y="294"/>
      <point x="365" y="210"/>
      <point x="365" y="194" type="curve"/>
      <point x="359" y="210"/>
      <point x="338" y="285"/>
      <point x="285" y="421" type="curve"/>
      <point x="181" y="687" type="line"/>
      <point x="52" y="687" type="line"/>
      <point x="52" y="0" type="line"/>
      <point x="177" y="0" type="line"/>
      <point x="177" y="229" type="line"/>
      <point x="177" y="400"/>
      <point x="158" y="481"/>
      <point x="157" y="497" type="curve"/>
      <point x="163" y="481"/>
      <point x="186" y="406"/>
      <point x="239" y="270" type="curve"/>
      <point x="345" y="0" type="line"/>
      <point x="471" y="0" type="line"/>
      <point x="471" y="687" type="line"/>
    </contour>
  </outline>
</glyph>
<glyph name="O" format="1">
  <advance width="480"/>
  <unicode hex="004F"/>
  <outline>
    <contour>
      <point x="42" y="524" type="curve" smooth="yes"/>
      <point x="42" y="163" type="line" smooth="yes"/>
      <point x="42" y="62"/>
      <point x="106" y="-10"/>
      <point x="239" y="-10" type="curve" smooth="yes"/>
      <point x="373" y="-10"/>
      <point x="438" y="62"/>
      <point x="438" y="163" type="curve" smooth="yes"/>
      <point x="438" y="524" type="line" smooth="yes"/>
      <point x="438" y="625"/>
      <point x="373" y="697"/>
      <point x="239" y="697" type="curve" smooth="yes"/>
      <point x="106" y="697"/>
      <point x="42" y="625"/>
    </contour>
    <contour>
      <point x="311" y="518" type="curve" smooth="yes"/>
      <point x="311" y="169" type="line" smooth="yes"/>
      <point x="311" y="131"/>
      <point x="290" y="106"/>
      <point x="239" y="106" type="curve" smooth="yes"/>
      <point x="189" y="106"/>
      <point x="169" y="131"/>
      <point x="169" y="169" type="curve" smooth="yes"/>
      <point x="169" y="518" type="line" smooth="yes"/>
      <point x="169" y="556"/>
      <point x="189" y="581"/>
      <point x="239" y="581" type="curve" smooth="yes"/>
      <point x="290" y="581"/>
      <point x="311" y="555"/>
    </contour>
  </outline>
</glyph>
<glyph name="P" format="1">
  <advance width="461"/>
  <unicode hex="0050"/>
  <outline>
    <contour>
      <point x="52" y="687" type="line"/>
      <point x="52" y="0" type="line"/>
      <point x="180" y="0" type="line"/>
      <point x="180" y="209" type="line"/>
      <point x="260" y="209" type="line" smooth="yes"/>
      <point x="367" y="209"/>
      <point x="430" y="263"/>
      <point x="430" y="362" type="curve" smooth="yes"/>
      <point x="430" y="534" type="line" smooth="yes"/>
      <point x="430" y="633"/>
      <point x="367" y="687"/>
      <point x="260" y="687" type="curve" smooth="yes"/>
    </contour>
    <contour>
      <point x="303" y="520" type="curve" smooth="yes"/>
      <point x="303" y="376" type="line" smooth="yes"/>
      <point x="303" y="338"/>
      <point x="286" y="319"/>
      <point x="245" y="319" type="curve" smooth="yes"/>
      <point x="180" y="319" type="line"/>
      <point x="180" y="576" type="line"/>
      <point x="245" y="576" type="line" smooth="yes"/>
      <point x="286" y="576"/>
      <point x="303" y="558"/>
    </contour>
  </outline>
</glyph>
<glyph name="Q" format="1">
  <advance width="480"/>
  <unicode hex="0051"/>
  <outline>
    <contour>
      <point x="156" y="101" type="line"/>
      <point x="338" y="-91" type="line"/>
      <point x="489" y="-91" type="line"/>
      <point x="305" y="101" type="line"/>
    </contour>
    <component base="O"/>
  </outline>
</glyph>
<glyph name="R" format="1">
  <advance width="475"/>
  <unicode hex="0052"/>
  <outline>
    <contour>
      <point x="52" y="687" type="line"/>
      <point x="52" y="0" type="line"/>
      <point x="179" y="0" type="line"/>
      <point x="179" y="256" type="line"/>
      <point x="271" y="256" type="line" smooth="yes"/>
      <point x="384" y="256"/>
      <point x="430" y="312"/>
      <point x="430" y="415" type="curve" smooth="yes"/>
      <point x="430" y="534" type="line" smooth="yes"/>
      <point x="430" y="634"/>
      <point x="367" y="687"/>
      <point x="260" y="687" type="curve" smooth="yes"/>
    </contour>
    <contour>
      <point x="207" y="294" type="line"/>
      <point x="316" y="0" type="line"/>
      <point x="455" y="0" type="line"/>
      <point x="336" y="294" type="line"/>
    </contour>
    <contour>
      <point x="303" y="524" type="curve" smooth="yes"/>
      <point x="303" y="417" type="line" smooth="yes"/>
      <point x="303" y="376"/>
      <point x="288" y="358"/>
      <point x="247" y="358" type="curve" smooth="yes"/>
      <point x="179" y="358" type="line"/>
      <point x="179" y="578" type="line"/>
      <point x="247" y="578" type="line" smooth="yes"/>
      <point x="285" y="578"/>
      <point x="303" y="563"/>
    </contour>
  </outline>
</glyph>
<glyph name="T" format="1">
  <advance width="394"/>
  <unicode hex="0054"/>
  <outline>
    <contour>
      <point x="133" y="687" type="line"/>
      <point x="133" y="0" type="line"/>
      <point x="261" y="0" type="line"/>
      <point x="261" y="687" type="line"/>
    </contour>
    <contour>
      <point x="6" y="687" type="line"/>
      <point x="6" y="576" type="line"/>
      <point x="388" y="576" type="line"/>
      <point x="388" y="687" type="line"/>
    </contour>
  </outline>
</glyph>
<glyph name="U" format="1">
  <advance width="486"/>
  <unicode hex="0055"/>
  <outline>
    <contour>
      <point x="313" y="687" type="line"/>
      <point x="313" y="169" type="line" smooth="yes"/>
      <point x="313" y="131"/>
      <point x="293" y="106"/>
      <point x="243" y="106" type="curve" smooth="yes"/>
      <point x="192" y="106"/>
      <point x="174" y="131"/>
      <point x="174" y="169" type="curve" smooth="yes"/>
      <point x="174" y="687" type="line"/>
      <point x="47" y="687" type="line"/>
      <point x="47" y="163" type="line" smooth="yes"/>
      <point x="47" y="62"/>
      <point x="109" y="-10"/>
      <point x="243" y="-10" type="curve" smooth="yes"/>
      <point x="377" y="-10"/>
      <point x="440" y="62"/>
      <point x="440" y="163" type="curve" smooth="yes"/>
      <point x="440" y="687" type="line"/>
    </contour>
  </outline>
</glyph>
<glyph name="V" format="1">
  <advance width="466"/>
  <unicode hex="0056"/>
  <outline>
    <contour>
      <point x="327" y="687" type="line"/>
      <point x="274" y="381" type="line"/>
      <point x="258" y="292"/>
      <point x="239" y="133"/>
      <point x="235" y="112" type="curve"/>
      <point x="231" y="133"/>
      <point x="211" y="291"/>
      <point x="194" y="382" type="curve"/>
      <point x="137" y="687" type="line"/>
      <point x="7" y="687" type="line"/>
      <point x="145" y="0" type="line"/>
      <point x="322" y="0" type="line"/>
      <point x="459" y="687" type="line"/>
    </contour>
  </outline>
</glyph>
<glyph name="W" format="1">
  <advance width="598"/>
  <unicode hex="0057"/>
  <outline>
    <contour>
      <point x="477" y="687" type="line"/>
      <point x="434" y="409" type="line" smooth="yes"/>
      <point x="423" y="328"/>
      <point x="415" y="227"/>
      <point x="415" y="227" type="curve"/>
      <point x="415" y="227"/>
      <point x="403" y="328"/>
      <point x="393" y="409" type="curve" smooth="yes"/>
      <point x="356" y="687" type="line"/>
      <point x="245" y="687" type="line"/>
      <point x="206" y="409" type="line" smooth="yes"/>
      <point x="194" y="317"/>
      <point x="183" y="221"/>
      <point x="183" y="221" type="curve"/>
      <point x="183" y="221"/>
      <point x="177" y="317"/>
      <point x="164" y="409" type="curve" smooth="yes"/>
      <point x="122" y="687" type="line"/>
      <point x="10" y="687" type="line"/>
      <point x="105" y="0" type="line"/>
      <point x="231" y="0" type="line"/>
      <point x="278" y="292" type="line" smooth="yes"/>
      <point x="292" y="383"/>
      <point x="301" y="493"/>
      <point x="301" y="493" type="curve"/>
      <point x="301" y="493"/>
      <point x="311" y="383"/>
      <point x="325" y="292" type="curve" smooth="yes"/>
      <point x="371" y="0" type="line"/>
      <point x="490" y="0" type="line"/>
      <point x="588" y="687" type="line"/>
    </contour>
  </outline>
</glyph>
<glyph name="X" format="1">
  <advance width="446"/>
  <unicode hex="0058"/>
  <outline>
    <contour>
      <point x="301" y="687" type="line"/>
      <point x="225" y="477" type="line"/>
      <point x="145" y="687" type="line"/>
      <point x="7" y="687" type="line"/>
      <point x="155" y="342" type="line"/>
      <point x="7" y="0" type="line"/>
      <point x="145" y="0" type="line"/>
      <point x="225" y="208" type="line"/>
      <point x="300" y="0" type="line"/>
      <point x="439" y="0" type="line"/>
      <point x="290" y="342" type="line"/>
      <point x="439" y="687" type="line"/>
    </contour>
  </outline>
</glyph>
<glyph name="Y" format="1">
  <advance width="461"/>
  <unicode hex="0059"/>
  <outline>
    <contour>
      <point x="332" y="687" type="line"/>
      <point x="290" y="561" type="line"/>
      <point x="260" y="465"/>
      <point x="245" y="409"/>
      <point x="232" y="353" type="curve"/>
      <point x="220" y="409"/>
      <point x="206" y="464"/>
      <point x="175" y="559" type="curve"/>
      <point x="132" y="687" type="line"/>
      <point x="1" y="687" type="line"/>
      <point x="166" y="218" type="line"/>
      <point x="166" y="0" type="line"/>
      <point x="295" y="0" type="line"/>
      <point x="295" y="218" type="line"/>
      <point x="460" y="687" type="line"/>
    </contour>
  </outline>
</glyph>
<glyph name="Z" format="1">
  <advance width="413"/>
  <unicode hex="005A"/>
  <outline>
    <contour>
      <point x="27" y="687" type="line"/>
      <point x="27" y="579" type="line"/>
      <point x="250" y="579" type="line"/>
      <point x="22" y="108" type="line"/>
      <point x="22" y="0" type="line"/>
      <point x="389" y="0" type="line"/>
      <point x="389" y="108" type="line"/>
      <point x="155" y="108" type="line"/>
      <point x="387" y="583" type="line"/>
      <point x="387" y="687" type="line"/>
    </contour>
  </outline>
</glyph>
<glyph name="bracketleft" format="1">
  <advance width="351"/>
  <unicode hex="005B"/>
  <outline>
    <contour>
      <point x="86" y="431" type="line"/>
      <point x="86" y="-169" type="line"/>
      <point x="311" y="-169" type="line"/>
      <point x="311" y="-68" type="line"/>
      <point x="190" y="-68" type="line"/>
      <point x="190" y="431" type="line"/>
    </contour>
    <contour>
      <point x="86" y="845" type="line"/>
      <point x="86" y="425" type="line"/>
      <point x="190" y="425" type="line"/>
      <point x="190" y="746" type="line"/>
      <point x="311" y="746" type="line"/>
      <point x="311" y="845" type="line"/>
    </contour>
  </outline>
</glyph>
<glyph name="backslash" format="1">
  <advance width="459"/>
  <unicode hex="005C"/>
  <outline>
    <contour>
      <point x="37" y="845" type="line"/>
      <point x="307" y="-169" type="line"/>
      <point x="425" y="-169" type="line"/>
      <point x="154" y="845" type="line"/>
    </contour>
  </outline>
</glyph>
<glyph name="bracketright" format="1">
  <advance width="351"/>
  <unicode hex="005D"/>
  <outline>
    <contour>
      <point x="161" y="431" type="line"/>
      <point x="161" y="-68" type="line"/>
      <point x="40" y="-68" type="line"/>
      <point x="40" y="-169" type="line"/>
      <point x="264" y="-169" type="line"/>
      <point x="264" y="431" type="line"/>
    </contour>
    <contour>
      <point x="40" y="845" type="line"/>
      <point x="40" y="746" type="line"/>
      <point x="161" y="746" type="line"/>
      <point x="161" y="425" type="line"/>
      <point x="264" y="425" type="line"/>
      <point x="264" y="845" type="line"/>
    </contour>
  </outline>
</glyph>
<glyph name="asciicircum" format="1">
  <advance width="405"/>
  <unicode hex="005E"/>
  <outline>
    <contour>
      <point x="175" y="716" type="line"/>
      <point x="276" y="394" type="line"/>
      <point x="402" y="394" type="line"/>
      <point x="275" y="716" type="line"/>
    </contour>
    <contour>
      <point x="129" y="716" type="line"/>
      <point x="1" y="394" type="line"/>
      <point x="126" y="394" type="line"/>
      <point x="227" y="716" type="line"/>
    </contour>
  </outline>
</glyph>
<glyph name="underscore" format="1">
  <advance width="539"/>
  <unicode hex="005F"/>
  <outline>
    <contour>
      <point x="8" y="-3" type="line"/>
      <point x="8" y="-105" type="line"/>
      <point x="531" y="-105" type="line"/>
      <point x="532" y="-3" type="line"/>
    </contour>
  </outline>
</glyph>
<glyph name="grave" format="1">
  <advance width="350"/>
  <unicode hex="0060"/>
  <outline>
    <contour>
      <point x="105" y="739" type="line"/>
      <point x="176" y="626" type="line"/>
      <point x="245" y="626" type="line"/>
      <point x="202" y="739" type="line"/>
    </contour>
  </outline>
</glyph>
<glyph name="a" format="1">
  <advance width="434"/>
  <unicode hex="0061"/>
  <outline>
    <contour>
      <point x="53" y="570" type="curve"/>
      <point x="53" y="456" type="line"/>
      <point x="74" y="464"/>
      <point x="130" y="477"/>
      <point x="187" y="477" type="curve" smooth="yes"/>
      <point x="248" y="477"/>
      <point x="264" y="459"/>
      <point x="265" y="420" type="curve" smooth="yes"/>
      <point x="265" y="356" type="line"/>
      <point x="147" y="325" type="line" smooth="yes"/>
      <point x="60" y="301"/>
      <point x="23" y="258"/>
      <point x="23" y="174" type="curve" smooth="yes"/>
      <point x="23" y="140" type="line" smooth="yes"/>
      <point x="23" y="43"/>
      <point x="64" y="-2"/>
      <point x="159" y="-2" type="curve" smooth="yes"/>
      <point x="218" y="-2"/>
      <point x="249" y="20"/>
      <point x="267" y="42" type="curve"/>
      <point x="267" y="0" type="line"/>
      <point x="387" y="0" type="line"/>
      <point x="387" y="420" type="line" smooth="yes"/>
      <point x="387" y="528"/>
      <point x="339" y="589"/>
      <point x="200" y="589" type="curve" smooth="yes"/>
      <point x="134" y="589"/>
      <point x="79" y="579"/>
    </contour>
    <contour>
      <point x="264" y="112" type="line"/>
      <point x="248" y="101"/>
      <point x="222" y="93"/>
      <point x="196" y="93" type="curve" smooth="yes"/>
      <point x="160" y="93"/>
      <point x="148" y="110"/>
      <point x="148" y="140" type="curve" smooth="yes"/>
      <point x="148" y="168" type="line" smooth="yes"/>
      <point x="148" y="208"/>
      <point x="156" y="223"/>
      <point x="198" y="235" type="curve" smooth="yes"/>
      <point x="264" y="252" type="line"/>
    </contour>
  </outline>
</glyph>
<glyph name="b" format="1">
  <advance width="458"/>
  <unicode hex="0062"/>
  <outline>
    <contour>
      <point x="52" y="739" type="line"/>
      <point x="52" y="0" type="line"/>
      <point x="265" y="0" type="line"/>
      <point x="353" y="0"/>
      <point x="417" y="45"/>
      <point x="417" y="147" type="curve" smooth="yes"/>
      <point x="417" y="459" type="line" smooth="yes"/>
      <point x="417" y="546"/>
      <point x="362" y="587"/>
      <point x="288" y="587" type="curve" smooth="yes"/>
      <point x="240" y="587"/>
      <point x="201" y="577"/>
      <point x="179" y="569" type="curve"/>
      <point x="179" y="739" type="line"/>
    </contour>
    <contour>
      <point x="287" y="430" type="curve" smooth="yes"/>
      <point x="287" y="166" type="line" smooth="yes"/>
      <point x="287" y="132"/>
      <point x="267" y="117"/>
      <point x="232" y="117" type="curve" smooth="yes"/>
      <point x="180" y="117" type="line"/>
      <point x="180" y="454" type="line"/>
      <point x="196" y="462"/>
      <point x="220" y="469"/>
      <point x="245" y="469" type="curve" smooth="yes"/>
      <point x="272" y="469"/>
      <point x="287" y="457"/>
    </contour>
  </outline>
</glyph>
<glyph name="c" format="1">
  <advance width="374"/>
  <unicode hex="0063"/>
  <outline>
    <contour>
      <point x="42" y="424" type="curve" smooth="yes"/>
      <point x="42" y="160" type="line" smooth="yes"/>
      <point x="42" y="51"/>
      <point x="104" y="-5"/>
      <point x="230" y="-5" type="curve" smooth="yes"/>
      <point x="288" y="-5"/>
      <point x="319" y="1"/>
      <point x="350" y="10" type="curve"/>
      <point x="350" y="128" type="line"/>
      <point x="328" y="121"/>
      <point x="292" y="112"/>
      <point x="250" y="112" type="curve" smooth="yes"/>
      <point x="192" y="112"/>
      <point x="170" y="127"/>
      <point x="170" y="170" type="curve" smooth="yes"/>
      <point x="170" y="414" type="line" smooth="yes"/>
      <point x="170" y="456"/>
      <point x="192" y="472"/>
      <point x="250" y="472" type="curve" smooth="yes"/>
      <point x="291" y="472"/>
      <point x="327" y="463"/>
      <point x="349" y="457" type="curve"/>
      <point x="349" y="574" type="line"/>
      <point x="319" y="583"/>
      <point x="288" y="589"/>
      <point x="230" y="589" type="curve" smooth="yes"/>
      <point x="104" y="589"/>
      <point x="42" y="532"/>
    </contour>
  </outline>
</glyph>
<glyph name="e" format="1">
  <advance width="433"/>
  <unicode hex="0065"/>
  <outline>
    <contour>
      <point x="42" y="434" type="curve" smooth="yes"/>
      <point x="42" y="187" type="line"/>
      <point x="165" y="185" type="line"/>
      <point x="165" y="433" type="line" smooth="yes"/>
      <point x="165" y="467"/>
      <point x="184" y="487"/>
      <point x="223" y="487" type="curve" smooth="yes"/>
      <point x="262" y="487"/>
      <point x="282" y="467"/>
      <point x="282" y="433" type="curve" smooth="yes"/>
      <point x="282" y="303" type="line"/>
      <point x="400" y="303" type="line"/>
      <point x="400" y="434" type="line" smooth="yes"/>
      <point x="400" y="530"/>
      <point x="349" y="594"/>
      <point x="223" y="594" type="curve" smooth="yes"/>
      <point x="97" y="594"/>
      <point x="42" y="530"/>
    </contour>
    <contour>
      <point x="42" y="243" type="line"/>
      <point x="42" y="161" type="line" smooth="yes"/>
      <point x="42" y="53"/>
      <point x="102" y="-6"/>
      <point x="244" y="-6" type="curve" smooth="yes"/>
      <point x="320" y="-6"/>
      <point x="354" y="4"/>
      <point x="385" y="12" type="curve"/>
      <point x="385" y="125" type="line"/>
      <point x="363" y="119"/>
      <point x="314" y="106"/>
      <point x="256" y="106" type="curve" smooth="yes"/>
      <point x="186" y="106"/>
      <point x="165" y="126"/>
      <point x="165" y="171" type="curve" smooth="yes"/>
      <point x="165" y="243" type="line"/>
    </contour>
    <contour>
      <point x="149" y="339" type="line"/>
      <point x="149" y="240" type="line"/>
      <point x="400" y="240" type="line"/>
      <point x="400" y="339" type="line"/>
    </contour>
  </outline>
</glyph>
<glyph name="f" format="1">
  <advance width="289"/>
  <unicode hex="0066"/>
  <outline>
    <contour>
      <point x="70" y="599" type="curve" smooth="yes"/>
      <point x="70" y="584" type="line"/>
      <point x="13" y="584" type="line"/>
      <point x="13" y="483" type="line"/>
      <point x="70" y="483" type="line"/>
      <point x="70" y="0" type="line"/>
      <point x="199" y="0" type="line"/>
      <point x="199" y="483" type="line"/>
      <point x="287" y="483" type="line"/>
      <point x="287" y="584" type="line"/>
      <point x="199" y="584" type="line"/>
      <point x="199" y="600" type="line" smooth="yes"/>
      <point x="199" y="639"/>
      <point x="216" y="656"/>
      <point x="256" y="656" type="curve" smooth="yes"/>
      <point x="267" y="656"/>
      <point x="280" y="655"/>
      <point x="289" y="654" type="curve"/>
      <point x="289" y="754" type="line"/>
      <point x="271" y="756"/>
      <point x="253" y="758"/>
      <point x="237" y="758" type="curve" smooth="yes"/>
      <point x="121" y="758"/>
      <point x="70" y="698"/>
    </contour>
  </outline>
</glyph>
<glyph name="h" format="1">
  <advance width="460"/>
  <unicode hex="0068"/>
  <outline>
    <contour>
      <point x="52" y="739" type="line"/>
      <point x="52" y="0" type="line"/>
      <point x="180" y="0" type="line"/>
      <point x="180" y="454" type="line"/>
      <point x="195" y="462"/>
      <point x="218" y="469"/>
      <point x="243" y="469" type="curve" smooth="yes"/>
      <point x="270" y="469"/>
      <point x="283" y="457"/>
      <point x="283" y="430" type="curve" smooth="yes"/>
      <point x="283" y="0" type="line"/>
      <point x="413" y="0" type="line"/>
      <point x="413" y="459" type="line" smooth="yes"/>
      <point x="413" y="551"/>
      <point x="354" y="587"/>
      <point x="272" y="587" type="curve" smooth="yes"/>
      <point x="239" y="587"/>
      <point x="207" y="580"/>
      <point x="179" y="570" type="curve"/>
      <point x="179" y="739" type="line"/>
    </contour>
  </outline>
</glyph>
<glyph name="i" format="1">
  <advance width="232"/>
  <unicode hex="0069"/>
  <outline>
    <contour>
      <point x="52" y="571" type="line"/>
      <point x="52" y="0" type="line"/>
      <point x="180" y="0" type="line"/>
      <point x="180" y="571" type="line"/>
    </contour>
    <contour>
      <point x="44" y="683" type="curve" smooth="yes"/>
      <point x="44" y="643"/>
      <point x="61" y="615"/>
      <point x="116" y="615" type="curve" smooth="yes"/>
      <point x="169" y="615"/>
      <point x="188" y="643"/>
      <point x="188" y="683" type="curve" smooth="yes"/>
      <point x="188" y="724"/>
      <point x="169" y="753"/>
      <point x="116" y="753" type="curve" smooth="yes"/>
      <point x="61" y="753"/>
      <point x="44" y="724"/>
    </contour>
  </outline>
</glyph>
<glyph name="j" format="1">
  <advance width="232"/>
  <unicode hex="006A"/>
  <outline>
    <contour>
      <point x="52" y="571" type="line"/>
      <point x="52" y="20" type="line" smooth="yes"/>
      <point x="52" y="-16"/>
      <point x="37" y="-34"/>
      <point x="3" y="-34" type="curve" smooth="yes"/>
      <point x="-5" y="-34"/>
      <point x="-13" y="-33"/>
      <point x="-21" y="-32" type="curve"/>
      <point x="-21" y="-149" type="line"/>
      <point x="-9" y="-152"/>
      <point x="4" y="-152"/>
      <point x="13" y="-152" type="curve" smooth="yes"/>
      <point x="127" y="-152"/>
      <point x="180" y="-79"/>
      <point x="180" y="20" type="curve" smooth="yes"/>
      <point x="180" y="571" type="line"/>
    </contour>
    <contour>
      <point x="44" y="683" type="curve" smooth="yes"/>
      <point x="44" y="643"/>
      <point x="61" y="615"/>
      <point x="116" y="615" type="curve" smooth="yes"/>
      <point x="169" y="615"/>
      <point x="188" y="643"/>
      <point x="188" y="683" type="curve" smooth="yes"/>
      <point x="188" y="724"/>
      <point x="169" y="753"/>
      <point x="116" y="753" type="curve" smooth="yes"/>
      <point x="61" y="753"/>
      <point x="44" y="724"/>
    </contour>
  </outline>
</glyph>
<glyph name="k" format="1">
  <advance width="425"/>
  <unicode hex="006B"/>
  <outline>
    <contour>
      <point x="275" y="584" type="line"/>
      <point x="181" y="312" type="line"/>
      <point x="282" y="0" type="line"/>
      <point x="416" y="0" type="line"/>
      <point x="306" y="306" type="line"/>
      <point x="403" y="584" type="line"/>
    </contour>
    <contour>
      <point x="52" y="739" type="line"/>
      <point x="52" y="0" type="line"/>
      <point x="176" y="0" type="line"/>
      <point x="176" y="739" type="line"/>
    </contour>
  </outline>
</glyph>
<glyph name="l" format="1">
  <advance width="232"/>
  <unicode hex="006C"/>
  <outline>
    <contour>
      <point x="52" y="739" type="line"/>
      <point x="52" y="0" type="line"/>
      <point x="180" y="0" type="line"/>
      <point x="180" y="739" type="line"/>
    </contour>
  </outline>
</glyph>
<glyph name="m" format="1">
  <advance width="693"/>
  <unicode hex="006D"/>
  <outline>
    <contour>
      <point x="381" y="550" type="curve"/>
      <point x="358" y="575"/>
      <point x="324" y="587"/>
      <point x="285" y="587" type="curve" smooth="yes"/>
      <point x="237" y="587"/>
      <point x="194" y="569"/>
      <point x="173" y="558" type="curve"/>
      <point x="173" y="584" type="line"/>
      <point x="52" y="584" type="line"/>
      <point x="52" y="0" type="line"/>
      <point x="180" y="0" type="line"/>
      <point x="180" y="452" type="line"/>
      <point x="196" y="461"/>
      <point x="218" y="469"/>
      <point x="244" y="469" type="curve" smooth="yes"/>
      <point x="270" y="469"/>
      <point x="283" y="457"/>
      <point x="283" y="430" type="curve" smooth="yes"/>
      <point x="283" y="0" type="line"/>
      <point x="413" y="0" type="line"/>
      <point x="413" y="431" type="line" smooth="yes"/>
      <point x="413" y="438"/>
      <point x="412" y="445"/>
      <point x="410" y="450" type="curve"/>
      <point x="428" y="461"/>
      <point x="452" y="469"/>
      <point x="477" y="469" type="curve" smooth="yes"/>
      <point x="503" y="469"/>
      <point x="516" y="457"/>
      <point x="516" y="430" type="curve" smooth="yes"/>
      <point x="516" y="0" type="line"/>
      <point x="646" y="0" type="line"/>
      <point x="646" y="459" type="line" smooth="yes"/>
      <point x="646" y="546"/>
      <point x="592" y="587"/>
      <point x="518" y="587" type="curve" smooth="yes"/>
      <point x="473" y="587"/>
      <point x="424" y="574"/>
    </contour>
  </outline>
</glyph>
<glyph name="n" format="1">
  <advance width="460"/>
  <unicode hex="006E"/>
  <outline>
    <contour>
      <point x="173" y="558" type="curve"/>
      <point x="173" y="584" type="line"/>
      <point x="52" y="584" type="line"/>
      <point x="52" y="0" type="line"/>
      <point x="180" y="0" type="line"/>
      <point x="180" y="452" type="line"/>
      <point x="196" y="461"/>
      <point x="218" y="469"/>
      <point x="244" y="469" type="curve"/>
      <point x="270" y="469"/>
      <point x="283" y="457"/>
      <point x="283" y="430" type="curve" smooth="yes"/>
      <point x="283" y="0" type="line"/>
      <point x="413" y="0" type="line"/>
      <point x="413" y="459" type="line" smooth="yes"/>
      <point x="413" y="546"/>
      <point x="359" y="587"/>
      <point x="285" y="587" type="curve"/>
      <point x="237" y="587"/>
      <point x="194" y="569"/>
    </contour>
  </outline>
</glyph>
<glyph name="o" format="1">
  <advance width="448"/>
  <unicode hex="006F"/>
  <outline>
    <contour>
      <point x="42" y="435" type="curve" smooth="yes"/>
      <point x="42" y="149" type="line" smooth="yes"/>
      <point x="42" y="54"/>
      <point x="98" y="-10"/>
      <point x="224" y="-10" type="curve" smooth="yes"/>
      <point x="350" y="-10"/>
      <point x="406" y="54"/>
      <point x="406" y="149" type="curve" smooth="yes"/>
      <point x="406" y="435" type="line" smooth="yes"/>
      <point x="406" y="530"/>
      <point x="350" y="594"/>
      <point x="224" y="594" type="curve" smooth="yes"/>
      <point x="98" y="594"/>
      <point x="42" y="530"/>
    </contour>
    <contour>
      <point x="280" y="431" type="curve" smooth="yes"/>
      <point x="280" y="153" type="line" smooth="yes"/>
      <point x="280" y="121"/>
      <point x="263" y="99"/>
      <point x="224" y="99" type="curve" smooth="yes"/>
      <point x="185" y="99"/>
      <point x="167" y="121"/>
      <point x="167" y="153" type="curve" smooth="yes"/>
      <point x="167" y="431" type="line" smooth="yes"/>
      <point x="167" y="463"/>
      <point x="185" y="485"/>
      <point x="224" y="485" type="curve" smooth="yes"/>
      <point x="263" y="485"/>
      <point x="280" y="463"/>
    </contour>
  </outline>
</glyph>
<glyph name="p" format="1">
  <advance width="458"/>
  <unicode hex="0070"/>
  <outline>
    <contour>
      <point x="173" y="558" type="curve"/>
      <point x="173" y="584" type="line"/>
      <point x="52" y="584" type="line"/>
      <point x="52" y="-149" type="line"/>
      <point x="180" y="-149" type="line"/>
      <point x="180" y="0" type="line"/>
      <point x="265" y="0" type="line" smooth="yes"/>
      <point x="353" y="0"/>
      <point x="417" y="46"/>
      <point x="417" y="148" type="curve" smooth="yes"/>
      <point x="417" y="459" type="line" smooth="yes"/>
      <point x="417" y="546"/>
      <point x="363" y="587"/>
      <point x="289" y="587" type="curve" smooth="yes"/>
      <point x="241" y="587"/>
      <point x="193" y="568"/>
    </contour>
    <contour>
      <point x="287" y="430" type="curve" smooth="yes"/>
      <point x="287" y="166" type="line" smooth="yes"/>
      <point x="287" y="133"/>
      <point x="268" y="117"/>
      <point x="233" y="117" type="curve" smooth="yes"/>
      <point x="180" y="117" type="line"/>
      <point x="180" y="452" type="line"/>
      <point x="196" y="461"/>
      <point x="220" y="469"/>
      <point x="245" y="469" type="curve" smooth="yes"/>
      <point x="272" y="469"/>
      <point x="287" y="457"/>
    </contour>
  </outline>
</glyph>
<glyph name="q" format="1">
  <advance width="458"/>
  <unicode hex="0071"/>
  <outline>
    <contour>
      <point x="220" y="584" type="line"/>
      <point x="99" y="584"/>
      <point x="42" y="516"/>
      <point x="42" y="412" type="curve" smooth="yes"/>
      <point x="42" y="147" type="line" smooth="yes"/>
      <point x="42" y="51"/>
      <point x="88" y="-1"/>
      <point x="183" y="-1" type="curve" smooth="yes"/>
      <point x="230" y="-1"/>
      <point x="265" y="10"/>
      <point x="278" y="17" type="curve"/>
      <point x="278" y="-149" type="line"/>
      <point x="406" y="-149" type="line"/>
      <point x="406" y="584" type="line"/>
    </contour>
    <contour>
      <point x="278" y="131" type="line"/>
      <point x="266" y="123"/>
      <point x="244" y="114"/>
      <point x="217" y="114" type="curve" smooth="yes"/>
      <point x="185" y="114"/>
      <point x="170" y="129"/>
      <point x="170" y="160" type="curve" smooth="yes"/>
      <point x="170" y="407" type="line" smooth="yes"/>
      <point x="170" y="450"/>
      <point x="192" y="470"/>
      <point x="231" y="470" type="curve" smooth="yes"/>
      <point x="278" y="470" type="line"/>
    </contour>
  </outline>
</glyph>
<glyph name="r" format="1">
  <advance width="311"/>
  <unicode hex="0072"/>
  <outline>
    <contour>
      <point x="286" y="587" type="line"/>
      <point x="239" y="587"/>
      <point x="216" y="571"/>
      <point x="173" y="543" type="curve"/>
      <point x="173" y="584" type="line"/>
      <point x="52" y="584" type="line"/>
      <point x="52" y="0" type="line"/>
      <point x="180" y="0" type="line"/>
      <point x="180" y="441" type="line"/>
      <point x="207" y="457"/>
      <point x="238" y="468"/>
      <point x="280" y="468" type="curve"/>
      <point x="306" y="468" type="line"/>
      <point x="306" y="587" type="line"/>
    </contour>
  </outline>
</glyph>
<glyph name="t" format="1">
  <advance width="311"/>
  <unicode hex="0074"/>
  <outline>
    <contour>
      <point x="105" y="686" type="line"/>
      <point x="66" y="584" type="line"/>
      <point x="5" y="584" type="line"/>
      <point x="5" y="476" type="line"/>
      <point x="61" y="476" type="line"/>
      <point x="61" y="140" type="line" smooth="yes"/>
      <point x="61" y="49"/>
      <point x="100" y="-8"/>
      <point x="211" y="-8" type="curve" smooth="yes"/>
      <point x="259" y="-8"/>
      <point x="293" y="6"/>
      <point x="296" y="7" type="curve"/>
      <point x="296" y="121" type="line"/>
      <point x="293" y="120"/>
      <point x="269" y="107"/>
      <point x="236" y="107" type="curve" smooth="yes"/>
      <point x="203" y="107"/>
      <point x="189" y="123"/>
      <point x="189" y="152" type="curve" smooth="yes"/>
      <point x="189" y="476" type="line"/>
      <point x="289" y="476" type="line"/>
      <point x="289" y="584" type="line"/>
      <point x="189" y="584" type="line"/>
      <point x="189" y="686" type="line"/>
    </contour>
  </outline>
</glyph>
<glyph name="u" format="1">
  <advance width="463"/>
  <unicode hex="0075"/>
  <outline>
    <contour>
      <point x="283" y="584" type="line"/>
      <point x="283" y="132" type="line"/>
      <point x="275" y="127"/>
      <point x="250" y="114"/>
      <point x="220" y="114" type="curve" smooth="yes"/>
      <point x="190" y="114"/>
      <point x="176" y="130"/>
      <point x="176" y="157" type="curve" smooth="yes"/>
      <point x="176" y="584" type="line"/>
      <point x="47" y="584" type="line"/>
      <point x="47" y="134" type="line" smooth="yes"/>
      <point x="47" y="47"/>
      <point x="93" y="-1"/>
      <point x="179" y="-1" type="curve" smooth="yes"/>
      <point x="236" y="-1"/>
      <point x="275" y="19"/>
      <point x="290" y="27" type="curve"/>
      <point x="290" y="0" type="line"/>
      <point x="411" y="0" type="line"/>
      <point x="411" y="584" type="line"/>
    </contour>
  </outline>
</glyph>
<glyph name="v" format="1">
  <advance width="423"/>
  <unicode hex="0076"/>
  <outline>
    <contour>
      <point x="288" y="584" type="line"/>
      <point x="250" y="377" type="line" smooth="yes"/>
      <point x="222" y="223"/>
      <point x="214" y="99"/>
      <point x="214" y="99" type="curve"/>
      <point x="214" y="99"/>
      <point x="207" y="222"/>
      <point x="177" y="379" type="curve" smooth="yes"/>
      <point x="137" y="584" type="line"/>
      <point x="8" y="584" type="line"/>
      <point x="136" y="0" type="line"/>
      <point x="290" y="0" type="line"/>
      <point x="414" y="584" type="line"/>
    </contour>
  </outline>
</glyph>
<glyph name="w" format="1">
  <advance width="616"/>
  <unicode hex="0077"/>
  <outline>
    <contour>
      <point x="478" y="584" type="line"/>
      <point x="434" y="158" type="line"/>
      <point x="369" y="584" type="line"/>
      <point x="249" y="584" type="line"/>
      <point x="187" y="159" type="line"/>
      <point x="141" y="584" type="line"/>
      <point x="8" y="584" type="line"/>
      <point x="107" y="0" type="line"/>
      <point x="254" y="0" type="line"/>
      <point x="287" y="233" type="line"/>
      <point x="296" y="298"/>
      <point x="305" y="367"/>
      <point x="310" y="412" type="curve"/>
      <point x="316" y="367"/>
      <point x="325" y="294"/>
      <point x="334" y="232" type="curve" smooth="yes"/>
      <point x="365" y="0" type="line"/>
      <point x="514" y="0" type="line"/>
      <point x="608" y="584" type="line"/>
    </contour>
  </outline>
</glyph>
<glyph name="x" format="1">
  <advance width="395"/>
  <unicode hex="0078"/>
  <outline>
    <contour>
      <point x="251" y="584" type="line"/>
      <point x="198" y="417" type="line"/>
      <point x="144" y="584" type="line"/>
      <point x="7" y="584" type="line"/>
      <point x="130" y="294" type="line"/>
      <point x="6" y="0" type="line"/>
      <point x="144" y="0" type="line"/>
      <point x="198" y="174" type="line"/>
      <point x="251" y="0" type="line"/>
      <point x="389" y="0" type="line"/>
      <point x="262" y="294" type="line"/>
      <point x="389" y="584" type="line"/>
    </contour>
  </outline>
</glyph>
<glyph name="y" format="1">
  <advance width="431"/>
  <unicode hex="0079"/>
  <outline>
    <contour>
      <point x="295" y="584" type="line"/>
      <point x="254" y="370" type="line"/>
      <point x="227" y="219"/>
      <point x="217" y="99"/>
      <point x="217" y="99" type="curve"/>
      <point x="217" y="99"/>
      <point x="210" y="218"/>
      <point x="180" y="373" type="curve" smooth="yes"/>
      <point x="138" y="584" type="line"/>
      <point x="12" y="584" type="line"/>
      <point x="132" y="0" type="line"/>
      <point x="179" y="0" type="line"/>
      <point x="150" y="-149" type="line"/>
      <point x="274" y="-149" type="line"/>
      <point x="418" y="584" type="line"/>
    </contour>
  </outline>
</glyph>
<glyph name="z" format="1">
  <advance width="351"/>
  <unicode hex="007A"/>
  <outline>
    <contour>
      <point x="24" y="584" type="line"/>
      <point x="24" y="476" type="line"/>
      <point x="192" y="476" type="line"/>
      <point x="20" y="81" type="line"/>
      <point x="20" y="0" type="line"/>
      <point x="331" y="0" type="line"/>
      <point x="331" y="107" type="line"/>
      <point x="159" y="107" type="line"/>
      <point x="329" y="504" type="line"/>
      <point x="329" y="584" type="line"/>
    </contour>
  </outline>
</glyph>
<glyph name="braceleft" format="1">
  <advance width="394"/>
  <unicode hex="007B"/>
  <outline>
    <contour>
      <point x="241" y="676" type="line"/>
      <point x="241" y="704"/>
      <point x="256" y="723"/>
      <point x="293" y="723" type="curve" smooth="yes"/>
      <point x="329" y="723" type="line"/>
      <point x="329" y="832" type="line"/>
      <point x="284" y="832" type="line" smooth="yes"/>
      <point x="185" y="832"/>
      <point x="131" y="766"/>
      <point x="131" y="670" type="curve" smooth="yes"/>
      <point x="131" y="450" type="line" smooth="yes"/>
      <point x="131" y="409"/>
      <point x="105" y="388"/>
      <point x="60" y="388" type="curve" smooth="yes"/>
      <point x="55" y="388" type="line"/>
      <point x="55" y="279" type="line"/>
      <point x="60" y="279" type="line" smooth="yes"/>
      <point x="105" y="279"/>
      <point x="131" y="257"/>
      <point x="131" y="216" type="curve" smooth="yes"/>
      <point x="131" y="-5" type="line" smooth="yes"/>
      <point x="131" y="-101"/>
      <point x="185" y="-166"/>
      <point x="284" y="-166" type="curve" smooth="yes"/>
      <point x="329" y="-166" type="line"/>
      <point x="329" y="-57" type="line"/>
      <point x="293" y="-57" type="line" smooth="yes"/>
      <point x="256" y="-57"/>
      <point x="241" y="-39"/>
      <point x="241" y="-10" type="curve" smooth="yes"/>
      <point x="241" y="191" type="line" smooth="yes"/>
      <point x="241" y="273"/>
      <point x="223" y="321"/>
      <point x="150" y="334" type="curve"/>
      <point x="223" y="347"/>
      <point x="241" y="401"/>
      <point x="241" y="483" type="curve" smooth="yes"/>
    </contour>
  </outline>
</glyph>
<glyph name="bar" format="1">
  <advance width="219"/>
  <unicode hex="007C"/>
  <outline>
    <contour>
      <point x="65" y="858" type="line"/>
      <point x="65" y="-179" type="line"/>
      <point x="152" y="-179" type="line"/>
      <point x="152" y="858" type="line"/>
    </contour>
  </outline>
</glyph>
<glyph name="braceright" format="1">
  <advance width="392"/>
  <unicode hex="007D"/>
  <outline>
    <contour>
      <point x="330" y="388" type="line"/>
      <point x="285" y="388"/>
      <point x="259" y="409"/>
      <point x="259" y="450" type="curve" smooth="yes"/>
      <point x="259" y="670" type="line" smooth="yes"/>
      <point x="259" y="766"/>
      <point x="205" y="832"/>
      <point x="106" y="832" type="curve" smooth="yes"/>
      <point x="61" y="832" type="line"/>
      <point x="61" y="723" type="line"/>
      <point x="97" y="723" type="line" smooth="yes"/>
      <point x="134" y="723"/>
      <point x="148" y="704"/>
      <point x="148" y="676" type="curve" smooth="yes"/>
      <point x="148" y="483" type="line" smooth="yes"/>
      <point x="148" y="401"/>
      <point x="166" y="347"/>
      <point x="239" y="334" type="curve"/>
      <point x="166" y="321"/>
      <point x="148" y="273"/>
      <point x="148" y="191" type="curve" smooth="yes"/>
      <point x="148" y="-10" type="line" smooth="yes"/>
      <point x="148" y="-39"/>
      <point x="134" y="-57"/>
      <point x="97" y="-57" type="curve" smooth="yes"/>
      <point x="61" y="-57" type="line"/>
      <point x="61" y="-166" type="line"/>
      <point x="106" y="-166" type="line" smooth="yes"/>
      <point x="205" y="-166"/>
      <point x="259" y="-101"/>
      <point x="259" y="-5" type="curve" smooth="yes"/>
      <point x="259" y="216" type="line" smooth="yes"/>
      <point x="259" y="257"/>
      <point x="285" y="279"/>
      <point x="330" y="279" type="curve" smooth="yes"/>
      <point x="334" y="279" type="line"/>
      <point x="334" y="388" type="line"/>
    </contour>
  </outline>
</glyph>
<glyph name="asciitilde" format="1">
  <advance width="568"/>
  <unicode hex="007E"/>
  <outline>
    <contour>
      <point x="424" y="428" type="line"/>
      <point x="434" y="371"/>
      <point x="395" y="363"/>
      <point x="347" y="381" type="curve" smooth="yes"/>
      <point x="220" y="427" type="line" smooth="yes"/>
      <point x="122" y="462"/>
      <point x="25" y="436"/>
      <point x="25" y="318" type="curve"/>
      <point x="25" y="291"/>
      <point x="29" y="267"/>
      <point x="29" y="267" type="curve"/>
      <point x="141" y="267" type="line"/>
      <point x="131" y="324"/>
      <point x="171" y="332"/>
      <point x="219" y="314" type="curve"/>
      <point x="345" y="268" type="line"/>
      <point x="443" y="233"/>
      <point x="541" y="259"/>
      <point x="541" y="377" type="curve"/>
      <point x="541" y="406"/>
      <point x="536" y="428"/>
      <point x="536" y="428" type="curve"/>
    </contour>
  </outline>
</glyph>
<glyph name="cent" format="1">
  <advance width="385"/>
  <unicode hex="00A2"/>
  <outline>
    <contour>
      <point x="167" y="33" type="line"/>
      <point x="167" y="-70" type="line"/>
      <point x="285" y="-70" type="line"/>
      <point x="285" y="33" type="line"/>
    </contour>
    <contour>
      <point x="171" y="655" type="line"/>
      <point x="171" y="558" type="line"/>
      <point x="289" y="558" type="line"/>
      <point x="289" y="655" type="line"/>
    </contour>
    <component base="c" xOffset="4"/>
  </outline>
</glyph>
<glyph name="sterling" format="1">
  <advance width="502"/>
  <unicode hex="00A3"/>
  <outline>
    <contour>
      <point x="118" y="502" type="curve" smooth="yes"/>
      <point x="118" y="203" type="line" smooth="yes"/>
      <point x="118" y="132"/>
      <point x="81" y="118"/>
      <point x="52" y="109" type="curve"/>
      <point x="52" y="0" type="line"/>
      <point x="450" y="0" type="line"/>
      <point x="450" y="111" type="line"/>
      <point x="199" y="111" type="line"/>
      <point x="224" y="131"/>
      <point x="245" y="153"/>
      <point x="245" y="221" type="curve"/>
      <point x="245" y="493" type="line" smooth="yes"/>
      <point x="245" y="545"/>
      <point x="267" y="574"/>
      <point x="331" y="574" type="curve" smooth="yes"/>
      <point x="378" y="574"/>
      <point x="409" y="568"/>
      <point x="440" y="558" type="curve"/>
      <point x="440" y="676" type="line"/>
      <point x="418" y="683"/>
      <point x="376" y="691"/>
      <point x="324" y="691" type="curve" smooth="yes"/>
      <point x="191" y="691"/>
      <point x="118" y="626"/>
    </contour>
    <contour>
      <point x="56" y="404" type="line"/>
      <point x="56" y="296" type="line"/>
      <point x="392" y="296" type="line"/>
      <point x="392" y="404" type="line"/>
    </contour>
  </outline>
</glyph>
<glyph name="currency" format="1">
  <advance width="460"/>
  <unicode hex="00A4"/>
  <outline>
    <contour>
      <point x="43" y="396" type="curve" smooth="yes"/>
      <point x="43" y="291" type="line" smooth="yes"/>
      <point x="43" y="190"/>
      <point x="98" y="120"/>
      <point x="232" y="120" type="curve" smooth="yes"/>
      <point x="366" y="120"/>
      <point x="421" y="190"/>
      <point x="421" y="291" type="curve" smooth="yes"/>
      <point x="421" y="396" type="line" smooth="yes"/>
      <point x="421" y="497"/>
      <point x="366" y="566"/>
      <point x="232" y="566" type="curve" smooth="yes"/>
      <point x="98" y="566"/>
      <point x="43" y="497"/>
    </contour>
    <contour>
      <point x="13" y="158" type="line"/>
      <point x="86" y="85" type="line"/>
      <point x="183" y="182" type="line"/>
      <point x="112" y="256" type="line"/>
    </contour>
    <contour>
      <point x="279" y="183" type="line"/>
      <point x="377" y="85" type="line"/>
      <point x="451" y="158" type="line"/>
      <point x="358" y="250" type="line"/>
    </contour>
    <contour>
      <point x="298" y="392" type="curve" smooth="yes"/>
      <point x="298" y="295" type="line" smooth="yes"/>
      <point x="298" y="255"/>
      <point x="281" y="231"/>
      <point x="232" y="231" type="curve" smooth="yes"/>
      <point x="183" y="231"/>
      <point x="166" y="256"/>
      <point x="166" y="295" type="curve" smooth="yes"/>
      <point x="166" y="392" type="line" smooth="yes"/>
      <point x="166" y="432"/>
      <point x="183" y="455"/>
      <point x="232" y="455" type="curve" smooth="yes"/>
      <point x="281" y="455"/>
      <point x="298" y="431"/>
    </contour>
    <contour>
      <point x="14" y="528" type="line"/>
      <point x="113" y="430" type="line"/>
      <point x="190" y="499" type="line"/>
      <point x="87" y="602" type="line"/>
    </contour>
    <contour>
      <point x="284" y="507" type="line"/>
      <point x="349" y="427" type="line"/>
      <point x="452" y="528" type="line"/>
      <point x="378" y="602" type="line"/>
    </contour>
  </outline>
</glyph>
<glyph name="yen" format="1">
  <advance width="536"/>
  <unicode hex="00A5"/>
  <outline>
    <contour>
      <point x="374" y="682" type="line"/>
      <point x="304" y="472" type="line"/>
      <point x="272" y="368" type="line"/>
      <point x="240" y="472" type="line"/>
      <point x="170" y="682" type="line"/>
      <point x="40" y="682" type="line"/>
      <point x="128" y="436" type="line"/>
      <point x="43" y="436" type="line"/>
      <point x="43" y="337" type="line"/>
      <point x="163" y="337" type="line"/>
      <point x="188" y="268" type="line"/>
      <point x="43" y="268" type="line"/>
      <point x="43" y="169" type="line"/>
      <point x="207" y="169" type="line"/>
      <point x="207" y="0" type="line"/>
      <point x="334" y="0" type="line"/>
      <point x="334" y="169" type="line"/>
      <point x="492" y="169" type="line"/>
      <point x="492" y="268" type="line"/>
      <point x="352" y="268" type="line"/>
      <point x="378" y="337" type="line"/>
      <point x="492" y="337" type="line"/>
      <point x="492" y="436" type="line"/>
      <point x="412" y="436" type="line"/>
      <point x="500" y="682" type="line"/>
    </contour>
  </outline>
</glyph>
<glyph name="brokenbar" format="1">
  <advance width="220"/>
  <unicode hex="00A6"/>
  <outline>
    <contour>
      <point x="65" y="858" type="line"/>
      <point x="65" y="471" type="line"/>
      <point x="152" y="471" type="line"/>
      <point x="152" y="858" type="line"/>
    </contour>
    <contour>
      <point x="65" y="208" type="line"/>
      <point x="65" y="-179" type="line"/>
      <point x="152" y="-179" type="line"/>
      <point x="152" y="208" type="line"/>
    </contour>
  </outline>
</glyph>
<glyph name="section" format="1">
  <advance width="393"/>
  <unicode hex="00A7"/>
  <outline>
    <contour>
      <point x="32" y="537" type="curve" smooth="yes"/>
      <point x="32" y="528" type="line" smooth="yes"/>
      <point x="32" y="462"/>
      <point x="62" y="427"/>
      <point x="106" y="400" type="curve" smooth="yes"/>
      <point x="180" y="356" type="line" smooth="yes"/>
      <point x="226" y="328"/>
      <point x="242" y="318"/>
      <point x="242" y="292" type="curve" smooth="yes"/>
      <point x="242" y="270" type="line"/>
      <point x="366" y="270" type="line"/>
      <point x="366" y="301" type="line" smooth="yes"/>
      <point x="366" y="364"/>
      <point x="333" y="400"/>
      <point x="283" y="428" type="curve" smooth="yes"/>
      <point x="200" y="477" type="line" smooth="yes"/>
      <point x="163" y="497"/>
      <point x="155" y="507"/>
      <point x="155" y="530" type="curve" smooth="yes"/>
      <point x="155" y="563"/>
      <point x="169" y="578"/>
      <point x="236" y="578" type="curve" smooth="yes"/>
      <point x="277" y="578"/>
      <point x="327" y="569"/>
      <point x="345" y="563" type="curve"/>
      <point x="345" y="676" type="line"/>
      <point x="316" y="685"/>
      <point x="267" y="691"/>
      <point x="226" y="691" type="curve" smooth="yes"/>
      <point x="85" y="691"/>
      <point x="32" y="636"/>
    </contour>
    <contour>
      <point x="160" y="276" type="line"/>
      <point x="39" y="276" type="line"/>
      <point x="39" y="245" type="line" smooth="yes"/>
      <point x="39" y="179"/>
      <point x="70" y="144"/>
      <point x="113" y="118" type="curve" smooth="yes"/>
      <point x="187" y="74" type="line" smooth="yes"/>
      <point x="237" y="43"/>
      <point x="246" y="32"/>
      <point x="246" y="11" type="curve" smooth="yes"/>
      <point x="246" y="-21"/>
      <point x="228" y="-36"/>
      <point x="148" y="-36" type="curve" smooth="yes"/>
      <point x="104" y="-36"/>
      <point x="61" y="-28"/>
      <point x="38" y="-21" type="curve"/>
      <point x="38" y="-136" type="line"/>
      <point x="70" y="-145"/>
      <point x="105" y="-150"/>
      <point x="165" y="-150" type="curve" smooth="yes"/>
      <point x="306" y="-150"/>
      <point x="373" y="-95"/>
      <point x="373" y="9" type="curve" smooth="yes"/>
      <point x="373" y="18" type="line" smooth="yes"/>
      <point x="373" y="81"/>
      <point x="339" y="117"/>
      <point x="291" y="146" type="curve" smooth="yes"/>
      <point x="208" y="196" type="line" smooth="yes"/>
      <point x="172" y="218"/>
      <point x="160" y="228"/>
      <point x="160" y="253" type="curve" smooth="yes"/>
    </contour>
  </outline>
</glyph>
<glyph name="dieresis" format="1">
  <advance width="350"/>
  <unicode hex="00A8"/>
  <outline>
    <contour>
      <point x="43" y="682" type="curve" smooth="yes"/>
      <point x="43" y="653"/>
      <point x="55" y="633"/>
      <point x="95" y="633" type="curve" smooth="yes"/>
      <point x="134" y="633"/>
      <point x="147" y="653"/>
      <point x="147" y="682" type="curve" smooth="yes"/>
      <point x="147" y="712"/>
      <point x="134" y="732"/>
      <point x="95" y="732" type="curve" smooth="yes"/>
      <point x="55" y="732"/>
      <point x="43" y="712"/>
    </contour>
    <contour>
      <point x="203" y="682" type="curve" smooth="yes"/>
      <point x="203" y="653"/>
      <point x="215" y="633"/>
      <point x="255" y="633" type="curve" smooth="yes"/>
      <point x="295" y="633"/>
      <point x="308" y="653"/>
      <point x="308" y="682" type="curve" smooth="yes"/>
      <point x="308" y="712"/>
      <point x="295" y="732"/>
      <point x="255" y="732" type="curve" smooth="yes"/>
      <point x="215" y="732"/>
      <point x="203" y="712"/>
    </contour>
  </outline>
</glyph>
<glyph name="copyright" format="1">
  <advance width="702"/>
  <unicode hex="00A9"/>
  <outline>
    <contour>
      <point x="38" y="332" type="curve" smooth="yes"/>
      <point x="38" y="139"/>
      <point x="97" y="0"/>
      <point x="351" y="0" type="curve" smooth="yes"/>
      <point x="602" y="0"/>
      <point x="663" y="142"/>
      <point x="663" y="332" type="curve" smooth="yes"/>
      <point x="663" y="527"/>
      <point x="608" y="665"/>
      <point x="351" y="665" type="curve" smooth="yes"/>
      <point x="98" y="665"/>
      <point x="38" y="524"/>
    </contour>
    <contour>
      <point x="226" y="392" type="curve" smooth="yes"/>
      <point x="226" y="274" type="line" smooth="yes"/>
      <point x="226" y="199"/>
      <point x="263" y="154"/>
      <point x="361" y="154" type="curve" smooth="yes"/>
      <point x="404" y="154"/>
      <point x="433" y="163"/>
      <point x="438" y="164" type="curve"/>
      <point x="438" y="242" type="line"/>
      <point x="404" y="236"/>
      <point x="389" y="235"/>
      <point x="362" y="235" type="curve" smooth="yes"/>
      <point x="319" y="235"/>
      <point x="315" y="252"/>
      <point x="315" y="276" type="curve" smooth="yes"/>
      <point x="315" y="390" type="line" smooth="yes"/>
      <point x="315" y="414"/>
      <point x="319" y="431"/>
      <point x="362" y="431" type="curve" smooth="yes"/>
      <point x="389" y="431"/>
      <point x="404" y="429"/>
      <point x="437" y="423" type="curve"/>
      <point x="437" y="502" type="line"/>
      <point x="432" y="504"/>
      <point x="404" y="512"/>
      <point x="361" y="512" type="curve" smooth="yes"/>
      <point x="263" y="512"/>
      <point x="226" y="467"/>
    </contour>
    <contour>
      <point x="569" y="332" type="curve" smooth="yes"/>
      <point x="569" y="192"/>
      <point x="550" y="89"/>
      <point x="351" y="89" type="curve" smooth="yes"/>
      <point x="148" y="89"/>
      <point x="132" y="189"/>
      <point x="132" y="332" type="curve" smooth="yes"/>
      <point x="132" y="474"/>
      <point x="146" y="575"/>
      <point x="351" y="575" type="curve" smooth="yes"/>
      <point x="558" y="575"/>
      <point x="569" y="476"/>
    </contour>
  </outline>
</glyph>
<glyph name="ordfeminine" format="1">
  <advance width="334"/>
  <unicode hex="00AA"/>
  <outline>
    <contour>
      <point x="54" y="729" type="curve"/>
      <point x="54" y="654" type="line"/>
      <point x="91" y="664"/>
      <point x="141" y="669"/>
      <point x="162" y="669" type="curve" smooth="yes"/>
      <point x="204" y="669"/>
      <point x="221" y="655"/>
      <point x="221" y="633" type="curve"/>
      <point x="221" y="565" type="line"/>
      <point x="149" y="545" type="line" smooth="yes"/>
      <point x="76" y="523"/>
      <point x="35" y="495"/>
      <point x="35" y="432" type="curve" smooth="yes"/>
      <point x="35" y="399" type="line" smooth="yes"/>
      <point x="35" y="325"/>
      <point x="68" y="289"/>
      <point x="139" y="289" type="curve" smooth="yes"/>
      <point x="173" y="289"/>
      <point x="204" y="302"/>
      <point x="221" y="322" type="curve"/>
      <point x="221" y="285" type="line"/>
      <point x="304" y="285" type="line"/>
      <point x="304" y="634" type="line" smooth="yes"/>
      <point x="304" y="701"/>
      <point x="262" y="744"/>
      <point x="166" y="744" type="curve" smooth="yes"/>
      <point x="137" y="744"/>
      <point x="88" y="740"/>
    </contour>
    <contour>
      <point x="221" y="373" type="line"/>
      <point x="208" y="362"/>
      <point x="186" y="356"/>
      <point x="165" y="356" type="curve" smooth="yes"/>
      <point x="127" y="356"/>
      <point x="117" y="371"/>
      <point x="117" y="400" type="curve" smooth="yes"/>
      <point x="117" y="424" type="line" smooth="yes"/>
      <point x="117" y="450"/>
      <point x="130" y="466"/>
      <point x="165" y="476" type="curve" smooth="yes"/>
      <point x="221" y="492" type="line"/>
    </contour>
  </outline>
</glyph>
<glyph name="guillemotleft" format="1">
  <advance width="589"/>
  <unicode hex="00AB"/>
  <outline>
    <contour>
      <point x="399" y="505" type="line"/>
      <point x="278" y="322" type="line"/>
      <point x="399" y="139" type="line"/>
      <point x="527" y="139" type="line"/>
      <point x="405" y="322" type="line"/>
      <point x="527" y="505" type="line"/>
    </contour>
    <contour>
      <point x="181" y="505" type="line"/>
      <point x="60" y="322" type="line"/>
      <point x="181" y="139" type="line"/>
      <point x="309" y="139" type="line"/>
      <point x="187" y="322" type="line"/>
      <point x="309" y="505" type="line"/>
    </contour>
  </outline>
</glyph>
<glyph name="logicalnot" format="1">
  <advance width="510"/>
  <unicode hex="00AC"/>
  <outline>
    <contour>
      <point x="51" y="394" type="line"/>
      <point x="51" y="281" type="line"/>
      <point x="329" y="281" type="line"/>
      <point x="329" y="171" type="line"/>
      <point x="458" y="171" type="line"/>
      <point x="458" y="394" type="line"/>
    </contour>
  </outline>
</glyph>
<glyph name="softhyphen" format="1">
  <advance width="288"/>
  <unicode hex="00AD"/>
  <outline>
    <contour>
      <point x="41" y="385" type="line"/>
      <point x="41" y="275" type="line"/>
      <point x="253" y="275" type="line"/>
      <point x="253" y="385" type="line"/>
    </contour>
  </outline>
</glyph>
<glyph name="registered" format="1">
  <advance width="578"/>
  <unicode hex="00AE"/>
  <outline>
    <contour>
      <point x="88" y="525" type="curve" smooth="yes"/>
      <point x="88" y="383"/>
      <point x="131" y="287"/>
      <point x="312" y="287" type="curve" smooth="yes"/>
      <point x="494" y="287"/>
      <point x="536" y="385"/>
      <point x="536" y="525" type="curve" smooth="yes"/>
      <point x="536" y="669"/>
      <point x="494" y="764"/>
      <point x="312" y="764" type="curve" smooth="yes"/>
      <point x="132" y="764"/>
      <point x="88" y="667"/>
    </contour>
    <contour>
      <point x="314" y="508" type="line"/>
      <point x="355" y="390" type="line"/>
      <point x="419" y="390" type="line"/>
      <point x="372" y="508" type="line"/>
    </contour>
    <contour>
      <point x="476" y="525" type="curve" smooth="yes"/>
      <point x="476" y="415"/>
      <point x="464" y="344"/>
      <point x="312" y="344" type="curve" smooth="yes"/>
      <point x="160" y="344"/>
      <point x="149" y="413"/>
      <point x="149" y="525" type="curve" smooth="yes"/>
      <point x="149" y="638"/>
      <point x="158" y="708"/>
      <point x="312" y="708" type="curve" smooth="yes"/>
      <point x="466" y="708"/>
      <point x="476" y="640"/>
    </contour>
    <contour>
      <point x="228" y="665" type="line"/>
      <point x="228" y="390" type="line"/>
      <point x="287" y="390" type="line"/>
      <point x="287" y="488" type="line"/>
      <point x="309" y="488" type="line"/>
      <point x="367" y="488"/>
      <point x="408" y="510"/>
      <point x="408" y="578" type="curve" smooth="yes"/>
      <point x="408" y="645"/>
      <point x="367" y="665"/>
      <point x="309" y="665" type="curve" smooth="yes"/>
    </contour>
    <contour>
      <point x="350" y="578" type="curve" smooth="yes"/>
      <point x="350" y="543"/>
      <point x="338" y="537"/>
      <point x="303" y="537" type="curve" smooth="yes"/>
      <point x="287" y="537" type="line"/>
      <point x="287" y="616" type="line"/>
      <point x="309" y="616" type="line" smooth="yes"/>
      <point x="335" y="616"/>
      <point x="350" y="613"/>
    </contour>
  </outline>
</glyph>
<glyph name="macron" format="1">
  <advance width="350"/>
  <unicode hex="00AF"/>
  <outline>
    <contour>
      <point x="48" y="717" type="line"/>
      <point x="48" y="649" type="line"/>
      <point x="302" y="649" type="line"/>
      <point x="302" y="717" type="line"/>
    </contour>
  </outline>
</glyph>
<glyph name="degree" format="1">
  <advance width="420"/>
  <unicode hex="00B0"/>
  <outline>
    <contour>
      <point x="45" y="667" type="curve" smooth="yes"/>
      <point x="45" y="568"/>
      <point x="91" y="496"/>
      <point x="210" y="496" type="curve" smooth="yes"/>
      <point x="328" y="496"/>
      <point x="376" y="568"/>
      <point x="376" y="667" type="curve" smooth="yes"/>
      <point x="376" y="766"/>
      <point x="328" y="838"/>
      <point x="210" y="838" type="curve" smooth="yes"/>
      <point x="91" y="838"/>
      <point x="45" y="766"/>
    </contour>
    <contour>
      <point x="271" y="667" type="curve" smooth="yes"/>
      <point x="271" y="620"/>
      <point x="257" y="592"/>
      <point x="210" y="592" type="curve" smooth="yes"/>
      <point x="162" y="592"/>
      <point x="150" y="620"/>
      <point x="150" y="667" type="curve" smooth="yes"/>
      <point x="150" y="713"/>
      <point x="162" y="742"/>
      <point x="210" y="742" type="curve" smooth="yes"/>
      <point x="257" y="742"/>
      <point x="271" y="713"/>
    </contour>
  </outline>
</glyph>
<glyph name="plusminus" format="1">
  <advance width="480"/>
  <unicode hex="00B1"/>
  <outline>
    <contour>
      <point x="45" y="121" type="line"/>
      <point x="45" y="12" type="line"/>
      <point x="443" y="12" type="line"/>
      <point x="442" y="121" type="line"/>
    </contour>
    <contour>
      <point x="45" y="385" type="line"/>
      <point x="45" y="275" type="line"/>
      <point x="442" y="275" type="line"/>
      <point x="442" y="385" type="line"/>
    </contour>
    <contour>
      <point x="184" y="491" type="line"/>
      <point x="184" y="169" type="line"/>
      <point x="302" y="169" type="line"/>
      <point x="302" y="491" type="line"/>
    </contour>
  </outline>
</glyph>
<glyph name="twosuperior" format="1">
  <advance width="298"/>
  <unicode hex="00B2"/>
  <outline>
    <contour>
      <point x="43" y="733" type="curve"/>
      <point x="43" y="657" type="line"/>
      <point x="74" y="664"/>
      <point x="101" y="669"/>
      <point x="148" y="669" type="curve" smooth="yes"/>
      <point x="181" y="669"/>
      <point x="190" y="657"/>
      <point x="190" y="634" type="curve" smooth="yes"/>
      <point x="190" y="608" type="line" smooth="yes"/>
      <point x="190" y="581"/>
      <point x="188" y="569"/>
      <point x="164" y="552" type="curve" smooth="yes"/>
      <point x="90" y="500" type="line" smooth="yes"/>
      <point x="52" y="473"/>
      <point x="33" y="450"/>
      <point x="33" y="395" type="curve" smooth="yes"/>
      <point x="33" y="289" type="line"/>
      <point x="271" y="289" type="line"/>
      <point x="271" y="365" type="line"/>
      <point x="116" y="365" type="line"/>
      <point x="116" y="390" type="line" smooth="yes"/>
      <point x="116" y="421"/>
      <point x="120" y="427"/>
      <point x="156" y="452" type="curve" smooth="yes"/>
      <point x="224" y="502" type="line" smooth="yes"/>
      <point x="257" y="525"/>
      <point x="272" y="553"/>
      <point x="272" y="595" type="curve" smooth="yes"/>
      <point x="272" y="636" type="line" smooth="yes"/>
      <point x="272" y="705"/>
      <point x="234" y="744"/>
      <point x="151" y="744" type="curve" smooth="yes"/>
      <point x="88" y="744"/>
      <point x="57" y="737"/>
    </contour>
  </outline>
</glyph>
<glyph name="threesuperior" format="1">
  <advance width="294"/>
  <unicode hex="00B3"/>
  <outline>
    <contour>
      <point x="30" y="733" type="curve"/>
      <point x="30" y="657" type="line"/>
      <point x="62" y="665"/>
      <point x="85" y="669"/>
      <point x="132" y="669" type="curve" smooth="yes"/>
      <point x="165" y="669"/>
      <point x="175" y="657"/>
      <point x="175" y="634" type="curve" smooth="yes"/>
      <point x="175" y="590" type="line" smooth="yes"/>
      <point x="175" y="570"/>
      <point x="170" y="554"/>
      <point x="137" y="554" type="curve" smooth="yes"/>
      <point x="89" y="554" type="line"/>
      <point x="89" y="478" type="line"/>
      <point x="137" y="478" type="line" smooth="yes"/>
      <point x="170" y="478"/>
      <point x="175" y="463"/>
      <point x="175" y="443" type="curve" smooth="yes"/>
      <point x="175" y="395" type="line" smooth="yes"/>
      <point x="175" y="371"/>
      <point x="165" y="359"/>
      <point x="132" y="359" type="curve" smooth="yes"/>
      <point x="85" y="359"/>
      <point x="63" y="363"/>
      <point x="27" y="372" type="curve"/>
      <point x="27" y="296" type="line"/>
      <point x="45" y="291"/>
      <point x="72" y="284"/>
      <point x="135" y="284" type="curve" smooth="yes"/>
      <point x="218" y="284"/>
      <point x="257" y="324"/>
      <point x="257" y="392" type="curve" smooth="yes"/>
      <point x="257" y="443" type="line" smooth="yes"/>
      <point x="257" y="479"/>
      <point x="245" y="504"/>
      <point x="222" y="517" type="curve"/>
      <point x="246" y="531"/>
      <point x="257" y="557"/>
      <point x="257" y="590" type="curve" smooth="yes"/>
      <point x="257" y="637" type="line" smooth="yes"/>
      <point x="257" y="705"/>
      <point x="218" y="744"/>
      <point x="136" y="744" type="curve" smooth="yes"/>
      <point x="71" y="744"/>
      <point x="45" y="738"/>
    </contour>
  </outline>
</glyph>
<glyph name="acute" format="1">
  <advance width="350"/>
  <unicode hex="00B4"/>
  <outline>
    <contour>
      <point x="148" y="739" type="line"/>
      <point x="105" y="626" type="line"/>
      <point x="174" y="626" type="line"/>
      <point x="245" y="739" type="line"/>
    </contour>
  </outline>
</glyph>
<glyph name="mu.math" format="1">
  <advance width="462"/>
  <unicode hex="00B5"/>
  <outline>
    <contour>
      <point x="283" y="584" type="line"/>
      <point x="283" y="133" type="line"/>
      <point x="275" y="129"/>
      <point x="246" y="115"/>
      <point x="215" y="115" type="curve" smooth="yes"/>
      <point x="193" y="115"/>
      <point x="180" y="120"/>
      <point x="176" y="122" type="curve"/>
      <point x="176" y="584" type="line"/>
      <point x="47" y="584" type="line"/>
      <point x="47" y="-149" type="line"/>
      <point x="176" y="-149" type="line"/>
      <point x="176" y="4" type="line"/>
      <point x="185" y="2"/>
      <point x="198" y="1"/>
      <point x="211" y="2" type="curve" smooth="yes"/>
      <point x="251" y="6"/>
      <point x="279" y="21"/>
      <point x="290" y="27" type="curve"/>
      <point x="290" y="0" type="line"/>
      <point x="410" y="0" type="line"/>
      <point x="410" y="584" type="line"/>
    </contour>
  </outline>
</glyph>
<glyph name="paragraph" format="1">
  <advance width="446"/>
  <unicode hex="00B6"/>
  <outline>
    <contour>
      <point x="230" y="687" type="line"/>
      <point x="123" y="687"/>
      <point x="59" y="633"/>
      <point x="59" y="536" type="curve"/>
      <point x="59" y="437"/>
      <point x="123" y="383"/>
      <point x="230" y="383" type="curve" smooth="yes"/>
      <point x="257" y="383" type="line"/>
      <point x="257" y="0" type="line"/>
      <point x="386" y="0" type="line"/>
      <point x="386" y="687" type="line"/>
    </contour>
  </outline>
</glyph>
<glyph name="periodcentered" format="1">
  <advance width="266"/>
  <unicode hex="00B7"/>
  <outline>
    <contour>
      <point x="67" y="346" type="curve" smooth="yes"/>
      <point x="67" y="309"/>
      <point x="81" y="280"/>
      <point x="132" y="280" type="curve" smooth="yes"/>
      <point x="183" y="280"/>
      <point x="198" y="309"/>
      <point x="198" y="346" type="curve" smooth="yes"/>
      <point x="198" y="382"/>
      <point x="183" y="411"/>
      <point x="132" y="411" type="curve" smooth="yes"/>
      <point x="81" y="411"/>
      <point x="67" y="382"/>
    </contour>
  </outline>
</glyph>
<glyph name="cedilla" format="1">
  <advance width="350"/>
  <unicode hex="00B8"/>
  <outline>
    <contour>
      <point x="142" y="6" type="line"/>
      <point x="124" y="-75" type="line"/>
      <point x="136" y="-75" type="line" smooth="yes"/>
      <point x="161" y="-75"/>
      <point x="174" y="-84"/>
      <point x="174" y="-102" type="curve" smooth="yes"/>
      <point x="174" y="-120"/>
      <point x="159" y="-129"/>
      <point x="137" y="-129" type="curve" smooth="yes"/>
      <point x="123" y="-129"/>
      <point x="108" y="-127"/>
      <point x="100" y="-124" type="curve"/>
      <point x="100" y="-182" type="line"/>
      <point x="117" y="-186"/>
      <point x="135" y="-188"/>
      <point x="151" y="-188" type="curve" smooth="yes"/>
      <point x="209" y="-188"/>
      <point x="249" y="-158"/>
      <point x="249" y="-106" type="curve" smooth="yes"/>
      <point x="249" y="-59"/>
      <point x="213" y="-41"/>
      <point x="188" y="-39" type="curve"/>
      <point x="198" y="6" type="line"/>
    </contour>
  </outline>
</glyph>
<glyph name="onesuperior" format="1">
  <advance width="216"/>
  <unicode hex="00B9"/>
  <outline>
    <contour>
      <point x="92" y="738" type="line"/>
      <point x="12" y="680" type="line"/>
      <point x="12" y="588" type="line"/>
      <point x="94" y="648" type="line"/>
      <point x="94" y="288" type="line"/>
      <point x="176" y="288" type="line"/>
      <point x="176" y="738" type="line"/>
    </contour>
  </outline>
</glyph>
<glyph name="ordmasculine" format="1">
  <advance width="325"/>
  <unicode hex="00BA"/>
  <outline>
    <contour>
      <point x="43" y="632" type="curve" smooth="yes"/>
      <point x="43" y="398" type="line" smooth="yes"/>
      <point x="43" y="324"/>
      <point x="83" y="284"/>
      <point x="173" y="284" type="curve" smooth="yes"/>
      <point x="263" y="284"/>
      <point x="303" y="324"/>
      <point x="303" y="398" type="curve" smooth="yes"/>
      <point x="303" y="632" type="line" smooth="yes"/>
      <point x="303" y="706"/>
      <point x="263" y="746"/>
      <point x="173" y="746" type="curve" smooth="yes"/>
      <point x="83" y="746"/>
      <point x="43" y="706"/>
    </contour>
    <contour>
      <point x="220" y="635" type="curve" smooth="yes"/>
      <point x="220" y="396" type="line" smooth="yes"/>
      <point x="220" y="373"/>
      <point x="206" y="361"/>
      <point x="173" y="361" type="curve" smooth="yes"/>
      <point x="140" y="361"/>
      <point x="126" y="373"/>
      <point x="126" y="396" type="curve" smooth="yes"/>
      <point x="126" y="635" type="line" smooth="yes"/>
      <point x="126" y="658"/>
      <point x="141" y="669"/>
      <point x="173" y="669" type="curve" smooth="yes"/>
      <point x="205" y="669"/>
      <point x="220" y="658"/>
    </contour>
  </outline>
</glyph>
<glyph name="guillemotright" format="1">
  <advance width="587"/>
  <unicode hex="00BB"/>
  <outline>
    <contour>
      <point x="268" y="505" type="line"/>
      <point x="390" y="322" type="line"/>
      <point x="268" y="139" type="line"/>
      <point x="396" y="139" type="line"/>
      <point x="517" y="322" type="line"/>
      <point x="396" y="505" type="line"/>
    </contour>
    <contour>
      <point x="51" y="505" type="line"/>
      <point x="173" y="322" type="line"/>
      <point x="51" y="139" type="line"/>
      <point x="178" y="139" type="line"/>
      <point x="299" y="322" type="line"/>
      <point x="178" y="505" type="line"/>
    </contour>
  </outline>
</glyph>
<glyph name="onequarter" format="1">
  <advance width="817"/>
  <unicode hex="00BC"/>
  <outline>
    <contour>
      <point x="119" y="687" type="line"/>
      <point x="40" y="629" type="line"/>
      <point x="40" y="537" type="line"/>
      <point x="122" y="597" type="line"/>
      <point x="122" y="237" type="line"/>
      <point x="204" y="237" type="line"/>
      <point x="204" y="687" type="line"/>
    </contour>
    <contour>
      <point x="593" y="450" type="line"/>
      <point x="473" y="159" type="line"/>
      <point x="473" y="82" type="line"/>
      <point x="639" y="82" type="line"/>
      <point x="639" y="0" type="line"/>
      <point x="720" y="0" type="line"/>
      <point x="720" y="82" type="line"/>
      <point x="765" y="82" type="line"/>
      <point x="765" y="156" type="line"/>
      <point x="720" y="156" type="line"/>
      <point x="720" y="450" type="line"/>
    </contour>
    <contour>
      <point x="639" y="156" type="line"/>
      <point x="549" y="156" type="line"/>
      <point x="639" y="380" type="line"/>
    </contour>
    <contour>
      <point x="525" y="687" type="line"/>
      <point x="142" y="0" type="line"/>
      <point x="225" y="0" type="line"/>
      <point x="608" y="687" type="line"/>
    </contour>
  </outline>
</glyph>
<glyph name="threequarters" format="1">
  <advance width="844"/>
  <unicode hex="00BE"/>
  <outline>
    <contour>
      <point x="620" y="450" type="line"/>
      <point x="500" y="159" type="line"/>
      <point x="500" y="82" type="line"/>
      <point x="666" y="82" type="line"/>
      <point x="666" y="0" type="line"/>
      <point x="748" y="0" type="line"/>
      <point x="748" y="82" type="line"/>
      <point x="792" y="82" type="line"/>
      <point x="792" y="156" type="line"/>
      <point x="748" y="156" type="line"/>
      <point x="748" y="450" type="line"/>
    </contour>
    <contour>
      <point x="666" y="156" type="line"/>
      <point x="576" y="156" type="line"/>
      <point x="666" y="380" type="line"/>
    </contour>
    <contour>
      <point x="557" y="687" type="line"/>
      <point x="174" y="0" type="line"/>
      <point x="257" y="0" type="line"/>
      <point x="640" y="687" type="line"/>
    </contour>
    <contour>
      <point x="43" y="682" type="curve"/>
      <point x="43" y="606" type="line"/>
      <point x="75" y="613"/>
      <point x="98" y="618"/>
      <point x="145" y="618" type="curve" smooth="yes"/>
      <point x="178" y="618"/>
      <point x="188" y="606"/>
      <point x="188" y="582" type="curve" smooth="yes"/>
      <point x="188" y="538" type="line" smooth="yes"/>
      <point x="188" y="518"/>
      <point x="183" y="502"/>
      <point x="150" y="502" type="curve" smooth="yes"/>
      <point x="102" y="502" type="line"/>
      <point x="102" y="426" type="line"/>
      <point x="150" y="426" type="line" smooth="yes"/>
      <point x="183" y="426"/>
      <point x="188" y="412"/>
      <point x="188" y="391" type="curve" smooth="yes"/>
      <point x="188" y="343" type="line" smooth="yes"/>
      <point x="188" y="320"/>
      <point x="178" y="308"/>
      <point x="145" y="308" type="curve" smooth="yes"/>
      <point x="98" y="308"/>
      <point x="76" y="312"/>
      <point x="40" y="320" type="curve"/>
      <point x="40" y="244" type="line"/>
      <point x="58" y="239"/>
      <point x="85" y="233"/>
      <point x="148" y="233" type="curve" smooth="yes"/>
      <point x="231" y="233"/>
      <point x="270" y="272"/>
      <point x="270" y="341" type="curve" smooth="yes"/>
      <point x="270" y="391" type="line" smooth="yes"/>
      <point x="270" y="427"/>
      <point x="258" y="452"/>
      <point x="235" y="465" type="curve"/>
      <point x="259" y="479"/>
      <point x="270" y="506"/>
      <point x="270" y="538" type="curve" smooth="yes"/>
      <point x="270" y="586" type="line" smooth="yes"/>
      <point x="270" y="654"/>
      <point x="231" y="693"/>
      <point x="148" y="693" type="curve" smooth="yes"/>
      <point x="84" y="693"/>
      <point x="58" y="686"/>
    </contour>
  </outline>
</glyph>
<glyph name="AE" format="1">
  <advance width="706"/>
  <unicode hex="00C6"/>
  <outline>
    <contour>
      <point x="279" y="687" type="line"/>
      <point x="2" y="0" type="line"/>
      <point x="127" y="0" type="line"/>
      <point x="388" y="687" type="line"/>
    </contour>
    <contour>
      <point x="150" y="276" type="line"/>
      <point x="150" y="168" type="line"/>
      <point x="392" y="168" type="line"/>
      <point x="392" y="276" type="line"/>
    </contour>
    <contour>
      <point x="355" y="687" type="line"/>
      <point x="355" y="0" type="line"/>
      <point x="681" y="0" type="line"/>
      <point x="681" y="110" type="line"/>
      <point x="474" y="110" type="line"/>
      <point x="474" y="292" type="line"/>
      <point x="653" y="292" type="line"/>
      <point x="653" y="403" type="line"/>
      <point x="474" y="403" type="line"/>
      <point x="474" y="576" type="line"/>
      <point x="681" y="576" type="line"/>
      <point x="681" y="687" type="line"/>
    </contour>
  </outline>
</glyph>
<glyph name="Eth" format="1">
  <advance width="490"/>
  <unicode hex="00D0"/>
  <outline>
    <contour>
      <point x="-7" y="391" type="line"/>
      <point x="-7" y="285" type="line"/>
      <point x="258" y="285" type="line"/>
      <point x="258" y="391" type="line"/>
    </contour>
    <component base="D" xOffset="8"/>
  </outline>
</glyph>
<glyph name="multiply" format="1">
  <advance width="459"/>
  <unicode hex="00D7"/>
  <outline>
    <contour>
      <point x="40" y="443" type="line"/>
      <point x="341" y="142" type="line"/>
      <point x="418" y="219" type="line"/>
      <point x="117" y="520" type="line"/>
    </contour>
    <contour>
      <point x="39" y="219" type="line"/>
      <point x="116" y="142" type="line"/>
      <point x="417" y="443" type="line"/>
      <point x="340" y="520" type="line"/>
    </contour>
  </outline>
</glyph>
<glyph name="Oslash" format="1">
  <advance width="480"/>
  <unicode hex="00D8"/>
  <outline>
    <contour>
      <point x="362" y="687" type="line"/>
      <point x="38" y="0" type="line"/>
      <point x="117" y="0" type="line"/>
      <point x="442" y="687" type="line"/>
    </contour>
    <component base="O"/>
  </outline>
</glyph>
<glyph name="Thorn" format="1">
  <advance width="446"/>
  <unicode hex="00DE"/>
  <outline>
    <contour>
      <point x="165" y="579" type="line"/>
      <point x="165" y="470" type="line"/>
      <point x="250" y="470" type="line" smooth="yes"/>
      <point x="292" y="470"/>
      <point x="309" y="451"/>
      <point x="309" y="413" type="curve" smooth="yes"/>
      <point x="309" y="274" type="line" smooth="yes"/>
      <point x="309" y="237"/>
      <point x="292" y="218"/>
      <point x="250" y="218" type="curve" smooth="yes"/>
      <point x="166" y="218" type="line"/>
      <point x="166" y="109" type="line"/>
      <point x="260" y="109" type="line" smooth="yes"/>
      <point x="367" y="109"/>
      <point x="431" y="163"/>
      <point x="431" y="262" type="curve" smooth="yes"/>
      <point x="431" y="425" type="line" smooth="yes"/>
      <point x="431" y="525"/>
      <point x="367" y="579"/>
      <point x="260" y="579" type="curve" smooth="yes"/>
    </contour>
    <contour>
      <point x="62" y="687" type="line"/>
      <point x="62" y="0" type="line"/>
      <point x="184" y="0" type="line"/>
      <point x="184" y="687" type="line"/>
    </contour>
  </outline>
</glyph>
<glyph name="germandbls" format="1">
  <advance width="560"/>
  <unicode hex="00DF"/>
  <outline>
    <contour>
      <point x="52" y="530" type="curve" smooth="yes"/>
      <point x="52" y="0" type="line"/>
      <point x="172" y="0" type="line"/>
      <point x="172" y="520" type="line" smooth="yes"/>
      <point x="172" y="584"/>
      <point x="198" y="612"/>
      <point x="255" y="612" type="curve" smooth="yes"/>
      <point x="306" y="612"/>
      <point x="329" y="588"/>
      <point x="329" y="546" type="curve" smooth="yes"/>
      <point x="329" y="486"/>
      <point x="267" y="445"/>
      <point x="267" y="380" type="curve" smooth="yes"/>
      <point x="267" y="362" type="line" smooth="yes"/>
      <point x="267" y="313"/>
      <point x="301" y="280"/>
      <point x="349" y="247" type="curve" smooth="yes"/>
      <point x="389" y="219"/>
      <point x="419" y="197"/>
      <point x="419" y="169" type="curve" smooth="yes"/>
      <point x="419" y="158" type="line" smooth="yes"/>
      <point x="419" y="126"/>
      <point x="405" y="108"/>
      <point x="332" y="108" type="curve" smooth="yes"/>
      <point x="291" y="108"/>
      <point x="256" y="116"/>
      <point x="235" y="124" type="curve"/>
      <point x="235" y="10" type="line"/>
      <point x="265" y="3"/>
      <point x="288" y="-3"/>
      <point x="347" y="-3" type="curve" smooth="yes"/>
      <point x="483" y="-3"/>
      <point x="541" y="52"/>
      <point x="541" y="148" type="curve" smooth="yes"/>
      <point x="541" y="179" type="line" smooth="yes"/>
      <point x="541" y="234"/>
      <point x="508" y="269"/>
      <point x="467" y="298" type="curve" smooth="yes"/>
      <point x="423" y="329"/>
      <point x="396" y="350"/>
      <point x="396" y="375" type="curve" smooth="yes"/>
      <point x="396" y="386" type="line" smooth="yes"/>
      <point x="396" y="425"/>
      <point x="455" y="466"/>
      <point x="455" y="552" type="curve" smooth="yes"/>
      <point x="455" y="661"/>
      <point x="376" y="724"/>
      <point x="255" y="724" type="curve" smooth="yes"/>
      <point x="123" y="724"/>
      <point x="52" y="655"/>
    </contour>
  </outline>
</glyph>
<glyph name="ae" format="1">
  <advance width="653"/>
  <unicode hex="00E6"/>
  <outline>
    <contour>
      <point x="321" y="558" type="curve"/>
      <point x="293" y="578"/>
      <point x="252" y="589"/>
      <point x="197" y="589" type="curve" smooth="yes"/>
      <point x="131" y="589"/>
      <point x="74" y="576"/>
      <point x="53" y="568" type="curve"/>
      <point x="53" y="455" type="line"/>
      <point x="74" y="463"/>
      <point x="130" y="477"/>
      <point x="187" y="477" type="curve" smooth="yes"/>
      <point x="249" y="477"/>
      <point x="263" y="456"/>
      <point x="263" y="427" type="curve" smooth="yes"/>
      <point x="264" y="362" type="line"/>
      <point x="147" y="326" type="line" smooth="yes"/>
      <point x="62" y="300"/>
      <point x="27" y="258"/>
      <point x="27" y="174" type="curve" smooth="yes"/>
      <point x="27" y="139" type="line" smooth="yes"/>
      <point x="27" y="43"/>
      <point x="79" y="-4"/>
      <point x="175" y="-4" type="curve" smooth="yes"/>
      <point x="240" y="-4"/>
      <point x="290" y="8"/>
      <point x="323" y="30" type="curve"/>
      <point x="355" y="7"/>
      <point x="402" y="-6"/>
      <point x="466" y="-6" type="curve" smooth="yes"/>
      <point x="542" y="-6"/>
      <point x="575" y="4"/>
      <point x="607" y="12" type="curve"/>
      <point x="607" y="125" type="line"/>
      <point x="585" y="119"/>
      <point x="536" y="106"/>
      <point x="477" y="106" type="curve" smooth="yes"/>
      <point x="415" y="106"/>
      <point x="385" y="122"/>
      <point x="385" y="171" type="curve" smooth="yes"/>
      <point x="385" y="240" type="line"/>
      <point x="622" y="240" type="line"/>
      <point x="622" y="434" type="line" smooth="yes"/>
      <point x="622" y="530"/>
      <point x="571" y="594"/>
      <point x="445" y="594" type="curve" smooth="yes"/>
      <point x="390" y="594"/>
      <point x="349" y="579"/>
    </contour>
    <contour>
      <point x="266" y="112" type="line"/>
      <point x="246" y="99"/>
      <point x="219" y="93"/>
      <point x="196" y="93" type="curve" smooth="yes"/>
      <point x="166" y="93"/>
      <point x="148" y="107"/>
      <point x="148" y="140" type="curve"/>
      <point x="148" y="168" type="line" smooth="yes"/>
      <point x="148" y="208"/>
      <point x="156" y="224"/>
      <point x="198" y="235" type="curve" smooth="yes"/>
      <point x="266" y="254" type="line"/>
    </contour>
    <contour>
      <point x="503" y="433" type="curve" smooth="yes"/>
      <point x="503" y="339" type="line"/>
      <point x="385" y="339" type="line"/>
      <point x="385" y="433" type="line"/>
      <point x="385" y="467"/>
      <point x="406" y="487"/>
      <point x="445" y="487" type="curve" smooth="yes"/>
      <point x="484" y="487"/>
      <point x="503" y="467"/>
    </contour>
  </outline>
</glyph>
<glyph name="igrave" format="1">
  <advance width="232"/>
  <unicode hex="00EC"/>
  <outline>
    <contour>
      <point x="52" y="571" type="line"/>
      <point x="52" y="0" type="line"/>
      <point x="180" y="0" type="line"/>
      <point x="180" y="571" type="line"/>
    </contour>
    <component base="grave" xOffset="-100"/>
  </outline>
</glyph>
<glyph name="iacute" format="1">
  <advance width="232"/>
  <unicode hex="00ED"/>
  <outline>
    <contour>
      <point x="52" y="571" type="line"/>
      <point x="52" y="0" type="line"/>
      <point x="180" y="0" type="line"/>
      <point x="180" y="571" type="line"/>
    </contour>
    <component base="acute" xOffset="-26"/>
  </outline>
</glyph>
<glyph name="icircumflex" format="1">
  <advance width="232"/>
  <unicode hex="00EE"/>
  <outline>
    <contour>
      <point x="52" y="571" type="line"/>
      <point x="52" y="0" type="line"/>
      <point x="180" y="0" type="line"/>
      <point x="180" y="571" type="line"/>
    </contour>
    <component base="circumflex" xOffset="-58"/>
  </outline>
</glyph>
<glyph name="eth" format="1">
  <advance width="453"/>
  <unicode hex="00F0"/>
  <outline>
    <contour>
      <point x="112" y="687" type="line"/>
      <point x="196" y="593"/>
      <point x="248" y="507"/>
      <point x="271" y="423" type="curve"/>
      <point x="257" y="440"/>
      <point x="229" y="459"/>
      <point x="191" y="459" type="curve" smooth="yes"/>
      <point x="90" y="459"/>
      <point x="47" y="405"/>
      <point x="47" y="311" type="curve" smooth="yes"/>
      <point x="47" y="155" type="line" smooth="yes"/>
      <point x="47" y="56"/>
      <point x="105" y="-6"/>
      <point x="227" y="-6" type="curve" smooth="yes"/>
      <point x="350" y="-6"/>
      <point x="409" y="57"/>
      <point x="409" y="156" type="curve"/>
      <point x="409" y="309" type="line" smooth="yes"/>
      <point x="409" y="471"/>
      <point x="323" y="613"/>
      <point x="258" y="687" type="curve"/>
    </contour>
    <contour>
      <point x="287" y="348" type="curve"/>
      <point x="287" y="158" type="line"/>
      <point x="287" y="128"/>
      <point x="275" y="104"/>
      <point x="228" y="104" type="curve" smooth="yes"/>
      <point x="181" y="104"/>
      <point x="169" y="130"/>
      <point x="169" y="160" type="curve" smooth="yes"/>
      <point x="169" y="307" type="line" smooth="yes"/>
      <point x="169" y="347"/>
      <point x="185" y="362"/>
      <point x="228" y="362" type="curve"/>
      <point x="258" y="362"/>
      <point x="282" y="353"/>
    </contour>
    <contour>
      <point x="109" y="568" type="line"/>
      <point x="109" y="501" type="line"/>
      <point x="389" y="624" type="line"/>
      <point x="389" y="692" type="line"/>
    </contour>
  </outline>
</glyph>
<glyph name="divide" format="1">
  <advance width="480"/>
  <unicode hex="00F7"/>
  <outline>
    <contour>
      <point x="41" y="383" type="line"/>
      <point x="41" y="274" type="line"/>
      <point x="438" y="274" type="line"/>
      <point x="438" y="383" type="line"/>
    </contour>
    <contour>
      <point x="174" y="157" type="curve" smooth="yes"/>
      <point x="174" y="121"/>
      <point x="189" y="92"/>
      <point x="240" y="92" type="curve" smooth="yes"/>
      <point x="290" y="92"/>
      <point x="305" y="121"/>
      <point x="305" y="157" type="curve" smooth="yes"/>
      <point x="305" y="194"/>
      <point x="290" y="223"/>
      <point x="239" y="223" type="curve" smooth="yes"/>
      <point x="188" y="223"/>
      <point x="174" y="194"/>
    </contour>
    <contour>
      <point x="174" y="500" type="curve" smooth="yes"/>
      <point x="174" y="464"/>
      <point x="188" y="435"/>
      <point x="239" y="435" type="curve" smooth="yes"/>
      <point x="290" y="435"/>
      <point x="305" y="464"/>
      <point x="305" y="500" type="curve" smooth="yes"/>
      <point x="305" y="537"/>
      <point x="290" y="566"/>
      <point x="239" y="566" type="curve" smooth="yes"/>
      <point x="188" y="566"/>
      <point x="174" y="537"/>
    </contour>
  </outline>
</glyph>
<glyph name="oslash" format="1">
  <advance width="448"/>
  <unicode hex="00F8"/>
  <outline>
    <contour>
      <point x="362" y="584" type="line"/>
      <point x="29" y="0" type="line"/>
      <point x="88" y="0" type="line"/>
      <point x="421" y="584" type="line"/>
    </contour>
    <component base="o"/>
  </outline>
</glyph>
<glyph name="thorn" format="1">
  <advance width="461"/>
  <unicode hex="00FE"/>
  <outline>
    <contour>
      <point x="52" y="739" type="line"/>
      <point x="52" y="-162" type="line"/>
      <point x="180" y="-162" type="line"/>
      <point x="180" y="0" type="line"/>
      <point x="265" y="0" type="line" smooth="yes"/>
      <point x="353" y="0"/>
      <point x="417" y="46"/>
      <point x="417" y="148" type="curve" smooth="yes"/>
      <point x="417" y="459" type="line" smooth="yes"/>
      <point x="417" y="546"/>
      <point x="363" y="587"/>
      <point x="289" y="587" type="curve" smooth="yes"/>
      <point x="241" y="587"/>
      <point x="201" y="572"/>
      <point x="179" y="561" type="curve"/>
      <point x="179" y="739" type="line"/>
    </contour>
    <contour>
      <point x="287" y="432" type="curve" smooth="yes"/>
      <point x="287" y="163" type="line" smooth="yes"/>
      <point x="287" y="130"/>
      <point x="268" y="114"/>
      <point x="233" y="114" type="curve" smooth="yes"/>
      <point x="180" y="114" type="line"/>
      <point x="180" y="454" type="line"/>
      <point x="196" y="462"/>
      <point x="220" y="470"/>
      <point x="245" y="470" type="curve" smooth="yes"/>
      <point x="272" y="470"/>
      <point x="287" y="458"/>
    </contour>
  </outline>
</glyph>
<glyph name="dcaron" format="1">
  <advance width="479"/>
  <unicode hex="010F"/>
  <outline>
    <contour>
      <point x="277" y="739" type="line"/>
      <point x="277" y="584" type="line"/>
      <point x="219" y="584" type="line"/>
      <point x="100" y="584"/>
      <point x="42" y="517"/>
      <point x="42" y="413" type="curve"/>
      <point x="42" y="134" type="line" smooth="yes"/>
      <point x="42" y="48"/>
      <point x="86" y="-4"/>
      <point x="174" y="-4" type="curve"/>
      <point x="234" y="-4"/>
      <point x="268" y="25"/>
      <point x="281" y="39" type="curve"/>
      <point x="281" y="0" type="line"/>
      <point x="406" y="0" type="line"/>
      <point x="406" y="739" type="line"/>
    </contour>
    <contour>
      <point x="278" y="131" type="line"/>
      <point x="266" y="121"/>
      <point x="240" y="112"/>
      <point x="213" y="112" type="curve"/>
      <point x="183" y="112"/>
      <point x="170" y="127"/>
      <point x="170" y="155" type="curve" smooth="yes"/>
      <point x="170" y="409" type="line" smooth="yes"/>
      <point x="170" y="451"/>
      <point x="192" y="470"/>
      <point x="231" y="470" type="curve" smooth="yes"/>
      <point x="278" y="470" type="line"/>
    </contour>
    <contour>
      <point x="470" y="739" type="line"/>
      <point x="444" y="593" type="line"/>
      <point x="489" y="593" type="line"/>
      <point x="505" y="616"/>
      <point x="543" y="676"/>
      <point x="543" y="709" type="curve" smooth="yes"/>
      <point x="543" y="728"/>
      <point x="533" y="739"/>
      <point x="511" y="739" type="curve" smooth="yes"/>
    </contour>
  </outline>
</glyph>
<glyph name="Dcroat" format="1">
  <advance width="490"/>
  <unicode hex="0110"/>
  <outline>
    <contour>
      <point x="-3" y="392" type="line"/>
      <point x="-3" y="286" type="line"/>
      <point x="256" y="286" type="line"/>
      <point x="256" y="392" type="line"/>
    </contour>
    <component base="D" xOffset="8"/>
  </outline>
</glyph>
<glyph name="dcroat" format="1">
  <advance width="460"/>
  <unicode hex="0111"/>
  <outline>
    <contour>
      <point x="153" y="692" type="line"/>
      <point x="153" y="633" type="line"/>
      <point x="448" y="633" type="line"/>
      <point x="448" y="692" type="line"/>
    </contour>
    <component base="d" xOffset="2"/>
  </outline>
</glyph>
<glyph name="Gcommaaccent" format="1">
  <advance width="462"/>
  <unicode hex="0122"/>
  <outline>
    <contour>
      <point x="42" y="527" type="curve" smooth="yes"/>
      <point x="42" y="155" type="line" smooth="yes"/>
      <point x="42" y="52"/>
      <point x="112" y="-5"/>
      <point x="249" y="-5" type="curve" smooth="yes"/>
      <point x="341" y="-5"/>
      <point x="387" y="16"/>
      <point x="423" y="36" type="curve"/>
      <point x="423" y="360" type="line"/>
      <point x="299" y="360" type="line"/>
      <point x="299" y="121" type="line"/>
      <point x="291" y="116"/>
      <point x="270" y="109"/>
      <point x="247" y="109" type="curve" smooth="yes"/>
      <point x="190" y="109"/>
      <point x="170" y="130"/>
      <point x="170" y="168" type="curve" smooth="yes"/>
      <point x="170" y="513" type="line" smooth="yes"/>
      <point x="170" y="550"/>
      <point x="197" y="575"/>
      <point x="263" y="575" type="curve" smooth="yes"/>
      <point x="313" y="575"/>
      <point x="363" y="565"/>
      <point x="397" y="553" type="curve"/>
      <point x="397" y="673" type="line"/>
      <point x="369" y="682"/>
      <point x="317" y="692"/>
      <point x="261" y="692" type="curve" smooth="yes"/>
      <point x="114" y="692"/>
      <point x="42" y="626"/>
    </contour>
    <contour>
      <point x="222" y="-61" type="line"/>
      <point x="197" y="-206" type="line"/>
      <point x="241" y="-206" type="line"/>
      <point x="257" y="-184"/>
      <point x="295" y="-124"/>
      <point x="295" y="-91" type="curve" smooth="yes"/>
      <point x="295" y="-72"/>
      <point x="285" y="-61"/>
      <point x="263" y="-61" type="curve" smooth="yes"/>
    </contour>
  </outline>
</glyph>
<glyph name="gcommaaccent" format="1">
  <advance width="453"/>
  <unicode hex="0123"/>
  <outline>
    <contour>
      <point x="76" y="141" type="curve" smooth="yes"/>
      <point x="76" y="125" type="line" smooth="yes"/>
      <point x="76" y="64"/>
      <point x="125" y="37"/>
      <point x="214" y="37" type="curve" smooth="yes"/>
      <point x="275" y="37" type="line" smooth="yes"/>
      <point x="312" y="37"/>
      <point x="321" y="26"/>
      <point x="321" y="6" type="curve" smooth="yes"/>
      <point x="321" y="-1" type="line" smooth="yes"/>
      <point x="321" y="-27"/>
      <point x="299" y="-42"/>
      <point x="222" y="-42" type="curve" smooth="yes"/>
      <point x="196" y="-42" type="line" smooth="yes"/>
      <point x="121" y="-42"/>
      <point x="57" y="-18"/>
      <point x="22" y="8" type="curve"/>
      <point x="22" y="-109" type="line"/>
      <point x="50" y="-129"/>
      <point x="112" y="-150"/>
      <point x="199" y="-150" type="curve" smooth="yes"/>
      <point x="237" y="-150" type="line" smooth="yes"/>
      <point x="378" y="-150"/>
      <point x="440" y="-93"/>
      <point x="440" y="-3" type="curve" smooth="yes"/>
      <point x="440" y="18" type="line" smooth="yes"/>
      <point x="440" y="103"/>
      <point x="392" y="141"/>
      <point x="292" y="141" type="curve" smooth="yes"/>
      <point x="236" y="141" type="line" smooth="yes"/>
      <point x="201" y="141"/>
      <point x="189" y="149"/>
      <point x="189" y="170" type="curve" smooth="yes"/>
      <point x="189" y="189"/>
      <point x="199" y="201"/>
      <point x="224" y="201" type="curve"/>
      <point x="206" y="207"/>
      <point x="173" y="214"/>
      <point x="151" y="214" type="curve"/>
      <point x="102" y="215"/>
      <point x="76" y="183"/>
    </contour>
    <contour>
      <point x="29" y="440" type="curve" smooth="yes"/>
      <point x="29" y="356" type="line" smooth="yes"/>
      <point x="29" y="261"/>
      <point x="87" y="201"/>
      <point x="216" y="201" type="curve" smooth="yes"/>
      <point x="344" y="201"/>
      <point x="403" y="261"/>
      <point x="403" y="356" type="curve" smooth="yes"/>
      <point x="403" y="440" type="line" smooth="yes"/>
      <point x="403" y="535"/>
      <point x="344" y="594"/>
      <point x="216" y="594" type="curve" smooth="yes"/>
      <point x="87" y="594"/>
      <point x="29" y="535"/>
    </contour>
    <contour>
      <point x="276" y="439" type="curve" smooth="yes"/>
      <point x="276" y="357" type="line" smooth="yes"/>
      <point x="276" y="322"/>
      <point x="259" y="304"/>
      <point x="216" y="304" type="curve" smooth="yes"/>
      <point x="173" y="304"/>
      <point x="156" y="322"/>
      <point x="156" y="357" type="curve" smooth="yes"/>
      <point x="156" y="439" type="line" smooth="yes"/>
      <point x="156" y="474"/>
      <point x="173" y="492"/>
      <point x="216" y="492" type="curve" smooth="yes"/>
      <point x="259" y="492"/>
      <point x="276" y="474"/>
    </contour>
    <contour>
      <point x="428" y="645" type="line"/>
      <point x="367" y="645"/>
      <point x="326" y="610"/>
      <point x="319" y="543" type="curve"/>
      <point x="352" y="512" type="line"/>
      <point x="365" y="523"/>
      <point x="385" y="530"/>
      <point x="409" y="530" type="curve" smooth="yes"/>
      <point x="444" y="530" type="line"/>
      <point x="444" y="645" type="line"/>
    </contour>
    <contour>
      <point x="248" y="626" type="line"/>
      <point x="274" y="772" type="line"/>
      <point x="230" y="772" type="line"/>
      <point x="213" y="750"/>
      <point x="175" y="690"/>
      <point x="175" y="657" type="curve" smooth="yes"/>
      <point x="175" y="637"/>
      <point x="185" y="626"/>
      <point x="208" y="626" type="curve" smooth="yes"/>
    </contour>
  </outline>
</glyph>
<glyph name="imacron" format="1">
  <advance width="232"/>
  <unicode hex="012B"/>
  <outline>
    <contour>
      <point x="52" y="571" type="line"/>
      <point x="52" y="0" type="line"/>
      <point x="180" y="0" type="line"/>
      <point x="180" y="571" type="line"/>
    </contour>
    <component base="macron" xOffset="-59"/>
  </outline>
</glyph>
<glyph name="Kcommaaccent" format="1">
  <advance width="471"/>
  <unicode hex="0136"/>
  <outline>
    <contour>
      <point x="315" y="687" type="line"/>
      <point x="187" y="350" type="line"/>
      <point x="321" y="0" type="line"/>
      <point x="462" y="0" type="line"/>
      <point x="320" y="352" type="line"/>
      <point x="451" y="687" type="line"/>
    </contour>
    <contour>
      <point x="52" y="687" type="line"/>
      <point x="52" y="0" type="line"/>
      <point x="179" y="0" type="line"/>
      <point x="179" y="687" type="line"/>
    </contour>
    <contour>
      <point x="218" y="-61" type="line"/>
      <point x="192" y="-206" type="line"/>
      <point x="236" y="-206" type="line"/>
      <point x="253" y="-184"/>
      <point x="291" y="-124"/>
      <point x="291" y="-91" type="curve" smooth="yes"/>
      <point x="291" y="-72"/>
      <point x="281" y="-61"/>
      <point x="258" y="-61" type="curve" smooth="yes"/>
    </contour>
  </outline>
</glyph>
<glyph name="kcommaaccent" format="1">
  <advance width="425"/>
  <unicode hex="0137"/>
  <outline>
    <contour>
      <point x="275" y="584" type="line"/>
      <point x="181" y="312" type="line"/>
      <point x="282" y="0" type="line"/>
      <point x="416" y="0" type="line"/>
      <point x="306" y="306" type="line"/>
      <point x="403" y="584" type="line"/>
    </contour>
    <contour>
      <point x="52" y="739" type="line"/>
      <point x="52" y="0" type="line"/>
      <point x="176" y="0" type="line"/>
      <point x="176" y="739" type="line"/>
    </contour>
    <contour>
      <point x="185" y="-61" type="line"/>
      <point x="159" y="-206" type="line"/>
      <point x="204" y="-206" type="line"/>
      <point x="220" y="-184"/>
      <point x="258" y="-124"/>
      <point x="258" y="-91" type="curve" smooth="yes"/>
      <point x="258" y="-72"/>
      <point x="248" y="-61"/>
      <point x="226" y="-61" type="curve" smooth="yes"/>
    </contour>
  </outline>
</glyph>
<glyph name="Lcommaaccent" format="1">
  <advance width="376"/>
  <unicode hex="013B"/>
  <outline>
    <contour>
      <point x="52" y="687" type="line"/>
      <point x="52" y="0" type="line"/>
      <point x="371" y="0" type="line"/>
      <point x="371" y="107" type="line"/>
      <point x="180" y="107" type="line"/>
      <point x="180" y="687" type="line"/>
    </contour>
    <contour>
      <point x="171" y="-61" type="line"/>
      <point x="145" y="-206" type="line"/>
      <point x="189" y="-206" type="line"/>
      <point x="206" y="-184"/>
      <point x="244" y="-124"/>
      <point x="244" y="-91" type="curve" smooth="yes"/>
      <point x="244" y="-72"/>
      <point x="234" y="-61"/>
      <point x="211" y="-61" type="curve" smooth="yes"/>
    </contour>
  </outline>
</glyph>
<glyph name="lcommaaccent" format="1">
  <advance width="232"/>
  <unicode hex="013C"/>
  <outline>
    <contour>
      <point x="52" y="739" type="line"/>
      <point x="52" y="0" type="line"/>
      <point x="180" y="0" type="line"/>
      <point x="180" y="739" type="line"/>
    </contour>
    <contour>
      <point x="81" y="-61" type="line"/>
      <point x="56" y="-206" type="line"/>
      <point x="100" y="-206" type="line"/>
      <point x="117" y="-184"/>
      <point x="155" y="-124"/>
      <point x="155" y="-91" type="curve" smooth="yes"/>
      <point x="155" y="-72"/>
      <point x="144" y="-61"/>
      <point x="122" y="-61" type="curve" smooth="yes"/>
    </contour>
  </outline>
</glyph>
<glyph name="Lcaron" format="1">
  <advance width="376"/>
  <unicode hex="013D"/>
  <outline>
    <contour>
      <point x="243" y="739" type="line"/>
      <point x="217" y="593" type="line"/>
      <point x="261" y="593" type="line"/>
      <point x="278" y="616"/>
      <point x="316" y="676"/>
      <point x="316" y="709" type="curve" smooth="yes"/>
      <point x="316" y="728"/>
      <point x="305" y="739"/>
      <point x="283" y="739" type="curve" smooth="yes"/>
    </contour>
    <component base="L"/>
  </outline>
</glyph>
<glyph name="lcaron" format="1">
  <advance width="232"/>
  <unicode hex="013E"/>
  <outline>
    <contour>
      <point x="52" y="739" type="line"/>
      <point x="52" y="0" type="line"/>
      <point x="180" y="0" type="line"/>
      <point x="180" y="739" type="line"/>
    </contour>
    <contour>
      <point x="243" y="739" type="line"/>
      <point x="217" y="593" type="line"/>
      <point x="261" y="593" type="line"/>
      <point x="278" y="616"/>
      <point x="316" y="676"/>
      <point x="316" y="709" type="curve" smooth="yes"/>
      <point x="316" y="728"/>
      <point x="305" y="739"/>
      <point x="283" y="739" type="curve" smooth="yes"/>
    </contour>
  </outline>
</glyph>
<glyph name="Lslash" format="1">
  <advance width="378"/>
  <unicode hex="0141"/>
  <outline>
    <contour>
      <point x="5" y="331" type="line"/>
      <point x="5" y="244" type="line"/>
      <point x="277" y="362" type="line"/>
      <point x="277" y="450" type="line"/>
    </contour>
    <component base="L" xOffset="8"/>
  </outline>
</glyph>
<glyph name="lslash" format="1">
  <advance width="235"/>
  <unicode hex="0142"/>
  <outline>
    <contour>
      <point x="5" y="469" type="line"/>
      <point x="5" y="381" type="line"/>
      <point x="229" y="480" type="line"/>
      <point x="229" y="567" type="line"/>
    </contour>
    <component base="l" xOffset="2"/>
  </outline>
</glyph>
<glyph name="Ncommaaccent" format="1">
  <advance width="523"/>
  <unicode hex="0145"/>
  <outline>
    <contour>
      <point x="345" y="687" type="line"/>
      <point x="345" y="465" type="line"/>
      <point x="345" y="294"/>
      <point x="365" y="210"/>
      <point x="365" y="194" type="curve"/>
      <point x="359" y="210"/>
      <point x="338" y="285"/>
      <point x="285" y="421" type="curve"/>
      <point x="181" y="687" type="line"/>
      <point x="52" y="687" type="line"/>
      <point x="52" y="0" type="line"/>
      <point x="177" y="0" type="line"/>
      <point x="177" y="229" type="line"/>
      <point x="177" y="400"/>
      <point x="158" y="481"/>
      <point x="157" y="497" type="curve"/>
      <point x="163" y="481"/>
      <point x="186" y="406"/>
      <point x="239" y="270" type="curve"/>
      <point x="345" y="0" type="line"/>
      <point x="471" y="0" type="line"/>
      <point x="471" y="687" type="line"/>
    </contour>
    <contour>
      <point x="221" y="-61" type="line"/>
      <point x="196" y="-206" type="line"/>
      <point x="240" y="-206" type="line"/>
      <point x="256" y="-184"/>
      <point x="294" y="-124"/>
      <point x="294" y="-91" type="curve" smooth="yes"/>
      <point x="294" y="-72"/>
      <point x="284" y="-61"/>
      <point x="262" y="-61" type="curve" smooth="yes"/>
    </contour>
  </outline>
</glyph>
<glyph name="ncommaaccent" format="1">
  <advance width="460"/>
  <unicode hex="0146"/>
  <outline>
    <contour>
      <point x="173" y="558" type="curve"/>
      <point x="173" y="584" type="line"/>
      <point x="52" y="584" type="line"/>
      <point x="52" y="0" type="line"/>
      <point x="180" y="0" type="line"/>
      <point x="180" y="452" type="line"/>
      <point x="196" y="461"/>
      <point x="218" y="469"/>
      <point x="244" y="469" type="curve"/>
      <point x="270" y="469"/>
      <point x="283" y="457"/>
      <point x="283" y="430" type="curve" smooth="yes"/>
      <point x="283" y="0" type="line"/>
      <point x="413" y="0" type="line"/>
      <point x="413" y="459" type="line" smooth="yes"/>
      <point x="413" y="546"/>
      <point x="359" y="587"/>
      <point x="285" y="587" type="curve"/>
      <point x="237" y="587"/>
      <point x="194" y="569"/>
    </contour>
    <contour>
      <point x="196" y="-61" type="line"/>
      <point x="170" y="-206" type="line"/>
      <point x="214" y="-206" type="line"/>
      <point x="231" y="-184"/>
      <point x="269" y="-124"/>
      <point x="269" y="-91" type="curve" smooth="yes"/>
      <point x="269" y="-72"/>
      <point x="259" y="-61"/>
      <point x="236" y="-61" type="curve" smooth="yes"/>
    </contour>
  </outline>
</glyph>
<glyph name="OE" format="1">
  <advance width="700"/>
  <unicode hex="0152"/>
  <outline>
    <contour>
      <point x="229" y="687" type="line"/>
      <point x="122" y="687"/>
      <point x="62" y="633"/>
      <point x="62" y="534" type="curve" smooth="yes"/>
      <point x="62" y="160" type="line" smooth="yes"/>
      <point x="62" y="62"/>
      <point x="109" y="0"/>
      <point x="222" y="0" type="curve" smooth="yes"/>
      <point x="377" y="0" type="line"/>
      <point x="377" y="110" type="line"/>
      <point x="246" y="110" type="line" smooth="yes"/>
      <point x="200" y="110"/>
      <point x="189" y="136"/>
      <point x="189" y="169" type="curve" smooth="yes"/>
      <point x="189" y="529" type="line" smooth="yes"/>
      <point x="189" y="559"/>
      <point x="200" y="582"/>
      <point x="246" y="582" type="curve" smooth="yes"/>
      <point x="387" y="582" type="line"/>
      <point x="387" y="687" type="line"/>
    </contour>
    <component base="E" xOffset="286"/>
  </outline>
</glyph>
<glyph name="oe" format="1">
  <advance width="688"/>
  <unicode hex="0153"/>
  <outline>
    <contour>
      <point x="44" y="435" type="curve" smooth="yes"/>
      <point x="44" y="149" type="line" smooth="yes"/>
      <point x="44" y="54"/>
      <point x="100" y="-10"/>
      <point x="226" y="-10" type="curve" smooth="yes"/>
      <point x="352" y="-10"/>
      <point x="408" y="54"/>
      <point x="408" y="149" type="curve" smooth="yes"/>
      <point x="408" y="435" type="line" smooth="yes"/>
      <point x="408" y="530"/>
      <point x="352" y="594"/>
      <point x="226" y="594" type="curve" smooth="yes"/>
      <point x="100" y="594"/>
      <point x="44" y="530"/>
    </contour>
    <contour>
      <point x="283" y="431" type="curve" smooth="yes"/>
      <point x="283" y="153" type="line" smooth="yes"/>
      <point x="283" y="121"/>
      <point x="265" y="99"/>
      <point x="226" y="99" type="curve" smooth="yes"/>
      <point x="187" y="99"/>
      <point x="170" y="121"/>
      <point x="170" y="153" type="curve" smooth="yes"/>
      <point x="170" y="431" type="line" smooth="yes"/>
      <point x="170" y="463"/>
      <point x="187" y="485"/>
      <point x="226" y="485" type="curve" smooth="yes"/>
      <point x="265" y="485"/>
      <point x="283" y="463"/>
    </contour>
    <component base="e" xOffset="243"/>
  </outline>
</glyph>
<glyph name="rcommaaccent" format="1">
  <advance width="311"/>
  <unicode hex="0157"/>
  <outline>
    <contour>
      <point x="286" y="587" type="line"/>
      <point x="239" y="587"/>
      <point x="216" y="571"/>
      <point x="173" y="543" type="curve"/>
      <point x="173" y="584" type="line"/>
      <point x="52" y="584" type="line"/>
      <point x="52" y="0" type="line"/>
      <point x="180" y="0" type="line"/>
      <point x="180" y="441" type="line"/>
      <point x="207" y="457"/>
      <point x="238" y="468"/>
      <point x="280" y="468" type="curve"/>
      <point x="306" y="468" type="line"/>
      <point x="306" y="587" type="line"/>
    </contour>
    <contour>
      <point x="81" y="-61" type="line"/>
      <point x="56" y="-206" type="line"/>
      <point x="100" y="-206" type="line"/>
      <point x="117" y="-184"/>
      <point x="155" y="-124"/>
      <point x="155" y="-91" type="curve" smooth="yes"/>
      <point x="155" y="-72"/>
      <point x="144" y="-61"/>
      <point x="122" y="-61" type="curve" smooth="yes"/>
    </contour>
  </outline>
</glyph>
<glyph name="Scedilla" format="1">
  <advance width="424"/>
  <unicode hex="015E"/>
  <outline>
    <contour>
      <point x="22" y="532" type="curve" smooth="yes"/>
      <point x="22" y="471" type="line" smooth="yes"/>
      <point x="22" y="397"/>
      <point x="60" y="354"/>
      <point x="116" y="322" type="curve" smooth="yes"/>
      <point x="226" y="263" type="line"/>
      <point x="262" y="243"/>
      <point x="274" y="229"/>
      <point x="274" y="195" type="curve" smooth="yes"/>
      <point x="274" y="172" type="line" smooth="yes"/>
      <point x="274" y="138"/>
      <point x="247" y="113"/>
      <point x="178" y="113" type="curve" smooth="yes"/>
      <point x="120" y="113"/>
      <point x="64" y="126"/>
      <point x="30" y="140" type="curve"/>
      <point x="30" y="17" type="line"/>
      <point x="51" y="9"/>
      <point x="110" y="-5"/>
      <point x="179" y="-5" type="curve" smooth="yes"/>
      <point x="329" y="-5"/>
      <point x="402" y="55"/>
      <point x="402" y="156" type="curve" smooth="yes"/>
      <point x="402" y="216" type="line"/>
      <point x="402" y="282"/>
      <point x="374" y="321"/>
      <point x="320" y="350" type="curve" smooth="yes"/>
      <point x="206" y="415" type="line" smooth="yes"/>
      <point x="164" y="438"/>
      <point x="152" y="453"/>
      <point x="152" y="493" type="curve" smooth="yes"/>
      <point x="152" y="517" type="line" smooth="yes"/>
      <point x="152" y="551"/>
      <point x="169" y="574"/>
      <point x="231" y="574" type="curve" smooth="yes"/>
      <point x="289" y="574"/>
      <point x="333" y="564"/>
      <point x="366" y="550" type="curve"/>
      <point x="366" y="672" type="line"/>
      <point x="345" y="680"/>
      <point x="297" y="692"/>
      <point x="228" y="692" type="curve" smooth="yes"/>
      <point x="86" y="692"/>
      <point x="22" y="631"/>
    </contour>
    <contour>
      <point x="168" y="-61" type="line"/>
      <point x="143" y="-206" type="line"/>
      <point x="187" y="-206" type="line"/>
      <point x="204" y="-184"/>
      <point x="242" y="-124"/>
      <point x="242" y="-91" type="curve" smooth="yes"/>
      <point x="242" y="-72"/>
      <point x="231" y="-61"/>
      <point x="209" y="-61" type="curve" smooth="yes"/>
    </contour>
  </outline>
</glyph>
<glyph name="Tcedilla" format="1">
  <advance width="394"/>
  <unicode hex="0162"/>
  <outline>
    <contour>
      <point x="133" y="687" type="line"/>
      <point x="133" y="0" type="line"/>
      <point x="261" y="0" type="line"/>
      <point x="261" y="687" type="line"/>
    </contour>
    <contour>
      <point x="6" y="687" type="line"/>
      <point x="6" y="576" type="line"/>
      <point x="388" y="576" type="line"/>
      <point x="388" y="687" type="line"/>
    </contour>
    <contour>
      <point x="164" y="-61" type="line"/>
      <point x="138" y="-206" type="line"/>
      <point x="183" y="-206" type="line"/>
      <point x="199" y="-184"/>
      <point x="237" y="-124"/>
      <point x="237" y="-91" type="curve" smooth="yes"/>
      <point x="237" y="-72"/>
      <point x="227" y="-61"/>
      <point x="205" y="-61" type="curve" smooth="yes"/>
    </contour>
  </outline>
</glyph>
<glyph name="tcedilla" format="1">
  <advance width="311"/>
  <unicode hex="0163"/>
  <outline>
    <contour>
      <point x="105" y="686" type="line"/>
      <point x="66" y="584" type="line"/>
      <point x="5" y="584" type="line"/>
      <point x="5" y="476" type="line"/>
      <point x="61" y="476" type="line"/>
      <point x="61" y="140" type="line" smooth="yes"/>
      <point x="61" y="49"/>
      <point x="100" y="-8"/>
      <point x="211" y="-8" type="curve" smooth="yes"/>
      <point x="259" y="-8"/>
      <point x="293" y="6"/>
      <point x="296" y="7" type="curve"/>
      <point x="296" y="121" type="line"/>
      <point x="293" y="120"/>
      <point x="269" y="107"/>
      <point x="236" y="107" type="curve" smooth="yes"/>
      <point x="203" y="107"/>
      <point x="189" y="123"/>
      <point x="189" y="152" type="curve" smooth="yes"/>
      <point x="189" y="476" type="line"/>
      <point x="289" y="476" type="line"/>
      <point x="289" y="584" type="line"/>
      <point x="189" y="584" type="line"/>
      <point x="189" y="686" type="line"/>
    </contour>
    <contour>
      <point x="151" y="-61" type="line"/>
      <point x="126" y="-206" type="line"/>
      <point x="170" y="-206" type="line"/>
      <point x="187" y="-184"/>
      <point x="225" y="-124"/>
      <point x="225" y="-91" type="curve" smooth="yes"/>
      <point x="225" y="-72"/>
      <point x="214" y="-61"/>
      <point x="192" y="-61" type="curve" smooth="yes"/>
    </contour>
  </outline>
</glyph>
<glyph name="florin" format="1">
  <advance width="368"/>
  <unicode hex="0192"/>
  <outline>
    <contour>
      <point x="157" y="580" type="curve" smooth="yes"/>
      <point x="96" y="154" type="line" smooth="yes"/>
      <point x="91" y="116"/>
      <point x="78" y="98"/>
      <point x="39" y="98" type="curve" smooth="yes"/>
      <point x="30" y="98"/>
      <point x="19" y="99"/>
      <point x="11" y="100" type="curve"/>
      <point x="11" y="0" type="line"/>
      <point x="27" y="-2"/>
      <point x="44" y="-4"/>
      <point x="58" y="-4" type="curve" smooth="yes"/>
      <point x="174" y="-4"/>
      <point x="211" y="58"/>
      <point x="225" y="155" type="curve" smooth="yes"/>
      <point x="285" y="582" type="line" smooth="yes"/>
      <point x="291" y="620"/>
      <point x="303" y="638"/>
      <point x="343" y="638" type="curve" smooth="yes"/>
      <point x="352" y="638"/>
      <point x="363" y="637"/>
      <point x="371" y="636" type="curve"/>
      <point x="371" y="736" type="line"/>
      <point x="355" y="738"/>
      <point x="338" y="740"/>
      <point x="323" y="740" type="curve" smooth="yes"/>
      <point x="208" y="740"/>
      <point x="170" y="678"/>
    </contour>
    <contour>
      <point x="55" y="518" type="line"/>
      <point x="55" y="416" type="line"/>
      <point x="339" y="416" type="line"/>
      <point x="339" y="518" type="line"/>
    </contour>
  </outline>
</glyph>
<glyph name="scommaaccent" format="1">
  <advance width="380"/>
  <unicode hex="0219"/>
  <outline>
    <contour>
      <point x="24" y="434" type="curve" smooth="yes"/>
      <point x="24" y="406" type="line" smooth="yes"/>
      <point x="24" y="340"/>
      <point x="55" y="305"/>
      <point x="99" y="278" type="curve" smooth="yes"/>
      <point x="172" y="235" type="line" smooth="yes"/>
      <point x="219" y="206"/>
      <point x="231" y="196"/>
      <point x="231" y="170" type="curve" smooth="yes"/>
      <point x="231" y="158" type="line" smooth="yes"/>
      <point x="231" y="128"/>
      <point x="213" y="109"/>
      <point x="133" y="109" type="curve" smooth="yes"/>
      <point x="89" y="109"/>
      <point x="46" y="117"/>
      <point x="23" y="124" type="curve"/>
      <point x="23" y="9" type="line"/>
      <point x="55" y="1"/>
      <point x="90" y="-5"/>
      <point x="150" y="-5" type="curve" smooth="yes"/>
      <point x="291" y="-5"/>
      <point x="358" y="50"/>
      <point x="358" y="153" type="curve" smooth="yes"/>
      <point x="358" y="179" type="line"/>
      <point x="358" y="242"/>
      <point x="324" y="277"/>
      <point x="276" y="307" type="curve" smooth="yes"/>
      <point x="193" y="357" type="line" smooth="yes"/>
      <point x="157" y="379"/>
      <point x="148" y="389"/>
      <point x="148" y="413" type="curve" smooth="yes"/>
      <point x="148" y="427" type="line" smooth="yes"/>
      <point x="148" y="458"/>
      <point x="161" y="476"/>
      <point x="228" y="476" type="curve" smooth="yes"/>
      <point x="270" y="476"/>
      <point x="319" y="466"/>
      <point x="338" y="460" type="curve"/>
      <point x="338" y="573" type="line"/>
      <point x="309" y="582"/>
      <point x="260" y="589"/>
      <point x="219" y="589" type="curve" smooth="yes"/>
      <point x="77" y="589"/>
      <point x="24" y="534"/>
    </contour>
    <contour>
      <point x="161" y="-61" type="line"/>
      <point x="136" y="-206" type="line"/>
      <point x="180" y="-206" type="line"/>
      <point x="197" y="-184"/>
      <point x="234" y="-124"/>
      <point x="234" y="-91" type="curve" smooth="yes"/>
      <point x="234" y="-72"/>
      <point x="224" y="-61"/>
      <point x="202" y="-61" type="curve" smooth="yes"/>
    </contour>
  </outline>
</glyph>
<glyph name="Tcommaaccent" format="1">
  <advance width="394"/>
  <unicode hex="021A"/>
  <outline>
    <contour>
      <point x="133" y="687" type="line"/>
      <point x="133" y="0" type="line"/>
      <point x="261" y="0" type="line"/>
      <point x="261" y="687" type="line"/>
    </contour>
    <contour>
      <point x="6" y="687" type="line"/>
      <point x="6" y="576" type="line"/>
      <point x="388" y="576" type="line"/>
      <point x="388" y="687" type="line"/>
    </contour>
    <contour>
      <point x="163" y="-61" type="line"/>
      <point x="137" y="-206" type="line"/>
      <point x="181" y="-206" type="line"/>
      <point x="198" y="-184"/>
      <point x="236" y="-124"/>
      <point x="236" y="-91" type="curve" smooth="yes"/>
      <point x="236" y="-72"/>
      <point x="226" y="-61"/>
      <point x="204" y="-61" type="curve" smooth="yes"/>
    </contour>
  </outline>
</glyph>
<glyph name="tcommaaccent" format="1">
  <advance width="311"/>
  <unicode hex="021B"/>
  <outline>
    <contour>
      <point x="105" y="686" type="line"/>
      <point x="66" y="584" type="line"/>
      <point x="5" y="584" type="line"/>
      <point x="5" y="476" type="line"/>
      <point x="61" y="476" type="line"/>
      <point x="61" y="140" type="line" smooth="yes"/>
      <point x="61" y="49"/>
      <point x="100" y="-8"/>
      <point x="211" y="-8" type="curve" smooth="yes"/>
      <point x="259" y="-8"/>
      <point x="293" y="6"/>
      <point x="296" y="7" type="curve"/>
      <point x="296" y="121" type="line"/>
      <point x="293" y="120"/>
      <point x="269" y="107"/>
      <point x="236" y="107" type="curve" smooth="yes"/>
      <point x="203" y="107"/>
      <point x="189" y="123"/>
      <point x="189" y="152" type="curve" smooth="yes"/>
      <point x="189" y="476" type="line"/>
      <point x="289" y="476" type="line"/>
      <point x="289" y="584" type="line"/>
      <point x="189" y="584" type="line"/>
      <point x="189" y="686" type="line"/>
    </contour>
    <contour>
      <point x="152" y="-61" type="line"/>
      <point x="127" y="-206" type="line"/>
      <point x="171" y="-206" type="line"/>
      <point x="187" y="-184"/>
      <point x="225" y="-124"/>
      <point x="225" y="-91" type="curve" smooth="yes"/>
      <point x="225" y="-72"/>
      <point x="215" y="-61"/>
      <point x="193" y="-61" type="curve" smooth="yes"/>
    </contour>
  </outline>
</glyph>
<glyph name="circumflex" format="1">
  <advance width="350"/>
  <unicode hex="02C6"/>
  <outline>
    <contour>
      <point x="134" y="739" type="line"/>
      <point x="214" y="626" type="line"/>
      <point x="278" y="626" type="line"/>
      <point x="221" y="739" type="line"/>
    </contour>
    <contour>
      <point x="128" y="739" type="line"/>
      <point x="71" y="626" type="line"/>
      <point x="135" y="626" type="line"/>
      <point x="215" y="739" type="line"/>
    </contour>
  </outline>
</glyph>
<glyph name="caron" format="1">
  <advance width="350"/>
  <unicode hex="02C7"/>
  <outline>
    <contour>
      <point x="214" y="739" type="line"/>
      <point x="134" y="626" type="line"/>
      <point x="221" y="626" type="line"/>
      <point x="278" y="739" type="line"/>
    </contour>
    <contour>
      <point x="71" y="739" type="line"/>
      <point x="128" y="626" type="line"/>
      <point x="215" y="626" type="line"/>
      <point x="135" y="739" type="line"/>
    </contour>
  </outline>
</glyph>
<glyph name="macronmod" format="1">
  <advance width="350"/>
  <unicode hex="02C9"/>
  <outline>
    <contour>
      <point x="48" y="717" type="line"/>
      <point x="48" y="649" type="line"/>
      <point x="302" y="649" type="line"/>
      <point x="302" y="717" type="line"/>
    </contour>
  </outline>
</glyph>
<glyph name="breve" format="1">
  <advance width="350"/>
  <unicode hex="02D8"/>
  <outline>
    <contour>
      <point x="223" y="739" type="line"/>
      <point x="223" y="709"/>
      <point x="206" y="688"/>
      <point x="175" y="688" type="curve" smooth="yes"/>
      <point x="144" y="688"/>
      <point x="127" y="709"/>
      <point x="127" y="739" type="curve"/>
      <point x="58" y="739" type="line"/>
      <point x="58" y="673"/>
      <point x="106" y="626"/>
      <point x="175" y="626" type="curve" smooth="yes"/>
      <point x="243" y="626"/>
      <point x="292" y="672"/>
      <point x="292" y="739" type="curve"/>
    </contour>
  </outline>
</glyph>
<glyph name="dotaccent" format="1">
  <advance width="350"/>
  <unicode hex="02D9"/>
  <outline>
    <contour>
      <point x="122" y="689" type="curve" smooth="yes"/>
      <point x="122" y="660"/>
      <point x="134" y="640"/>
      <point x="175" y="640" type="curve" smooth="yes"/>
      <point x="214" y="640"/>
      <point x="227" y="660"/>
      <point x="227" y="689" type="curve" smooth="yes"/>
      <point x="227" y="719"/>
      <point x="214" y="739"/>
      <point x="175" y="739" type="curve" smooth="yes"/>
      <point x="134" y="739"/>
      <point x="122" y="719"/>
    </contour>
  </outline>
</glyph>
<glyph name="ring" format="1">
  <advance width="350"/>
  <unicode hex="02DA"/>
  <outline>
    <contour>
      <point x="96" y="683" type="curve" smooth="yes"/>
      <point x="96" y="640"/>
      <point x="124" y="605"/>
      <point x="175" y="605" type="curve" smooth="yes"/>
      <point x="227" y="605"/>
      <point x="254" y="640"/>
      <point x="254" y="683" type="curve" smooth="yes"/>
      <point x="254" y="725"/>
      <point x="227" y="759"/>
      <point x="175" y="759" type="curve" smooth="yes"/>
      <point x="124" y="759"/>
      <point x="96" y="725"/>
    </contour>
    <contour>
      <point x="205" y="683" type="curve" smooth="yes"/>
      <point x="205" y="663"/>
      <point x="193" y="651"/>
      <point x="175" y="651" type="curve" smooth="yes"/>
      <point x="157" y="651"/>
      <point x="145" y="663"/>
      <point x="145" y="683" type="curve" smooth="yes"/>
      <point x="145" y="700"/>
      <point x="157" y="713"/>
      <point x="175" y="713" type="curve" smooth="yes"/>
      <point x="193" y="713"/>
      <point x="205" y="700"/>
    </contour>
  </outline>
</glyph>
<glyph name="ogonek" format="1">
  <advance width="350"/>
  <unicode hex="02DB"/>
  <outline>
    <contour>
      <point x="184" y="0" type="line"/>
      <point x="148" y="-30"/>
      <point x="120" y="-72"/>
      <point x="120" y="-117" type="curve" smooth="yes"/>
      <point x="120" y="-165"/>
      <point x="152" y="-193"/>
      <point x="211" y="-193" type="curve" smooth="yes"/>
      <point x="232" y="-193" type="line"/>
      <point x="232" y="-130" type="line"/>
      <point x="221" y="-130" type="line" smooth="yes"/>
      <point x="200" y="-130"/>
      <point x="190" y="-120"/>
      <point x="190" y="-94" type="curve" smooth="yes"/>
      <point x="190" y="-58"/>
      <point x="208" y="-23"/>
      <point x="232" y="0" type="curve"/>
    </contour>
  </outline>
</glyph>
<glyph name="tilde" format="1">
  <advance width="350"/>
  <unicode hex="02DC"/>
  <outline>
    <contour>
      <point x="244" y="735" type="line"/>
      <point x="244" y="729" type="line" smooth="yes"/>
      <point x="244" y="705"/>
      <point x="239" y="694"/>
      <point x="222" y="694" type="curve" smooth="yes"/>
      <point x="197" y="694"/>
      <point x="168" y="733"/>
      <point x="117" y="733" type="curve" smooth="yes"/>
      <point x="61" y="733"/>
      <point x="35" y="693"/>
      <point x="35" y="635" type="curve" smooth="yes"/>
      <point x="35" y="630" type="line"/>
      <point x="105" y="630" type="line"/>
      <point x="105" y="635" type="line" smooth="yes"/>
      <point x="105" y="659"/>
      <point x="111" y="670"/>
      <point x="127" y="670" type="curve" smooth="yes"/>
      <point x="153" y="670"/>
      <point x="184" y="631"/>
      <point x="232" y="631" type="curve" smooth="yes"/>
      <point x="287" y="631"/>
      <point x="314" y="669"/>
      <point x="314" y="727" type="curve" smooth="yes"/>
      <point x="314" y="735" type="line"/>
    </contour>
  </outline>
</glyph>
<glyph name="hungarumlaut" format="1">
  <advance width="350"/>
  <unicode hex="02DD"/>
  <outline>
    <contour>
      <point x="208" y="739" type="line"/>
      <point x="162" y="626" type="line"/>
      <point x="223" y="626" type="line"/>
      <point x="297" y="739" type="line"/>
    </contour>
    <contour>
      <point x="98" y="739" type="line"/>
      <point x="52" y="626" type="line"/>
      <point x="113" y="626" type="line"/>
      <point x="187" y="739" type="line"/>
    </contour>
  </outline>
</glyph>
<glyph name="pi" format="1">
  <advance width="460"/>
  <unicode hex="03C0"/>
  <outline>
    <contour>
      <point x="52" y="584" type="line"/>
      <point x="52" y="0" type="line"/>
      <point x="180" y="0" type="line"/>
      <point x="180" y="476" type="line"/>
      <point x="283" y="476" type="line"/>
      <point x="283" y="0" type="line"/>
      <point x="413" y="0" type="line"/>
      <point x="413" y="476" type="line"/>
      <point x="475" y="476" type="line"/>
      <point x="475" y="584" type="line"/>
    </contour>
  </outline>
</glyph>
<glyph name="dvCandrabindu" format="1">
  <advance width="0"/>
  <unicode hex="0901"/>
  <outline>
    <contour>
      <point x="-51" y="665" type="move" name="_abvm.bindu"/>
    </contour>
    <contour>
      <point x="-171" y="949" type="curve" smooth="yes"/>
      <point x="-171" y="914"/>
      <point x="-158" y="888"/>
      <point x="-109" y="888" type="curve" smooth="yes"/>
      <point x="-61" y="888"/>
      <point x="-48" y="914"/>
      <point x="-48" y="949" type="curve" smooth="yes"/>
      <point x="-48" y="984"/>
      <point x="-61" y="1011"/>
      <point x="-109" y="1011" type="curve" smooth="yes"/>
      <point x="-158" y="1011"/>
      <point x="-171" y="984"/>
    </contour>
    <contour>
      <point x="-31" y="886" type="line"/>
      <point x="-31" y="846"/>
      <point x="-55" y="831"/>
      <point x="-109" y="831" type="curve" smooth="yes"/>
      <point x="-166" y="831"/>
      <point x="-188" y="846"/>
      <point x="-188" y="886" type="curve"/>
      <point x="-305" y="886" type="line"/>
      <point x="-305" y="882" type="line"/>
      <point x="-305" y="776"/>
      <point x="-237" y="728"/>
      <point x="-109" y="728" type="curve" smooth="yes"/>
      <point x="19" y="728"/>
      <point x="86" y="776"/>
      <point x="86" y="882" type="curve"/>
      <point x="86" y="886" type="line"/>
    </contour>
  </outline>
</glyph>
<glyph name="dvAnusvara" format="1">
  <advance width="0"/>
  <unicode hex="0902"/>
  <outline>
    <contour>
      <point x="-51" y="665" type="move" name="_abvm.bindu"/>
    </contour>
    <contour>
      <point x="-175" y="792" type="curve" smooth="yes"/>
      <point x="-175" y="756"/>
      <point x="-161" y="727"/>
      <point x="-110" y="727" type="curve" smooth="yes"/>
      <point x="-61" y="727"/>
      <point x="-45" y="756"/>
      <point x="-45" y="792" type="curve" smooth="yes"/>
      <point x="-45" y="829"/>
      <point x="-61" y="858"/>
      <point x="-110" y="858" type="curve" smooth="yes"/>
      <point x="-161" y="858"/>
      <point x="-175" y="829"/>
    </contour>
  </outline>
</glyph>
<glyph name="dvVisarga" format="1">
  <advance width="235"/>
  <unicode hex="0903"/>
  <outline>
    <contour>
      <point x="47" y="408" type="curve" smooth="yes"/>
      <point x="47" y="372"/>
      <point x="62" y="343"/>
      <point x="113" y="343" type="curve" smooth="yes"/>
      <point x="163" y="343"/>
      <point x="178" y="372"/>
      <point x="178" y="408" type="curve" smooth="yes"/>
      <point x="178" y="445"/>
      <point x="163" y="474"/>
      <point x="113" y="474" type="curve" smooth="yes"/>
      <point x="62" y="474"/>
      <point x="47" y="445"/>
    </contour>
    <contour>
      <point x="47" y="65" type="curve" smooth="yes"/>
      <point x="47" y="29"/>
      <point x="63" y="0"/>
      <point x="114" y="0" type="curve" smooth="yes"/>
      <point x="164" y="0"/>
      <point x="178" y="29"/>
      <point x="178" y="65" type="curve" smooth="yes"/>
      <point x="178" y="102"/>
      <point x="163" y="131"/>
      <point x="113" y="131" type="curve" smooth="yes"/>
      <point x="62" y="131"/>
      <point x="47" y="102"/>
    </contour>
  </outline>
</glyph>
<glyph name="dvA" format="1">
  <advance width="595"/>
  <unicode hex="0905"/>
  <outline>
    <contour>
      <point x="226" y="201" type="line"/>
      <point x="225" y="163"/>
      <point x="204" y="143"/>
      <point x="146" y="143" type="curve" smooth="yes"/>
      <point x="117" y="143"/>
      <point x="73" y="148"/>
      <point x="40" y="157" type="curve"/>
      <point x="40" y="49" type="line"/>
      <point x="66" y="41"/>
      <point x="109" y="36"/>
      <point x="147" y="36" type="curve" smooth="yes"/>
      <point x="286" y="36"/>
      <point x="341" y="97"/>
      <point x="342" y="196" type="curve"/>
      <point x="342" y="251" type="line" smooth="yes"/>
      <point x="342" y="302"/>
      <point x="328" y="344"/>
      <point x="296" y="363" type="curve"/>
      <point x="331" y="383"/>
      <point x="342" y="426"/>
      <point x="342" y="472" type="curve" smooth="yes"/>
      <point x="342" y="509" type="line" smooth="yes"/>
      <point x="342" y="608"/>
      <point x="287" y="670"/>
      <point x="147" y="670" type="curve" smooth="yes"/>
      <point x="109" y="670"/>
      <point x="77" y="665"/>
      <point x="53" y="657" type="curve"/>
      <point x="53" y="549" type="line"/>
      <point x="85" y="558"/>
      <point x="118" y="562"/>
      <point x="147" y="562" type="curve" smooth="yes"/>
      <point x="205" y="562"/>
      <point x="226" y="543"/>
      <point x="226" y="505" type="curve" smooth="yes"/>
      <point x="226" y="472" type="line" smooth="yes"/>
      <point x="226" y="437"/>
      <point x="212" y="417"/>
      <point x="164" y="417" type="curve" smooth="yes"/>
      <point x="105" y="417" type="line"/>
      <point x="105" y="308" type="line"/>
      <point x="164" y="308" type="line" smooth="yes"/>
      <point x="212" y="308"/>
      <point x="226" y="287"/>
      <point x="226" y="251" type="curve" smooth="yes"/>
    </contour>
    <contour>
      <point x="426" y="665" type="line"/>
      <point x="426" y="0" type="line"/>
      <point x="544" y="0" type="line"/>
      <point x="544" y="566" type="line"/>
      <point x="630" y="566" type="line"/>
      <point x="630" y="665" type="line"/>
    </contour>
    <contour>
      <point x="309" y="213" type="line"/>
      <point x="463" y="213" type="line"/>
      <point x="463" y="315" type="line"/>
      <point x="309" y="315" type="line"/>
    </contour>
  </outline>
</glyph>
<glyph name="dvI" format="1">
  <advance width="413"/>
  <unicode hex="0907"/>
  <outline>
    <contour>
      <point x="361" y="665" type="move" name="abvm.bindu"/>
    </contour>
    <contour>
      <point x="155" y="169" type="line"/>
      <point x="39" y="169" type="line"/>
      <point x="39" y="-77" type="line"/>
      <point x="155" y="-77" type="line"/>
      <point x="155" y="11" type="line"/>
      <point x="161" y="10"/>
      <point x="192" y="3"/>
      <point x="227" y="3" type="curve" smooth="yes"/>
      <point x="346" y="3"/>
      <point x="388" y="55"/>
      <point x="388" y="152" type="curve" smooth="yes"/>
      <point x="388" y="182" type="line" smooth="yes"/>
      <point x="388" y="279"/>
      <point x="334" y="324"/>
      <point x="218" y="324" type="curve" smooth="yes"/>
      <point x="193" y="324" type="line" smooth="yes"/>
      <point x="159" y="324"/>
      <point x="149" y="337"/>
      <point x="149" y="361" type="curve" smooth="yes"/>
      <point x="149" y="364" type="line" smooth="yes"/>
      <point x="149" y="389"/>
      <point x="158" y="402"/>
      <point x="193" y="402" type="curve" smooth="yes"/>
      <point x="361" y="402" type="line"/>
      <point x="361" y="566" type="line"/>
      <point x="448" y="566" type="line"/>
      <point x="448" y="665" type="line"/>
      <point x="-35" y="665" type="line"/>
      <point x="-35" y="566" type="line"/>
      <point x="243" y="566" type="line"/>
      <point x="243" y="504" type="line"/>
      <point x="193" y="504" type="line" smooth="yes"/>
      <point x="84" y="504"/>
      <point x="30" y="465"/>
      <point x="30" y="368" type="curve" smooth="yes"/>
      <point x="30" y="359" type="line" smooth="yes"/>
      <point x="30" y="263"/>
      <point x="88" y="224"/>
      <point x="193" y="224" type="curve" smooth="yes"/>
      <point x="218" y="224" type="line" smooth="yes"/>
      <point x="260" y="224"/>
      <point x="270" y="204"/>
      <point x="270" y="178" type="curve" smooth="yes"/>
      <point x="270" y="156" type="line" smooth="yes"/>
      <point x="270" y="125"/>
      <point x="255" y="109"/>
      <point x="211" y="109" type="curve" smooth="yes"/>
      <point x="186" y="109"/>
      <point x="162" y="114"/>
      <point x="155" y="116" type="curve"/>
    </contour>
  </outline>
</glyph>
<glyph name="dvII" format="1">
  <advance width="413"/>
  <unicode hex="0908"/>
  <outline>
    <contour>
      <point x="357" y="665" type="line"/>
      <point x="343" y="692"/>
      <point x="333" y="724"/>
      <point x="333" y="746" type="curve" smooth="yes"/>
      <point x="333" y="784"/>
      <point x="357" y="792"/>
      <point x="388" y="792" type="curve" smooth="yes"/>
      <point x="402" y="792"/>
      <point x="417" y="790"/>
      <point x="420" y="789" type="curve"/>
      <point x="420" y="894" type="line"/>
      <point x="417" y="894"/>
      <point x="396" y="899"/>
      <point x="349" y="899" type="curve" smooth="yes"/>
      <point x="283" y="899"/>
      <point x="214" y="873"/>
      <point x="214" y="771" type="curve" smooth="yes"/>
      <point x="214" y="730"/>
      <point x="229" y="693"/>
      <point x="242" y="665" type="curve"/>
    </contour>
    <contour>
      <point x="155" y="169" type="line"/>
      <point x="39" y="169" type="line"/>
      <point x="39" y="-77" type="line"/>
      <point x="155" y="-77" type="line"/>
      <point x="155" y="11" type="line"/>
      <point x="161" y="10"/>
      <point x="192" y="3"/>
      <point x="227" y="3" type="curve" smooth="yes"/>
      <point x="346" y="3"/>
      <point x="388" y="55"/>
      <point x="388" y="152" type="curve" smooth="yes"/>
      <point x="388" y="182" type="line" smooth="yes"/>
      <point x="388" y="279"/>
      <point x="334" y="324"/>
      <point x="218" y="324" type="curve" smooth="yes"/>
      <point x="193" y="324" type="line" smooth="yes"/>
      <point x="159" y="324"/>
      <point x="149" y="337"/>
      <point x="149" y="361" type="curve" smooth="yes"/>
      <point x="149" y="364" type="line" smooth="yes"/>
      <point x="149" y="389"/>
      <point x="158" y="402"/>
      <point x="193" y="402" type="curve" smooth="yes"/>
      <point x="361" y="402" type="line"/>
      <point x="361" y="566" type="line"/>
      <point x="448" y="566" type="line"/>
      <point x="448" y="665" type="line"/>
      <point x="-35" y="665" type="line"/>
      <point x="-35" y="566" type="line"/>
      <point x="243" y="566" type="line"/>
      <point x="243" y="504" type="line"/>
      <point x="193" y="504" type="line" smooth="yes"/>
      <point x="84" y="504"/>
      <point x="30" y="465"/>
      <point x="30" y="368" type="curve" smooth="yes"/>
      <point x="30" y="359" type="line" smooth="yes"/>
      <point x="30" y="263"/>
      <point x="88" y="224"/>
      <point x="193" y="224" type="curve" smooth="yes"/>
      <point x="218" y="224" type="line" smooth="yes"/>
      <point x="260" y="224"/>
      <point x="270" y="204"/>
      <point x="270" y="178" type="curve" smooth="yes"/>
      <point x="270" y="156" type="line" smooth="yes"/>
      <point x="270" y="125"/>
      <point x="255" y="109"/>
      <point x="211" y="109" type="curve" smooth="yes"/>
      <point x="186" y="109"/>
      <point x="162" y="114"/>
      <point x="155" y="116" type="curve"/>
    </contour>
  </outline>
</glyph>
<glyph name="dvU" format="1">
  <advance width="404"/>
  <unicode hex="0909"/>
  <outline>
    <contour>
      <point x="342" y="665" type="move" name="abvm.bindu"/>
    </contour>
    <contour>
      <point x="355" y="229" type="line"/>
      <point x="355" y="279"/>
      <point x="342" y="314"/>
      <point x="311" y="332" type="curve"/>
      <point x="342" y="348"/>
      <point x="355" y="383"/>
      <point x="355" y="433" type="curve" smooth="yes"/>
      <point x="355" y="513" type="line" smooth="yes"/>
      <point x="355" y="548"/>
      <point x="344" y="566"/>
      <point x="344" y="566" type="curve"/>
      <point x="438" y="566" type="line"/>
      <point x="438" y="665" type="line"/>
      <point x="-35" y="665" type="line"/>
      <point x="-35" y="566" type="line"/>
      <point x="226" y="566" type="line"/>
      <point x="226" y="566"/>
      <point x="237" y="550"/>
      <point x="237" y="512" type="curve" smooth="yes"/>
      <point x="237" y="437" type="line" smooth="yes"/>
      <point x="237" y="409"/>
      <point x="230" y="388"/>
      <point x="186" y="387" type="curve" smooth="yes"/>
      <point x="118" y="387" type="line"/>
      <point x="118" y="279" type="line"/>
      <point x="179" y="279" type="line" smooth="yes"/>
      <point x="226" y="278"/>
      <point x="237" y="253"/>
      <point x="237" y="221" type="curve" smooth="yes"/>
      <point x="237" y="160" type="line" smooth="yes"/>
      <point x="237" y="119"/>
      <point x="208" y="103"/>
      <point x="157" y="103" type="curve" smooth="yes"/>
      <point x="116" y="103"/>
      <point x="78" y="109"/>
      <point x="42" y="118" type="curve"/>
      <point x="42" y="9" type="line"/>
      <point x="85" y="1"/>
      <point x="118" y="-5"/>
      <point x="159" y="-5" type="curve" smooth="yes"/>
      <point x="290" y="-5"/>
      <point x="355" y="50"/>
      <point x="355" y="158" type="curve"/>
    </contour>
  </outline>
</glyph>
<glyph name="dvUU" format="1">
  <advance width="590"/>
  <unicode hex="090A"/>
  <outline>
    <contour>
      <point x="342" y="665" type="move" name="abvm.bindu"/>
    </contour>
    <contour>
      <point x="398" y="0" type="line"/>
      <point x="398" y="0"/>
      <point x="415" y="-2"/>
      <point x="424" y="-2" type="curve" smooth="yes"/>
      <point x="519" y="-2"/>
      <point x="568" y="53"/>
      <point x="568" y="152" type="curve" smooth="yes"/>
      <point x="568" y="238" type="line" smooth="yes"/>
      <point x="568" y="335"/>
      <point x="514" y="381"/>
      <point x="415" y="381" type="curve" smooth="yes"/>
      <point x="348" y="381"/>
      <point x="287" y="352"/>
      <point x="287" y="352" type="curve"/>
      <point x="287" y="272" type="line"/>
      <point x="287" y="272"/>
      <point x="362" y="272"/>
      <point x="395" y="272" type="curve" smooth="yes"/>
      <point x="437" y="272"/>
      <point x="450" y="252"/>
      <point x="450" y="216" type="curve" smooth="yes"/>
      <point x="450" y="156" type="line" smooth="yes"/>
      <point x="450" y="123"/>
      <point x="441" y="110"/>
      <point x="406" y="109" type="curve"/>
      <point x="398" y="109" type="line"/>
    </contour>
    <contour>
      <point x="355" y="229" type="line"/>
      <point x="355" y="279"/>
      <point x="342" y="314"/>
      <point x="311" y="332" type="curve"/>
      <point x="342" y="348"/>
      <point x="355" y="383"/>
      <point x="355" y="433" type="curve" smooth="yes"/>
      <point x="355" y="513" type="line" smooth="yes"/>
      <point x="355" y="548"/>
      <point x="344" y="566"/>
      <point x="344" y="566" type="curve"/>
      <point x="626" y="566" type="line"/>
      <point x="626" y="665" type="line"/>
      <point x="-35" y="665" type="line"/>
      <point x="-35" y="566" type="line"/>
      <point x="226" y="566" type="line"/>
      <point x="226" y="566"/>
      <point x="237" y="550"/>
      <point x="237" y="512" type="curve" smooth="yes"/>
      <point x="237" y="437" type="line" smooth="yes"/>
      <point x="237" y="409"/>
      <point x="230" y="388"/>
      <point x="186" y="387" type="curve" smooth="yes"/>
      <point x="118" y="387" type="line"/>
      <point x="118" y="279" type="line"/>
      <point x="179" y="279" type="line" smooth="yes"/>
      <point x="226" y="278"/>
      <point x="237" y="253"/>
      <point x="237" y="221" type="curve" smooth="yes"/>
      <point x="237" y="160" type="line" smooth="yes"/>
      <point x="237" y="119"/>
      <point x="208" y="103"/>
      <point x="157" y="103" type="curve" smooth="yes"/>
      <point x="116" y="103"/>
      <point x="78" y="109"/>
      <point x="42" y="118" type="curve"/>
      <point x="42" y="9" type="line"/>
      <point x="85" y="1"/>
      <point x="118" y="-5"/>
      <point x="159" y="-5" type="curve" smooth="yes"/>
      <point x="290" y="-5"/>
      <point x="355" y="50"/>
      <point x="355" y="158" type="curve" smooth="yes"/>
    </contour>
  </outline>
</glyph>
<glyph name="dvvR" format="1">
  <advance width="730"/>
  <unicode hex="090B"/>
  <outline>
    <contour>
      <point x="475" y="115" type="curve" smooth="yes"/>
      <point x="475" y="5"/>
      <point x="546" y="-39"/>
      <point x="649" y="-39" type="curve" smooth="yes"/>
      <point x="673" y="-39"/>
      <point x="695" y="-38"/>
      <point x="719" y="-34" type="curve"/>
      <point x="719" y="65" type="line"/>
      <point x="697" y="60"/>
      <point x="683" y="59"/>
      <point x="663" y="59" type="curve" smooth="yes"/>
      <point x="619" y="59"/>
      <point x="590" y="75"/>
      <point x="590" y="120" type="curve" smooth="yes"/>
      <point x="590" y="157"/>
      <point x="604" y="182"/>
      <point x="648" y="182" type="curve" smooth="yes"/>
      <point x="694" y="182" type="line"/>
      <point x="694" y="495" type="line"/>
      <point x="579" y="495" type="line"/>
      <point x="579" y="483" type="line" smooth="yes"/>
      <point x="579" y="445"/>
      <point x="558" y="428"/>
      <point x="513" y="428" type="curve" smooth="yes"/>
      <point x="478" y="428"/>
      <point x="445" y="432"/>
      <point x="410" y="439" type="curve"/>
      <point x="410" y="330" type="line"/>
      <point x="439" y="324"/>
      <point x="479" y="319"/>
      <point x="509" y="319" type="curve" smooth="yes"/>
      <point x="541" y="319"/>
      <point x="565" y="323"/>
      <point x="585" y="336" type="curve"/>
      <point x="585" y="257" type="line"/>
      <point x="515" y="251"/>
      <point x="475" y="200"/>
    </contour>
    <contour>
      <point x="322" y="198" type="curve"/>
      <point x="325" y="198" type="line"/>
      <point x="320" y="171"/>
      <point x="316" y="111"/>
      <point x="316" y="46" type="curve"/>
      <point x="316" y="0" type="line"/>
      <point x="427" y="0" type="line"/>
      <point x="427" y="566" type="line"/>
      <point x="765" y="566" type="line"/>
      <point x="765" y="665" type="line"/>
      <point x="-35" y="665" type="line"/>
      <point x="-35" y="566" type="line"/>
      <point x="309" y="566" type="line"/>
      <point x="309" y="485" type="line"/>
      <point x="302" y="487"/>
      <point x="268" y="496"/>
      <point x="216" y="496" type="curve" smooth="yes"/>
      <point x="82" y="496"/>
      <point x="30" y="433"/>
      <point x="30" y="327" type="curve" smooth="yes"/>
      <point x="30" y="257" type="line"/>
      <point x="144" y="257" type="line"/>
      <point x="144" y="319" type="line" smooth="yes"/>
      <point x="144" y="363"/>
      <point x="164" y="387"/>
      <point x="231" y="387" type="curve" smooth="yes"/>
      <point x="267" y="387"/>
      <point x="302" y="379"/>
      <point x="309" y="376" type="curve"/>
      <point x="309" y="316" type="line"/>
      <point x="29" y="18" type="line"/>
      <point x="30" y="14" type="line"/>
      <point x="176" y="14" type="line"/>
      <point x="252" y="97" type="line" smooth="yes"/>
      <point x="281" y="130"/>
      <point x="309" y="170"/>
    </contour>
  </outline>
</glyph>
<glyph name="dvvL" format="1">
  <advance width="640"/>
  <unicode hex="090C"/>
  <outline>
    <contour>
      <point x="589" y="27" type="curve"/>
      <point x="589" y="134" type="line"/>
      <point x="589" y="134"/>
      <point x="529" y="141"/>
      <point x="496" y="141" type="curve" smooth="yes"/>
      <point x="383" y="141"/>
      <point x="325" y="87"/>
      <point x="325" y="-17" type="curve" smooth="yes"/>
      <point x="325" y="-120"/>
      <point x="386" y="-174"/>
      <point x="498" y="-174" type="curve" smooth="yes"/>
      <point x="539" y="-174"/>
      <point x="569" y="-169"/>
      <point x="590" y="-165" type="curve"/>
      <point x="590" y="-57" type="line"/>
      <point x="559" y="-61"/>
      <point x="535" y="-66"/>
      <point x="500" y="-66" type="curve" smooth="yes"/>
      <point x="466" y="-66"/>
      <point x="441" y="-56"/>
      <point x="441" y="-17" type="curve" smooth="yes"/>
      <point x="441" y="21"/>
      <point x="463" y="34"/>
      <point x="499" y="34" type="curve" smooth="yes"/>
      <point x="527" y="34"/>
      <point x="558" y="31"/>
    </contour>
    <contour>
      <point x="36" y="174" type="line"/>
      <point x="36" y="58"/>
      <point x="92" y="0"/>
      <point x="225" y="0" type="curve" smooth="yes"/>
      <point x="241" y="0"/>
      <point x="259" y="2"/>
      <point x="269" y="3" type="curve"/>
      <point x="269" y="111" type="line"/>
      <point x="259" y="110"/>
      <point x="242" y="109"/>
      <point x="228" y="109" type="curve" smooth="yes"/>
      <point x="166" y="109"/>
      <point x="154" y="139"/>
      <point x="154" y="178" type="curve" smooth="yes"/>
      <point x="154" y="332" type="line" smooth="yes"/>
      <point x="154" y="361"/>
      <point x="162" y="381"/>
      <point x="203" y="381" type="curve" smooth="yes"/>
      <point x="244" y="381"/>
      <point x="253" y="361"/>
      <point x="253" y="333" type="curve" smooth="yes"/>
      <point x="253" y="218" type="line"/>
      <point x="371" y="218" type="line"/>
      <point x="371" y="333" type="line" smooth="yes"/>
      <point x="371" y="361"/>
      <point x="384" y="381"/>
      <point x="425" y="381" type="curve" smooth="yes"/>
      <point x="442" y="381"/>
      <point x="458" y="378"/>
      <point x="470" y="373" type="curve"/>
      <point x="470" y="103" type="line"/>
      <point x="589" y="103" type="line"/>
      <point x="589" y="566" type="line"/>
      <point x="675" y="566" type="line"/>
      <point x="675" y="665" type="line"/>
      <point x="-35" y="665" type="line"/>
      <point x="-35" y="566" type="line"/>
      <point x="470" y="566" type="line"/>
      <point x="470" y="482" type="line"/>
      <point x="453" y="486"/>
      <point x="435" y="489"/>
      <point x="415" y="489" type="curve" smooth="yes"/>
      <point x="358" y="489"/>
      <point x="330" y="467"/>
      <point x="310" y="438" type="curve"/>
      <point x="296" y="462"/>
      <point x="262" y="490"/>
      <point x="200" y="490" type="curve" smooth="yes"/>
      <point x="92" y="490"/>
      <point x="36" y="433"/>
      <point x="36" y="336" type="curve" smooth="yes"/>
    </contour>
  </outline>
</glyph>
<glyph name="dvEcandra" format="1">
  <advance width="437"/>
  <unicode hex="090D"/>
  <outline>
    <contour>
      <point x="301" y="885" type="line"/>
      <point x="301" y="845"/>
      <point x="277" y="830"/>
      <point x="223" y="830" type="curve" smooth="yes"/>
      <point x="166" y="830"/>
      <point x="144" y="845"/>
      <point x="144" y="885" type="curve"/>
      <point x="27" y="885" type="line"/>
      <point x="27" y="881" type="line"/>
      <point x="27" y="775"/>
      <point x="95" y="727"/>
      <point x="223" y="727" type="curve" smooth="yes"/>
      <point x="351" y="727"/>
      <point x="418" y="775"/>
      <point x="418" y="881" type="curve"/>
      <point x="418" y="885" type="line"/>
    </contour>
    <contour>
      <point x="371" y="122" type="line"/>
      <point x="336" y="112"/>
      <point x="298" y="104"/>
      <point x="248" y="104" type="curve" smooth="yes"/>
      <point x="186" y="104"/>
      <point x="167" y="128"/>
      <point x="167" y="171" type="curve" smooth="yes"/>
      <point x="167" y="566" type="line"/>
      <point x="277" y="566" type="line"/>
      <point x="277" y="409" type="line" smooth="yes"/>
      <point x="277" y="376"/>
      <point x="270" y="364"/>
      <point x="237" y="364" type="curve" smooth="yes"/>
      <point x="235" y="364"/>
      <point x="227" y="364"/>
      <point x="225" y="364" type="curve"/>
      <point x="225" y="255" type="line"/>
      <point x="232" y="254"/>
      <point x="240" y="253"/>
      <point x="246" y="253" type="curve" smooth="yes"/>
      <point x="360" y="253"/>
      <point x="395" y="308"/>
      <point x="395" y="402" type="curve" smooth="yes"/>
      <point x="395" y="566" type="line"/>
      <point x="472" y="566" type="line"/>
      <point x="472" y="665" type="line"/>
      <point x="-35" y="665" type="line"/>
      <point x="-35" y="566" type="line"/>
      <point x="49" y="566" type="line"/>
      <point x="49" y="167" type="line" smooth="yes"/>
      <point x="49" y="52"/>
      <point x="107" y="-5"/>
      <point x="244" y="-5" type="curve" smooth="yes"/>
      <point x="299" y="-5"/>
      <point x="343" y="5"/>
      <point x="371" y="15" type="curve"/>
    </contour>
  </outline>
</glyph>
<glyph name="dvE" format="1">
  <advance width="437"/>
  <unicode hex="090F"/>
  <outline>
    <contour>
      <point x="372" y="122" type="line"/>
      <point x="338" y="112"/>
      <point x="300" y="104"/>
      <point x="249" y="104" type="curve" smooth="yes"/>
      <point x="185" y="104"/>
      <point x="167" y="128"/>
      <point x="167" y="173" type="curve" smooth="yes"/>
      <point x="167" y="566" type="line"/>
      <point x="277" y="566" type="line"/>
      <point x="277" y="409" type="line" smooth="yes"/>
      <point x="277" y="376"/>
      <point x="270" y="364"/>
      <point x="237" y="364" type="curve" smooth="yes"/>
      <point x="235" y="364"/>
      <point x="227" y="364"/>
      <point x="225" y="364" type="curve"/>
      <point x="225" y="255" type="line"/>
      <point x="232" y="254"/>
      <point x="240" y="253"/>
      <point x="246" y="253" type="curve" smooth="yes"/>
      <point x="360" y="253"/>
      <point x="395" y="308"/>
      <point x="395" y="402" type="curve" smooth="yes"/>
      <point x="395" y="566" type="line"/>
      <point x="472" y="566" type="line"/>
      <point x="472" y="665" type="line"/>
      <point x="-35" y="665" type="line"/>
      <point x="-35" y="566" type="line"/>
      <point x="49" y="566" type="line"/>
      <point x="49" y="169" type="line" smooth="yes"/>
      <point x="49" y="52"/>
      <point x="108" y="-5"/>
      <point x="245" y="-5" type="curve" smooth="yes"/>
      <point x="301" y="-5"/>
      <point x="344" y="5"/>
      <point x="372" y="15" type="curve"/>
    </contour>
  </outline>
</glyph>
<glyph name="dvAI" format="1">
  <advance width="437"/>
  <unicode hex="0910"/>
  <outline>
    <contour>
      <point x="271" y="665" type="line"/>
      <point x="392" y="665" type="line"/>
      <point x="238" y="895" type="line"/>
      <point x="107" y="895" type="line"/>
    </contour>
    <contour>
      <point x="371" y="122" type="line"/>
      <point x="336" y="112"/>
      <point x="298" y="104"/>
      <point x="248" y="104" type="curve" smooth="yes"/>
      <point x="186" y="104"/>
      <point x="167" y="128"/>
      <point x="167" y="171" type="curve" smooth="yes"/>
      <point x="167" y="566" type="line"/>
      <point x="277" y="566" type="line"/>
      <point x="277" y="409" type="line" smooth="yes"/>
      <point x="277" y="376"/>
      <point x="270" y="364"/>
      <point x="237" y="364" type="curve" smooth="yes"/>
      <point x="235" y="364"/>
      <point x="227" y="364"/>
      <point x="225" y="364" type="curve"/>
      <point x="225" y="255" type="line"/>
      <point x="232" y="254"/>
      <point x="240" y="253"/>
      <point x="246" y="253" type="curve" smooth="yes"/>
      <point x="360" y="253"/>
      <point x="395" y="308"/>
      <point x="395" y="402" type="curve" smooth="yes"/>
      <point x="395" y="566" type="line"/>
      <point x="472" y="566" type="line"/>
      <point x="472" y="665" type="line"/>
      <point x="-35" y="665" type="line"/>
      <point x="-35" y="566" type="line"/>
      <point x="49" y="566" type="line"/>
      <point x="49" y="167" type="line" smooth="yes"/>
      <point x="49" y="52"/>
      <point x="107" y="-5"/>
      <point x="244" y="-5" type="curve" smooth="yes"/>
      <point x="299" y="-5"/>
      <point x="343" y="5"/>
      <point x="371" y="15" type="curve"/>
    </contour>
  </outline>
</glyph>
<glyph name="dvOcandra" format="1">
  <advance width="822"/>
  <unicode hex="0911"/>
  <outline>
    <contour>
      <point x="653" y="566" type="line"/>
      <point x="653" y="0" type="line"/>
      <point x="771" y="0" type="line"/>
      <point x="771" y="566" type="line"/>
      <point x="857" y="566" type="line"/>
      <point x="857" y="665" type="line"/>
      <point x="567" y="665" type="line"/>
      <point x="567" y="566" type="line"/>
    </contour>
    <contour>
      <point x="686" y="884" type="line"/>
      <point x="686" y="843"/>
      <point x="662" y="828"/>
      <point x="608" y="828" type="curve" smooth="yes"/>
      <point x="552" y="828"/>
      <point x="530" y="843"/>
      <point x="530" y="884" type="curve"/>
      <point x="413" y="884" type="line"/>
      <point x="413" y="879" type="line"/>
      <point x="413" y="773"/>
      <point x="482" y="726"/>
      <point x="608" y="726" type="curve" smooth="yes"/>
      <point x="736" y="726"/>
      <point x="804" y="773"/>
      <point x="804" y="879" type="curve"/>
      <point x="804" y="884" type="line"/>
    </contour>
    <component base="dvA" xOffset="7"/>
  </outline>
</glyph>
<glyph name="dvKA" format="1">
  <advance width="618"/>
  <unicode hex="0915"/>
  <outline>
    <contour>
      <point x="366" y="665" type="move" name="abvm.bindu"/>
    </contour>
    <contour>
      <point x="366" y="0" type="move" name="blwm.virama"/>
    </contour>
    <contour>
      <point x="366" y="665" type="move" name="abvm.e"/>
    </contour>
    <contour>
      <point x="366" y="0" type="move" name="blwm.u"/>
    </contour>
    <contour>
      <point x="251" y="566" type="line"/>
      <point x="-35" y="566" type="line"/>
      <point x="-35" y="665" type="line"/>
      <point x="652" y="665" type="line"/>
      <point x="652" y="566" type="line"/>
      <point x="366" y="566" type="line"/>
      <point x="366" y="499" type="line"/>
      <point x="371" y="500"/>
      <point x="397" y="505"/>
      <point x="430" y="505" type="curve" smooth="yes"/>
      <point x="535" y="505"/>
      <point x="581" y="454"/>
      <point x="581" y="357" type="curve" smooth="yes"/>
      <point x="581" y="210" type="line" smooth="yes"/>
      <point x="581" y="116"/>
      <point x="544" y="63"/>
      <point x="438" y="63" type="curve" smooth="yes"/>
      <point x="428" y="63"/>
      <point x="418" y="65"/>
      <point x="416" y="65" type="curve"/>
      <point x="416" y="175" type="line"/>
      <point x="418" y="175"/>
      <point x="424" y="174"/>
      <point x="430" y="174" type="curve" smooth="yes"/>
      <point x="462" y="175"/>
      <point x="469" y="189"/>
      <point x="469" y="221" type="curve" smooth="yes"/>
      <point x="469" y="353" type="line" smooth="yes"/>
      <point x="469" y="383"/>
      <point x="458" y="403"/>
      <point x="415" y="403" type="curve" smooth="yes"/>
      <point x="395" y="403"/>
      <point x="372" y="399"/>
      <point x="366" y="397" type="curve"/>
      <point x="366" y="0" type="line"/>
      <point x="250" y="0" type="line"/>
      <point x="250" y="65" type="line"/>
      <point x="246" y="63"/>
      <point x="218" y="56"/>
      <point x="186" y="56" type="curve" smooth="yes"/>
      <point x="81" y="56"/>
      <point x="35" y="103"/>
      <point x="35" y="199" type="curve" smooth="yes"/>
      <point x="35" y="357" type="line" smooth="yes"/>
      <point x="35" y="454"/>
      <point x="81" y="505"/>
      <point x="186" y="505" type="curve" smooth="yes"/>
      <point x="201" y="505"/>
      <point x="213" y="502"/>
      <point x="215" y="502" type="curve"/>
      <point x="215" y="401" type="line"/>
      <point x="213" y="402"/>
      <point x="207" y="403"/>
      <point x="201" y="403" type="curve" smooth="yes"/>
      <point x="158" y="403"/>
      <point x="147" y="383"/>
      <point x="147" y="353" type="curve" smooth="yes"/>
      <point x="147" y="204" type="line" smooth="yes"/>
      <point x="147" y="174"/>
      <point x="158" y="154"/>
      <point x="201" y="154" type="curve" smooth="yes"/>
      <point x="227" y="154"/>
      <point x="247" y="161"/>
      <point x="251" y="163" type="curve"/>
    </contour>
  </outline>
</glyph>
<glyph name="dvKHA" format="1">
  <advance width="775"/>
  <unicode hex="0916"/>
  <outline>
    <contour>
      <point x="150" y="448" type="line"/>
      <point x="37" y="448" type="line"/>
      <point x="37" y="188" type="line" smooth="yes"/>
      <point x="37" y="72"/>
      <point x="107" y="-5"/>
      <point x="255" y="-5" type="curve" smooth="yes"/>
      <point x="299" y="-5"/>
      <point x="353" y="2"/>
      <point x="390" y="13" type="curve"/>
      <point x="390" y="124" type="line"/>
      <point x="355" y="110"/>
      <point x="313" y="102"/>
      <point x="265" y="102" type="curve" smooth="yes"/>
      <point x="183" y="102"/>
      <point x="150" y="133"/>
      <point x="150" y="190" type="curve" smooth="yes"/>
    </contour>
    <contour>
      <point x="127" y="245" type="line"/>
      <point x="146" y="240"/>
      <point x="175" y="235"/>
      <point x="201" y="235" type="curve"/>
      <point x="310" y="235"/>
      <point x="355" y="290"/>
      <point x="355" y="391" type="curve" smooth="yes"/>
      <point x="355" y="512" type="line" smooth="yes"/>
      <point x="355" y="547"/>
      <point x="348" y="566"/>
      <point x="348" y="566" type="curve"/>
      <point x="441" y="566" type="line"/>
      <point x="441" y="665" type="line"/>
      <point x="-35" y="665" type="line"/>
      <point x="-35" y="566" type="line"/>
      <point x="235" y="566" type="line"/>
      <point x="235" y="566"/>
      <point x="246" y="549"/>
      <point x="246" y="512" type="curve" smooth="yes"/>
      <point x="246" y="392" type="line"/>
      <point x="246" y="361"/>
      <point x="235" y="340"/>
      <point x="193" y="340" type="curve"/>
      <point x="169" y="340"/>
      <point x="150" y="343"/>
      <point x="127" y="346" type="curve"/>
    </contour>
    <contour>
      <point x="396" y="346" type="curve"/>
      <point x="396" y="255" type="line"/>
      <point x="396" y="158"/>
      <point x="432" y="107"/>
      <point x="548" y="107" type="curve"/>
      <point x="582" y="107"/>
      <point x="602" y="112"/>
      <point x="607" y="114" type="curve"/>
      <point x="607" y="0" type="line"/>
      <point x="723" y="0" type="line"/>
      <point x="723" y="566" type="line"/>
      <point x="809" y="566" type="line"/>
      <point x="809" y="665" type="line"/>
      <point x="388" y="665" type="line"/>
      <point x="388" y="566" type="line"/>
      <point x="607" y="566" type="line"/>
      <point x="607" y="492" type="line"/>
      <point x="601" y="493"/>
      <point x="574" y="498"/>
      <point x="543" y="498" type="curve"/>
      <point x="427" y="498"/>
      <point x="396" y="443"/>
    </contour>
    <contour>
      <point x="607" y="213" type="line"/>
      <point x="604" y="212"/>
      <point x="584" y="207"/>
      <point x="557" y="207" type="curve"/>
      <point x="514" y="207"/>
      <point x="502" y="225"/>
      <point x="502" y="255" type="curve" smooth="yes"/>
      <point x="502" y="347" type="line" smooth="yes"/>
      <point x="502" y="376"/>
      <point x="514" y="395"/>
      <point x="557" y="395" type="curve" smooth="yes"/>
      <point x="582" y="395"/>
      <point x="602" y="390"/>
      <point x="607" y="389" type="curve"/>
    </contour>
  </outline>
</glyph>
<glyph name="dvGA" format="1">
  <advance width="490"/>
  <unicode hex="0917"/>
  <outline>
    <contour>
      <point x="277" y="566" type="line"/>
      <point x="321" y="566" type="line"/>
      <point x="321" y="0" type="line"/>
      <point x="439" y="0" type="line"/>
      <point x="439" y="566" type="line"/>
      <point x="524" y="566" type="line"/>
      <point x="524" y="665" type="line"/>
      <point x="277" y="665" type="line"/>
    </contour>
    <contour>
      <point x="222" y="566" type="line"/>
      <point x="277" y="566" type="line"/>
      <point x="277" y="665" type="line"/>
      <point x="-35" y="665" type="line"/>
      <point x="-35" y="566" type="line"/>
      <point x="104" y="566" type="line"/>
      <point x="104" y="340" type="line" smooth="yes"/>
      <point x="104" y="306"/>
      <point x="85" y="289"/>
      <point x="48" y="289" type="curve" smooth="yes"/>
      <point x="34" y="289"/>
      <point x="17" y="291"/>
      <point x="16" y="291" type="curve"/>
      <point x="16" y="178" type="line"/>
      <point x="17" y="177"/>
      <point x="49" y="175"/>
      <point x="65" y="175" type="curve" smooth="yes"/>
      <point x="162" y="175"/>
      <point x="222" y="227"/>
      <point x="222" y="330" type="curve"/>
    </contour>
  </outline>
</glyph>
